<svg viewBox="0 0 24 24" fill="none" xmlns="http://www.w3.org/2000/svg"><path d="M8.75 2V1.25H7.25V2H8H8.75ZM7.25 6V6.75H8.75V6H8H7.25ZM16.75 2V1.25H15.25V2H16H16.75ZM15.25 6V6.75H16.75V6H16H15.25ZM3.00011 4V3.25H2.25019L2.25011 3.99991L3.00011 4ZM21 4L21.75 4V3.25H21V4ZM21 20H20.25V20H21ZM21 22V22.75H21.75V22H21ZM3.00019 22L2.25019 22.0002L2.25035 22.75H3.00019V22ZM3 9.25C2.58579 9.25 2.25 9.58579 2.25 10C2.25 10.4142 2.58579 10.75 3 10.75V10V9.25ZM21 10.75C21.4142 10.75 21.75 10.4142 21.75 10C21.75 9.58579 21.4142 9.25 21 9.25V10V10.75ZM8 2H7.25V6H8H8.75V2H8ZM16 2H15.25V6H16H16.75V2H16ZM3.00011 4V4.75H19V4V3.25H3.00011V4ZM19 4V4.75C19.0022 4.75 19.0043 4.75 19.0065 4.75C19.0086 4.75 19.0108 4.75 19.0129 4.75C19.0151 4.75 19.0172 4.75 19.0194 4.75C19.0215 4.75 19.0237 4.75 19.0258 4.75C19.028 4.75 19.0301 4.75 19.0323 4.75C19.0344 4.75 19.0366 4.75 19.0387 4.75C19.0409 4.75 19.043 4.75 19.0452 4.75C19.0473 4.75 19.0495 4.75 19.0516 4.75C19.0538 4.75 19.0559 4.75 19.058 4.75C19.0602 4.75 19.0623 4.75 19.0645 4.75C19.0666 4.75 19.0688 4.75 19.0709 4.75C19.073 4.75 19.0752 4.75 19.0773 4.75C19.0794 4.75 19.0816 4.75 19.0837 4.75C19.0859 4.75 19.088 4.75 19.0901 4.75C19.0923 4.75 19.0944 4.75 19.0965 4.75C19.0987 4.75 19.1008 4.75 19.1029 4.75C19.105 4.75 19.1072 4.75 19.1093 4.75C19.1114 4.75 19.1136 4.75 19.1157 4.75C19.1178 4.75 19.1199 4.75 19.1221 4.75C19.1242 4.75 19.1263 4.75 19.1284 4.75C19.1306 4.75 19.1327 4.75 19.1348 4.75C19.1369 4.75 19.139 4.75 19.1412 4.75C19.1433 4.75 19.1454 4.75 19.1475 4.75C19.1496 4.75 19.1518 4.75 19.1539 4.75C19.156 4.75 19.1581 4.75 19.1602 4.75C19.1623 4.75 19.1644 4.75 19.1666 4.75C19.1687 4.75 19.1708 4.75 19.1729 4.75C19.175 4.75 19.1771 4.75 19.1792 4.75C19.1813 4.75 19.1834 4.75 19.1855 4.75C19.1877 4.75 19.1898 4.75 19.1919 4.75C19.194 4.75 19.1961 4.75 19.1982 4.75C19.2003 4.75 19.2024 4.75 19.2045 4.75C19.2066 4.75 19.2087 4.75 19.2108 4.75C19.2129 4.75 19.215 4.75 19.2171 4.75C19.2192 4.75 19.2213 4.75 19.2234 4.75C19.2255 4.75 19.2276 4.75 19.2297 4.75C19.2317 4.75 19.2338 4.75 19.2359 4.75C19.238 4.75 19.2401 4.75 19.2422 4.75C19.2443 4.75 19.2464 4.75 19.2485 4.75C19.2506 4.75 19.2526 4.75 19.2547 4.75C19.2568 4.75 19.2589 4.75 19.261 4.75C19.2631 4.75 19.2651 4.75 19.2672 4.75C19.2693 4.75 19.2714 4.75 19.2735 4.75C19.2755 4.75 19.2776 4.75 19.2797 4.75C19.2818 4.75 19.2839 4.75 19.2859 4.75C19.288 4.75 19.2901 4.75 19.2921 4.75C19.2942 4.75 19.2963 4.75 19.2984 4.75C19.3004 4.75 19.3025 4.75 19.3046 4.75C19.3066 4.75 19.3087 4.75 19.3108 4.75C19.3128 4.75 19.3149 4.75 19.317 4.75C19.319 4.75 19.3211 4.75 19.3232 4.75C19.3252 4.75 19.3273 4.75 19.3294 4.75C19.3314 4.75 19.3335 4.75 19.3355 4.75C19.3376 4.75 19.3396 4.75 19.3417 4.75C19.3438 4.75 19.3458 4.75 19.3479 4.75C19.3499 4.75 19.352 4.75 19.354 4.75C19.3561 4.75 19.3581 4.75 19.3602 4.75C19.3622 4.75 19.3643 4.75 19.3663 4.75C19.3684 4.75 19.3704 4.75 19.3725 4.75C19.3745 4.75 19.3766 4.75 19.3786 4.75C19.3806 4.75 19.3827 4.75 19.3847 4.75C19.3868 4.75 19.3888 4.75 19.3908 4.75C19.3929 4.75 19.3949 4.75 19.397 4.75C19.399 4.75 19.401 4.75 19.4031 4.75C19.4051 4.75 19.4071 4.75 19.4092 4.75C19.4112 4.75 19.4132 4.75 19.4153 4.75C19.4173 4.75 19.4193 4.75 19.4213 4.75C19.4234 4.75 19.4254 4.75 19.4274 4.75C19.4294 4.75 19.4315 4.75 19.4335 4.75C19.4355 4.75 19.4375 4.75 19.4396 4.75C19.4416 4.75 19.4436 4.75 19.4456 4.75C19.4476 4.75 19.4497 4.75 19.4517 4.75C19.4537 4.75 19.4557 4.75 19.4577 4.75C19.4597 4.75 19.4617 4.75 19.4638 4.75C19.4658 4.75 19.4678 4.75 19.4698 4.75C19.4718 4.75 19.4738 4.75 19.4758 4.75C19.4778 4.75 19.4798 4.75 19.4818 4.75C19.4838 4.75 19.4858 4.75 19.4878 4.75C19.4898 4.75 19.4918 4.75 19.4938 4.75C19.4958 4.75 19.4978 4.75 19.4998 4.75C19.5018 4.75 19.5038 4.75 19.5058 4.75C19.5078 4.75 19.5098 4.75 19.5118 4.75C19.5138 4.75 19.5158 4.75 19.5178 4.75C19.5198 4.75 19.5217 4.75 19.5237 4.75C19.5257 4.75 19.5277 4.75 19.5297 4.75C19.5317 4.75 19.5337 4.75 19.5356 4.75C19.5376 4.75 19.5396 4.75 19.5416 4.75C19.5436 4.75 19.5455 4.75 19.5475 4.75C19.5495 4.75 19.5515 4.75 19.5534 4.75C19.5554 4.75 19.5574 4.75 19.5594 4.75C19.5613 4.75 19.5633 4.75 19.5653 4.75C19.5673 4.75 19.5692 4.75 19.5712 4.75C19.5732 4.75 19.5751 4.75 19.5771 4.75C19.5791 4.75 19.581 4.75 19.583 4.75C19.5849 4.75 19.5869 4.75 19.5889 4.75C19.5908 4.75 19.5928 4.75 19.5947 4.75C19.5967 4.75 19.5986 4.75 19.6006 4.75C19.6026 4.75 19.6045 4.75 19.6065 4.75C19.6084 4.75 19.6104 4.75 19.6123 4.75C19.6143 4.75 19.6162 4.75 19.6182 4.75C19.6201 4.75 19.622 4.75 19.624 4.75C19.6259 4.75 19.6279 4.75 19.6298 4.75C19.6318 4.75 19.6337 4.75 19.6356 4.75C19.6376 4.75 19.6395 4.75 19.6415 4.75C19.6434 4.75 19.6453 4.75 19.6473 4.75C19.6492 4.75 19.6511 4.75 19.6531 4.75C19.655 4.75 19.6569 4.75 19.6588 4.75C19.6608 4.75 19.6627 4.75 19.6646 4.75C19.6665 4.75 19.6685 4.75 19.6704 4.75C19.6723 4.75 19.6742 4.75 19.6762 4.75C19.6781 4.75 19.68 4.75 19.6819 4.75C19.6838 4.75 19.6857 4.75 19.6877 4.75C19.6896 4.75 19.6915 4.75 19.6934 4.75C19.6953 4.75 19.6972 4.75 19.6991 4.75C19.701 4.75 19.7029 4.75 19.7049 4.75C19.7068 4.75 19.7087 4.75 19.7106 4.75C19.7125 4.75 19.7144 4.75 19.7163 4.75C19.7182 4.75 19.7201 4.75 19.722 4.75C19.7239 4.75 19.7258 4.75 19.7277 4.75C19.7296 4.75 19.7315 4.75 19.7333 4.75C19.7352 4.75 19.7371 4.75 19.739 4.75C19.7409 4.75 19.7428 4.75 19.7447 4.75C19.7466 4.75 19.7485 4.75 19.7503 4.75C19.7522 4.75 19.7541 4.75 19.756 4.75C19.7579 4.75 19.7597 4.75 19.7616 4.75C19.7635 4.75 19.7654 4.75 19.7673 4.75C19.7691 4.75 19.771 4.75 19.7729 4.75C19.7747 4.75 19.7766 4.75 19.7785 4.75C19.7804 4.75 19.7822 4.75 19.7841 4.75C19.786 4.75 19.7878 4.75 19.7897 4.75C19.7915 4.75 19.7934 4.75 19.7953 4.75C19.7971 4.75 19.799 4.75 19.8008 4.75C19.8027 4.75 19.8046 4.75 19.8064 4.75C19.8083 4.75 19.8101 4.75 19.812 4.75C19.8138 4.75 19.8157 4.75 19.8175 4.75C19.8194 4.75 19.8212 4.75 19.8231 4.75C19.8249 4.75 19.8268 4.75 19.8286 4.75C19.8304 4.75 19.8323 4.75 19.8341 4.75C19.836 4.75 19.8378 4.75 19.8396 4.75C19.8415 4.75 19.8433 4.75 19.8451 4.75C19.847 4.75 19.8488 4.75 19.8506 4.75C19.8525 4.75 19.8543 4.75 19.8561 4.75C19.858 4.75 19.8598 4.75 19.8616 4.75C19.8634 4.75 19.8653 4.75 19.8671 4.75C19.8689 4.75 19.8707 4.75 19.8725 4.75C19.8744 4.75 19.8762 4.75 19.878 4.75C19.8798 4.75 19.8816 4.75 19.8834 4.75C19.8852 4.75 19.8871 4.75 19.8889 4.75C19.8907 4.75 19.8925 4.75 19.8943 4.75C19.8961 4.75 19.8979 4.75 19.8997 4.75C19.9015 4.75 19.9033 4.75 19.9051 4.75C19.9069 4.75 19.9087 4.75 19.9105 4.75C19.9123 4.75 19.9141 4.75 19.9159 4.75C19.9177 4.75 19.9195 4.75 19.9213 4.75C19.9231 4.75 19.9248 4.75 19.9266 4.75C19.9284 4.75 19.9302 4.75 19.932 4.75C19.9338 4.75 19.9356 4.75 19.9373 4.75C19.9391 4.75 19.9409 4.75 19.9427 4.75C19.9444 4.75 19.9462 4.75 19.948 4.75C19.9498 4.75 19.9515 4.75 19.9533 4.75C19.9551 4.75 19.9569 4.75 19.9586 4.75C19.9604 4.75 19.9622 4.75 19.9639 4.75C19.9657 4.75 19.9675 4.75 19.9692 4.75C19.971 4.75 19.9727 4.75 19.9745 4.75C19.9762 4.75 19.978 4.75 19.9798 4.75C19.9815 4.75 19.9833 4.75 19.985 4.75C19.9868 4.75 19.9885 4.75 19.9903 4.75C19.992 4.75 19.9938 4.75 19.9955 4.75C19.9973 4.75 19.999 4.75 20.0007 4.75C20.0025 4.75 20.0042 4.75 20.006 4.75C20.0077 4.75 20.0094 4.75 20.0112 4.75C20.0129 4.75 20.0146 4.75 20.0164 4.75C20.0181 4.75 20.0198 4.75 20.0216 4.75C20.0233 4.75 20.025 4.75 20.0267 4.75C20.0285 4.75 20.0302 4.75 20.0319 4.75C20.0336 4.75 20.0354 4.75 20.0371 4.75C20.0388 4.75 20.0405 4.75 20.0422 4.75C20.0439 4.75 20.0456 4.75 20.0474 4.75C20.0491 4.75 20.0508 4.75 20.0525 4.75C20.0542 4.75 20.0559 4.75 20.0576 4.75C20.0593 4.75 20.061 4.75 20.0627 4.75C20.0644 4.75 20.0661 4.75 20.0678 4.75C20.0695 4.75 20.0712 4.75 20.0729 4.75C20.0746 4.75 20.0763 4.75 20.078 4.75C20.0797 4.75 20.0814 4.75 20.083 4.75C20.0847 4.75 20.0864 4.75 20.0881 4.75C20.0898 4.75 20.0915 4.75 20.0931 4.75C20.0948 4.75 20.0965 4.75 20.0982 4.75C20.0999 4.75 20.1015 4.75 20.1032 4.75C20.1049 4.75 20.1066 4.75 20.1082 4.75C20.1099 4.75 20.1116 4.75 20.1132 4.75C20.1149 4.75 20.1166 4.75 20.1182 4.75C20.1199 4.75 20.1215 4.75 20.1232 4.75C20.1249 4.75 20.1265 4.75 20.1282 4.75C20.1298 4.75 20.1315 4.75 20.1331 4.75C20.1348 4.75 20.1364 4.75 20.1381 4.75C20.1397 4.75 20.1414 4.75 20.143 4.75C20.1447 4.75 20.1463 4.75 20.1479 4.75C20.1496 4.75 20.1512 4.75 20.1529 4.75C20.1545 4.75 20.1561 4.75 20.1578 4.75C20.1594 4.75 20.161 4.75 20.1627 4.75C20.1643 4.75 20.1659 4.75 20.1676 4.75C20.1692 4.75 20.1708 4.75 20.1724 4.75C20.174 4.75 20.1757 4.75 20.1773 4.75C20.1789 4.75 20.1805 4.75 20.1821 4.75C20.1838 4.75 20.1854 4.75 20.187 4.75C20.1886 4.75 20.1902 4.75 20.1918 4.75C20.1934 4.75 20.195 4.75 20.1966 4.75C20.1982 4.75 20.1998 4.75 20.2014 4.75C20.203 4.75 20.2046 4.75 20.2062 4.75C20.2078 4.75 20.2094 4.75 20.211 4.75C20.2126 4.75 20.2142 4.75 20.2158 4.75C20.2174 4.75 20.219 4.75 20.2206 4.75C20.2221 4.75 20.2237 4.75 20.2253 4.75C20.2269 4.75 20.2285 4.75 20.23 4.75C20.2316 4.75 20.2332 4.75 20.2348 4.75C20.2363 4.75 20.2379 4.75 20.2395 4.75C20.2411 4.75 20.2426 4.75 20.2442 4.75C20.2458 4.75 20.2473 4.75 20.2489 4.75C20.2505 4.75 20.252 4.75 20.2536 4.75C20.2551 4.75 20.2567 4.75 20.2582 4.75C20.2598 4.75 20.2613 4.75 20.2629 4.75C20.2645 4.75 20.266 4.75 20.2675 4.75C20.2691 4.75 20.2706 4.75 20.2722 4.75C20.2737 4.75 20.2753 4.75 20.2768 4.75C20.2783 4.75 20.2799 4.75 20.2814 4.75C20.283 4.75 20.2845 4.75 20.286 4.75C20.2876 4.75 20.2891 4.75 20.2906 4.75C20.2921 4.75 20.2937 4.75 20.2952 4.75C20.2967 4.75 20.2982 4.75 20.2998 4.75C20.3013 4.75 20.3028 4.75 20.3043 4.75C20.3058 4.75 20.3073 4.75 20.3088 4.75C20.3104 4.75 20.3119 4.75 20.3134 4.75C20.3149 4.75 20.3164 4.75 20.3179 4.75C20.3194 4.75 20.3209 4.75 20.3224 4.75C20.3239 4.75 20.3254 4.75 20.3269 4.75C20.3284 4.75 20.3299 4.75 20.3314 4.75C20.3329 4.75 20.3344 4.75 20.3358 4.75C20.3373 4.75 20.3388 4.75 20.3403 4.75C20.3418 4.75 20.3433 4.75 20.3448 4.75C20.3462 4.75 20.3477 4.75 20.3492 4.75C20.3507 4.75 20.3521 4.75 20.3536 4.75C20.3551 4.75 20.3565 4.75 20.358 4.75C20.3595 4.75 20.3609 4.75 20.3624 4.75C20.3639 4.75 20.3653 4.75 20.3668 4.75C20.3683 4.75 20.3697 4.75 20.3712 4.75C20.3726 4.75 20.3741 4.75 20.3755 4.75C20.377 4.75 20.3784 4.75 20.3799 4.75C20.3813 4.75 20.3828 4.75 20.3842 4.75C20.3857 4.75 20.3871 4.75 20.3885 4.75C20.39 4.75 20.3914 4.75 20.3928 4.75C20.3943 4.75 20.3957 4.75 20.3971 4.75C20.3986 4.75 20.4 4.75 20.4014 4.75C20.4029 4.75 20.4043 4.75 20.4057 4.75C20.4071 4.75 20.4085 4.75 20.41 4.75C20.4114 4.75 20.4128 4.75 20.4142 4.75C20.4156 4.75 20.417 4.75 20.4184 4.75C20.4199 4.75 20.4213 4.75 20.4227 4.75C20.4241 4.75 20.4255 4.75 20.4269 4.75C20.4283 4.75 20.4297 4.75 20.4311 4.75C20.4325 4.75 20.4339 4.75 20.4353 4.75C20.4367 4.75 20.438 4.75 20.4394 4.75C20.4408 4.75 20.4422 4.75 20.4436 4.75C20.445 4.75 20.4464 4.75 20.4477 4.75C20.4491 4.75 20.4505 4.75 20.4519 4.75C20.4532 4.75 20.4546 4.75 20.456 4.75C20.4574 4.75 20.4587 4.75 20.4601 4.75C20.4615 4.75 20.4628 4.75 20.4642 4.75C20.4655 4.75 20.4669 4.75 20.4683 4.75C20.4696 4.75 20.471 4.75 20.4723 4.75C20.4737 4.75 20.475 4.75 20.4764 4.75C20.4777 4.75 20.4791 4.75 20.4804 4.75C20.4818 4.75 20.4831 4.75 20.4845 4.75C20.4858 4.75 20.4871 4.75 20.4885 4.75C20.4898 4.75 20.4911 4.75 20.4925 4.75C20.4938 4.75 20.4951 4.75 20.4965 4.75C20.4978 4.75 20.4991 4.75 20.5004 4.75C20.5018 4.75 20.5031 4.75 20.5044 4.75C20.5057 4.75 20.507 4.75 20.5084 4.75C20.5097 4.75 20.511 4.75 20.5123 4.75C20.5136 4.75 20.5149 4.75 20.5162 4.75C20.5175 4.75 20.5188 4.75 20.5201 4.75C20.5214 4.75 20.5227 4.75 20.524 4.75C20.5253 4.75 20.5266 4.75 20.5279 4.75C20.5292 4.75 20.5305 4.75 20.5318 4.75C20.5331 4.75 20.5343 4.75 20.5356 4.75C20.5369 4.75 20.5382 4.75 20.5395 4.75C20.5407 4.75 20.542 4.75 20.5433 4.75C20.5446 4.75 20.5458 4.75 20.5471 4.75C20.5484 4.75 20.5496 4.75 20.5509 4.75C20.5522 4.75 20.5534 4.75 20.5547 4.75C20.556 4.75 20.5572 4.75 20.5585 4.75C20.5597 4.75 20.561 4.75 20.5622 4.75C20.5635 4.75 20.5647 4.75 20.566 4.75C20.5672 4.75 20.5685 4.75 20.5697 4.75C20.5709 4.75 20.5722 4.75 20.5734 4.75C20.5747 4.75 20.5759 4.75 20.5771 4.75C20.5784 4.75 20.5796 4.75 20.5808 4.75C20.582 4.75 20.5833 4.75 20.5845 4.75C20.5857 4.75 20.5869 4.75 20.5882 4.75C20.5894 4.75 20.5906 4.75 20.5918 4.75C20.593 4.75 20.5942 4.75 20.5954 4.75C20.5967 4.75 20.5979 4.75 20.5991 4.75C20.6003 4.75 20.6015 4.75 20.6027 4.75C20.6039 4.75 20.6051 4.75 20.6063 4.75C20.6075 4.75 20.6086 4.75 20.6098 4.75C20.611 4.75 20.6122 4.75 20.6134 4.75C20.6146 4.75 20.6158 4.75 20.617 4.75C20.6181 4.75 20.6193 4.75 20.6205 4.75C20.6217 4.75 20.6228 4.75 20.624 4.75C20.6252 4.75 20.6263 4.75 20.6275 4.75C20.6287 4.75 20.6298 4.75 20.631 4.75C20.6322 4.75 20.6333 4.75 20.6345 4.75C20.6356 4.75 20.6368 4.75 20.638 4.75C20.6391 4.75 20.6403 4.75 20.6414 4.75C20.6425 4.75 20.6437 4.75 20.6448 4.75C20.646 4.75 20.6471 4.75 20.6483 4.75C20.6494 4.75 20.6505 4.75 20.6517 4.75C20.6528 4.75 20.6539 4.75 20.6551 4.75C20.6562 4.75 20.6573 4.75 20.6584 4.75C20.6596 4.75 20.6607 4.75 20.6618 4.75C20.6629 4.75 20.664 4.75 20.6651 4.75C20.6663 4.75 20.6674 4.75 20.6685 4.75C20.6696 4.75 20.6707 4.75 20.6718 4.75C20.6729 4.75 20.674 4.75 20.6751 4.75C20.6762 4.75 20.6773 4.75 20.6784 4.75C20.6795 4.75 20.6806 4.75 20.6817 4.75C20.6827 4.75 20.6838 4.75 20.6849 4.75C20.686 4.75 20.6871 4.75 20.6882 4.75C20.6892 4.75 20.6903 4.75 20.6914 4.75C20.6925 4.75 20.6935 4.75 20.6946 4.75C20.6957 4.75 20.6967 4.75 20.6978 4.75C20.6989 4.75 20.6999 4.75 20.701 4.75C20.702 4.75 20.7031 4.75 20.7042 4.75C20.7052 4.75 20.7063 4.75 20.7073 4.75C20.7084 4.75 20.7094 4.75 20.7105 4.75C20.7115 4.75 20.7125 4.75 20.7136 4.75C20.7146 4.75 20.7157 4.75 20.7167 4.75C20.7177 4.75 20.7188 4.75 20.7198 4.75C20.7208 4.75 20.7218 4.75 20.7229 4.75C20.7239 4.75 20.7249 4.75 20.7259 4.75C20.7269 4.75 20.728 4.75 20.729 4.75C20.73 4.75 20.731 4.75 20.732 4.75C20.733 4.75 20.734 4.75 20.735 4.75C20.736 4.75 20.737 4.75 20.738 4.75C20.739 4.75 20.74 4.75 20.741 4.75C20.742 4.75 20.743 4.75 20.744 4.75C20.745 4.75 20.746 4.75 20.7469 4.75C20.7479 4.75 20.7489 4.75 20.7499 4.75C20.7509 4.75 20.7518 4.75 20.7528 4.75C20.7538 4.75 20.7547 4.75 20.7557 4.75C20.7567 4.75 20.7576 4.75 20.7586 4.75C20.7596 4.75 20.7605 4.75 20.7615 4.75C20.7624 4.75 20.7634 4.75 20.7644 4.75C20.7653 4.75 20.7663 4.75 20.7672 4.75C20.7681 4.75 20.7691 4.75 20.77 4.75C20.771 4.75 20.7719 4.75 20.7728 4.75C20.7738 4.75 20.7747 4.75 20.7756 4.75C20.7766 4.75 20.7775 4.75 20.7784 4.75C20.7794 4.75 20.7803 4.75 20.7812 4.75C20.7821 4.75 20.783 4.75 20.784 4.75C20.7849 4.75 20.7858 4.75 20.7867 4.75C20.7876 4.75 20.7885 4.75 20.7894 4.75C20.7903 4.75 20.7912 4.75 20.7921 4.75C20.793 4.75 20.7939 4.75 20.7948 4.75C20.7957 4.75 20.7966 4.75 20.7975 4.75C20.7984 4.75 20.7993 4.75 20.8001 4.75C20.801 4.75 20.8019 4.75 20.8028 4.75C20.8037 4.75 20.8045 4.75 20.8054 4.75C20.8063 4.75 20.8071 4.75 20.808 4.75C20.8089 4.75 20.8097 4.75 20.8106 4.75C20.8115 4.75 20.8123 4.75 20.8132 4.75C20.814 4.75 20.8149 4.75 20.8157 4.75C20.8166 4.75 20.8174 4.75 20.8183 4.75C20.8191 4.75 20.82 4.75 20.8208 4.75C20.8217 4.75 20.8225 4.75 20.8233 4.75C20.8242 4.75 20.825 4.75 20.8258 4.75C20.8266 4.75 20.8275 4.75 20.8283 4.75C20.8291 4.75 20.8299 4.75 20.8308 4.75C20.8316 4.75 20.8324 4.75 20.8332 4.75C20.834 4.75 20.8348 4.75 20.8356 4.75C20.8364 4.75 20.8372 4.75 20.8381 4.75C20.8389 4.75 20.8397 4.75 20.8404 4.75C20.8412 4.75 20.842 4.75 20.8428 4.75C20.8436 4.75 20.8444 4.75 20.8452 4.75C20.846 4.75 20.8468 4.75 20.8475 4.75C20.8483 4.75 20.8491 4.75 20.8499 4.75C20.8506 4.75 20.8514 4.75 20.8522 4.75C20.853 4.75 20.8537 4.75 20.8545 4.75C20.8552 4.75 20.856 4.75 20.8568 4.75C20.8575 4.75 20.8583 4.75 20.859 4.75C20.8598 4.75 20.8605 4.75 20.8613 4.75C20.862 4.75 20.8628 4.75 20.8635 4.75C20.8642 4.75 20.865 4.75 20.8657 4.75C20.8664 4.75 20.8672 4.75 20.8679 4.75C20.8686 4.75 20.8694 4.75 20.8701 4.75C20.8708 4.75 20.8715 4.75 20.8723 4.75C20.873 4.75 20.8737 4.75 20.8744 4.75C20.8751 4.75 20.8758 4.75 20.8765 4.75C20.8772 4.75 20.8779 4.75 20.8786 4.75C20.8793 4.75 20.88 4.75 20.8807 4.75C20.8814 4.75 20.8821 4.75 20.8828 4.75C20.8835 4.75 20.8842 4.75 20.8849 4.75C20.8856 4.75 20.8862 4.75 20.8869 4.75C20.8876 4.75 20.8883 4.75 20.8889 4.75C20.8896 4.75 20.8903 4.75 20.8909 4.75C20.8916 4.75 20.8923 4.75 20.8929 4.75C20.8936 4.75 20.8943 4.75 20.8949 4.75C20.8956 4.75 20.8962 4.75 20.8969 4.75C20.8975 4.75 20.8982 4.75 20.8988 4.75C20.8995 4.75 20.9001 4.75 20.9007 4.75C20.9014 4.75 20.902 4.75 20.9026 4.75C20.9033 4.75 20.9039 4.75 20.9045 4.75C20.9052 4.75 20.9058 4.75 20.9064 4.75C20.907 4.75 20.9076 4.75 20.9082 4.75C20.9089 4.75 20.9095 4.75 20.9101 4.75C20.9107 4.75 20.9113 4.75 20.9119 4.75C20.9125 4.75 20.9131 4.75 20.9137 4.75C20.9143 4.75 20.9149 4.75 20.9155 4.75C20.9161 4.75 20.9167 4.75 20.9172 4.75C20.9178 4.75 20.9184 4.75 20.919 4.75C20.9196 4.75 20.9201 4.75 20.9207 4.75C20.9213 4.75 20.9219 4.75 20.9224 4.75C20.923 4.75 20.9236 4.75 20.9241 4.75C20.9247 4.75 20.9252 4.75 20.9258 4.75C20.9264 4.75 20.9269 4.75 20.9275 4.75C20.928 4.75 20.9286 4.75 20.9291 4.75C20.9296 4.75 20.9302 4.75 20.9307 4.75C20.9313 4.75 20.9318 4.75 20.9323 4.75C20.9329 4.75 20.9334 4.75 20.9339 4.75C20.9344 4.75 20.935 4.75 20.9355 4.75C20.936 4.75 20.9365 4.75 20.937 4.75C20.9375 4.75 20.9381 4.75 20.9386 4.75C20.9391 4.75 20.9396 4.75 20.9401 4.75C20.9406 4.75 20.9411 4.75 20.9416 4.75C20.9421 4.75 20.9426 4.75 20.9431 4.75C20.9435 4.75 20.944 4.75 20.9445 4.75C20.945 4.75 20.9455 4.75 20.946 4.75C20.9464 4.75 20.9469 4.75 20.9474 4.75C20.9479 4.75 20.9483 4.75 20.9488 4.75C20.9492 4.75 20.9497 4.75 20.9502 4.75C20.9506 4.75 20.9511 4.75 20.9515 4.75C20.952 4.75 20.9524 4.75 20.9529 4.75C20.9533 4.75 20.9538 4.75 20.9542 4.75C20.9547 4.75 20.9551 4.75 20.9555 4.75C20.956 4.75 20.9564 4.75 20.9568 4.75C20.9573 4.75 20.9577 4.75 20.9581 4.75C20.9585 4.75 20.9589 4.75 20.9594 4.75C20.9598 4.75 20.9602 4.75 20.9606 4.75C20.961 4.75 20.9614 4.75 20.9618 4.75C20.9622 4.75 20.9626 4.75 20.963 4.75C20.9634 4.75 20.9638 4.75 20.9642 4.75C20.9646 4.75 20.965 4.75 20.9654 4.75C20.9658 4.75 20.9661 4.75 20.9665 4.75C20.9669 4.75 20.9673 4.75 20.9677 4.75C20.968 4.75 20.9684 4.75 20.9688 4.75C20.9691 4.75 20.9695 4.75 20.9699 4.75C20.9702 4.75 20.9706 4.75 20.9709 4.75C20.9713 4.75 20.9716 4.75 20.972 4.75C20.9723 4.75 20.9727 4.75 20.973 4.75C20.9733 4.75 20.9737 4.75 20.974 4.75C20.9744 4.75 20.9747 4.75 20.975 4.75C20.9753 4.75 20.9757 4.75 20.976 4.75C20.9763 4.75 20.9766 4.75 20.977 4.75C20.9773 4.75 20.9776 4.75 20.9779 4.75C20.9782 4.75 20.9785 4.75 20.9788 4.75C20.9791 4.75 20.9794 4.75 20.9797 4.75C20.98 4.75 20.9803 4.75 20.9806 4.75C20.9809 4.75 20.9812 4.75 20.9815 4.75C20.9817 4.75 20.982 4.75 20.9823 4.75C20.9826 4.75 20.9829 4.75 20.9831 4.75C20.9834 4.75 20.9837 4.75 20.9839 4.75C20.9842 4.75 20.9845 4.75 20.9847 4.75C20.985 4.75 20.9852 4.75 20.9855 4.75C20.9857 4.75 20.986 4.75 20.9862 4.75C20.9865 4.75 20.9867 4.75 20.987 4.75C20.9872 4.75 20.9874 4.75 20.9877 4.75C20.9879 4.75 20.9881 4.75 20.9884 4.75C20.9886 4.75 20.9888 4.75 20.989 4.75C20.9892 4.75 20.9895 4.75 20.9897 4.75C20.9899 4.75 20.9901 4.75 20.9903 4.75C20.9905 4.75 20.9907 4.75 20.9909 4.75C20.9911 4.75 20.9913 4.75 20.9915 4.75C20.9917 4.75 20.9919 4.75 20.9921 4.75C20.9923 4.75 20.9924 4.75 20.9926 4.75C20.9928 4.75 20.993 4.75 20.9932 4.75C20.9933 4.75 20.9935 4.75 20.9937 4.75C20.9938 4.75 20.994 4.75 20.9942 4.75C20.9943 4.75 20.9945 4.75 20.9946 4.75C20.9948 4.75 20.9949 4.75 20.9951 4.75C20.9952 4.75 20.9954 4.75 20.9955 4.75C20.9957 4.75 20.9958 4.75 20.9959 4.75C20.9961 4.75 20.9962 4.75 20.9963 4.75C20.9965 4.75 20.9966 4.75 20.9967 4.75C20.9968 4.75 20.9969 4.75 20.9971 4.75C20.9972 4.75 20.9973 4.75 20.9974 4.75C20.9975 4.75 20.9976 4.75 20.9977 4.75C20.9978 4.75 20.9979 4.75 20.998 4.75C20.9981 4.75 20.9982 4.75 20.9983 4.75C20.9984 4.75 20.9984 4.75 20.9985 4.75C20.9986 4.75 20.9987 4.75 20.9988 4.75C20.9988 4.75 20.9989 4.75 20.999 4.75C20.999 4.75 20.9991 4.75 20.9992 4.75C20.9992 4.75 20.9993 4.75 20.9993 4.75C20.9994 4.75 20.9995 4.75 20.9995 4.75C20.9995 4.75 20.9996 4.75 20.9996 4.75C20.9997 4.75 20.9997 4.75 20.9997 4.75C20.9998 4.75 20.9998 4.75 20.9998 4.75C20.9999 4.75 20.9999 4.75 20.9999 4.75C20.9999 4.75 20.9999 4.75 21 4.75C21 4.75 21 4.75 21 4.75C21 4.75 21 4.75 21 4C21 3.25 21 3.25 21 3.25C21 3.25 21 3.25 21 3.25C20.9999 3.25 20.9999 3.25 20.9999 3.25C20.9999 3.25 20.9999 3.25 20.9998 3.25C20.9998 3.25 20.9998 3.25 20.9997 3.25C20.9997 3.25 20.9997 3.25 20.9996 3.25C20.9996 3.25 20.9995 3.25 20.9995 3.25C20.9995 3.25 20.9994 3.25 20.9993 3.25C20.9993 3.25 20.9992 3.25 20.9992 3.25C20.9991 3.25 20.999 3.25 20.999 3.25C20.9989 3.25 20.9988 3.25 20.9988 3.25C20.9987 3.25 20.9986 3.25 20.9985 3.25C20.9984 3.25 20.9984 3.25 20.9983 3.25C20.9982 3.25 20.9981 3.25 20.998 3.25C20.9979 3.25 20.9978 3.25 20.9977 3.25C20.9976 3.25 20.9975 3.25 20.9974 3.25C20.9973 3.25 20.9972 3.25 20.9971 3.25C20.9969 3.25 20.9968 3.25 20.9967 3.25C20.9966 3.25 20.9965 3.25 20.9963 3.25C20.9962 3.25 20.9961 3.25 20.9959 3.25C20.9958 3.25 20.9957 3.25 20.9955 3.25C20.9954 3.25 20.9952 3.25 20.9951 3.25C20.9949 3.25 20.9948 3.25 20.9946 3.25C20.9945 3.25 20.9943 3.25 20.9942 3.25C20.994 3.25 20.9938 3.25 20.9937 3.25C20.9935 3.25 20.9933 3.25 20.9932 3.25C20.993 3.25 20.9928 3.25 20.9926 3.25C20.9924 3.25 20.9923 3.25 20.9921 3.25C20.9919 3.25 20.9917 3.25 20.9915 3.25C20.9913 3.25 20.9911 3.25 20.9909 3.25C20.9907 3.25 20.9905 3.25 20.9903 3.25C20.9901 3.25 20.9899 3.25 20.9897 3.25C20.9895 3.25 20.9892 3.25 20.989 3.25C20.9888 3.25 20.9886 3.25 20.9884 3.25C20.9881 3.25 20.9879 3.25 20.9877 3.25C20.9874 3.25 20.9872 3.25 20.987 3.25C20.9867 3.25 20.9865 3.25 20.9862 3.25C20.986 3.25 20.9857 3.25 20.9855 3.25C20.9852 3.25 20.985 3.25 20.9847 3.25C20.9845 3.25 20.9842 3.25 20.9839 3.25C20.9837 3.25 20.9834 3.25 20.9831 3.25C20.9829 3.25 20.9826 3.25 20.9823 3.25C20.982 3.25 20.9817 3.25 20.9815 3.25C20.9812 3.25 20.9809 3.25 20.9806 3.25C20.9803 3.25 20.98 3.25 20.9797 3.25C20.9794 3.25 20.9791 3.25 20.9788 3.25C20.9785 3.25 20.9782 3.25 20.9779 3.25C20.9776 3.25 20.9773 3.25 20.977 3.25C20.9766 3.25 20.9763 3.25 20.976 3.25C20.9757 3.25 20.9753 3.25 20.975 3.25C20.9747 3.25 20.9744 3.25 20.974 3.25C20.9737 3.25 20.9733 3.25 20.973 3.25C20.9727 3.25 20.9723 3.25 20.972 3.25C20.9716 3.25 20.9713 3.25 20.9709 3.25C20.9706 3.25 20.9702 3.25 20.9699 3.25C20.9695 3.25 20.9691 3.25 20.9688 3.25C20.9684 3.25 20.968 3.25 20.9677 3.25C20.9673 3.25 20.9669 3.25 20.9665 3.25C20.9661 3.25 20.9658 3.25 20.9654 3.25C20.965 3.25 20.9646 3.25 20.9642 3.25C20.9638 3.25 20.9634 3.25 20.963 3.25C20.9626 3.25 20.9622 3.25 20.9618 3.25C20.9614 3.25 20.961 3.25 20.9606 3.25C20.9602 3.25 20.9598 3.25 20.9594 3.25C20.9589 3.25 20.9585 3.25 20.9581 3.25C20.9577 3.25 20.9573 3.25 20.9568 3.25C20.9564 3.25 20.956 3.25 20.9555 3.25C20.9551 3.25 20.9547 3.25 20.9542 3.25C20.9538 3.25 20.9533 3.25 20.9529 3.25C20.9524 3.25 20.952 3.25 20.9515 3.25C20.9511 3.25 20.9506 3.25 20.9502 3.25C20.9497 3.25 20.9492 3.25 20.9488 3.25C20.9483 3.25 20.9479 3.25 20.9474 3.25C20.9469 3.25 20.9464 3.25 20.946 3.25C20.9455 3.25 20.945 3.25 20.9445 3.25C20.944 3.25 20.9435 3.25 20.9431 3.25C20.9426 3.25 20.9421 3.25 20.9416 3.25C20.9411 3.25 20.9406 3.25 20.9401 3.25C20.9396 3.25 20.9391 3.25 20.9386 3.25C20.9381 3.25 20.9375 3.25 20.937 3.25C20.9365 3.25 20.936 3.25 20.9355 3.25C20.935 3.25 20.9344 3.25 20.9339 3.25C20.9334 3.25 20.9329 3.25 20.9323 3.25C20.9318 3.25 20.9313 3.25 20.9307 3.25C20.9302 3.25 20.9296 3.25 20.9291 3.25C20.9286 3.25 20.928 3.25 20.9275 3.25C20.9269 3.25 20.9264 3.25 20.9258 3.25C20.9252 3.25 20.9247 3.25 20.9241 3.25C20.9236 3.25 20.923 3.25 20.9224 3.25C20.9219 3.25 20.9213 3.25 20.9207 3.25C20.9201 3.25 20.9196 3.25 20.919 3.25C20.9184 3.25 20.9178 3.25 20.9172 3.25C20.9167 3.25 20.9161 3.25 20.9155 3.25C20.9149 3.25 20.9143 3.25 20.9137 3.25C20.9131 3.25 20.9125 3.25 20.9119 3.25C20.9113 3.25 20.9107 3.25 20.9101 3.25C20.9095 3.25 20.9089 3.25 20.9082 3.25C20.9076 3.25 20.907 3.25 20.9064 3.25C20.9058 3.25 20.9052 3.25 20.9045 3.25C20.9039 3.25 20.9033 3.25 20.9026 3.25C20.902 3.25 20.9014 3.25 20.9007 3.25C20.9001 3.25 20.8995 3.25 20.8988 3.25C20.8982 3.25 20.8975 3.25 20.8969 3.25C20.8962 3.25 20.8956 3.25 20.8949 3.25C20.8943 3.25 20.8936 3.25 20.8929 3.25C20.8923 3.25 20.8916 3.25 20.8909 3.25C20.8903 3.25 20.8896 3.25 20.8889 3.25C20.8883 3.25 20.8876 3.25 20.8869 3.25C20.8862 3.25 20.8856 3.25 20.8849 3.25C20.8842 3.25 20.8835 3.25 20.8828 3.25C20.8821 3.25 20.8814 3.25 20.8807 3.25C20.88 3.25 20.8793 3.25 20.8786 3.25C20.8779 3.25 20.8772 3.25 20.8765 3.25C20.8758 3.25 20.8751 3.25 20.8744 3.25C20.8737 3.25 20.873 3.25 20.8723 3.25C20.8715 3.25 20.8708 3.25 20.8701 3.25C20.8694 3.25 20.8686 3.25 20.8679 3.25C20.8672 3.25 20.8664 3.25 20.8657 3.25C20.865 3.25 20.8642 3.25 20.8635 3.25C20.8628 3.25 20.862 3.25 20.8613 3.25C20.8605 3.25 20.8598 3.25 20.859 3.25C20.8583 3.25 20.8575 3.25 20.8568 3.25C20.856 3.25 20.8552 3.25 20.8545 3.25C20.8537 3.25 20.853 3.25 20.8522 3.25C20.8514 3.25 20.8506 3.25 20.8499 3.25C20.8491 3.25 20.8483 3.25 20.8475 3.25C20.8468 3.25 20.846 3.25 20.8452 3.25C20.8444 3.25 20.8436 3.25 20.8428 3.25C20.842 3.25 20.8412 3.25 20.8404 3.25C20.8397 3.25 20.8389 3.25 20.8381 3.25C20.8372 3.25 20.8364 3.25 20.8356 3.25C20.8348 3.25 20.834 3.25 20.8332 3.25C20.8324 3.25 20.8316 3.25 20.8308 3.25C20.8299 3.25 20.8291 3.25 20.8283 3.25C20.8275 3.25 20.8266 3.25 20.8258 3.25C20.825 3.25 20.8242 3.25 20.8233 3.25C20.8225 3.25 20.8217 3.25 20.8208 3.25C20.82 3.25 20.8191 3.25 20.8183 3.25C20.8174 3.25 20.8166 3.25 20.8157 3.25C20.8149 3.25 20.814 3.25 20.8132 3.25C20.8123 3.25 20.8115 3.25 20.8106 3.25C20.8097 3.25 20.8089 3.25 20.808 3.25C20.8071 3.25 20.8063 3.25 20.8054 3.25C20.8045 3.25 20.8037 3.25 20.8028 3.25C20.8019 3.25 20.801 3.25 20.8001 3.25C20.7993 3.25 20.7984 3.25 20.7975 3.25C20.7966 3.25 20.7957 3.25 20.7948 3.25C20.7939 3.25 20.793 3.25 20.7921 3.25C20.7912 3.25 20.7903 3.25 20.7894 3.25C20.7885 3.25 20.7876 3.25 20.7867 3.25C20.7858 3.25 20.7849 3.25 20.784 3.25C20.783 3.25 20.7821 3.25 20.7812 3.25C20.7803 3.25 20.7794 3.25 20.7784 3.25C20.7775 3.25 20.7766 3.25 20.7756 3.25C20.7747 3.25 20.7738 3.25 20.7728 3.25C20.7719 3.25 20.771 3.25 20.77 3.25C20.7691 3.25 20.7681 3.25 20.7672 3.25C20.7663 3.25 20.7653 3.25 20.7644 3.25C20.7634 3.25 20.7624 3.25 20.7615 3.25C20.7605 3.25 20.7596 3.25 20.7586 3.25C20.7576 3.25 20.7567 3.25 20.7557 3.25C20.7547 3.25 20.7538 3.25 20.7528 3.25C20.7518 3.25 20.7509 3.25 20.7499 3.25C20.7489 3.25 20.7479 3.25 20.7469 3.25C20.746 3.25 20.745 3.25 20.744 3.25C20.743 3.25 20.742 3.25 20.741 3.25C20.74 3.25 20.739 3.25 20.738 3.25C20.737 3.25 20.736 3.25 20.735 3.25C20.734 3.25 20.733 3.25 20.732 3.25C20.731 3.25 20.73 3.25 20.729 3.25C20.728 3.25 20.7269 3.25 20.7259 3.25C20.7249 3.25 20.7239 3.25 20.7229 3.25C20.7218 3.25 20.7208 3.25 20.7198 3.25C20.7188 3.25 20.7177 3.25 20.7167 3.25C20.7157 3.25 20.7146 3.25 20.7136 3.25C20.7125 3.25 20.7115 3.25 20.7105 3.25C20.7094 3.25 20.7084 3.25 20.7073 3.25C20.7063 3.25 20.7052 3.25 20.7042 3.25C20.7031 3.25 20.702 3.25 20.701 3.25C20.6999 3.25 20.6989 3.25 20.6978 3.25C20.6967 3.25 20.6957 3.25 20.6946 3.25C20.6935 3.25 20.6925 3.25 20.6914 3.25C20.6903 3.25 20.6892 3.25 20.6882 3.25C20.6871 3.25 20.686 3.25 20.6849 3.25C20.6838 3.25 20.6827 3.25 20.6817 3.25C20.6806 3.25 20.6795 3.25 20.6784 3.25C20.6773 3.25 20.6762 3.25 20.6751 3.25C20.674 3.25 20.6729 3.25 20.6718 3.25C20.6707 3.25 20.6696 3.25 20.6685 3.25C20.6674 3.25 20.6663 3.25 20.6651 3.25C20.664 3.25 20.6629 3.25 20.6618 3.25C20.6607 3.25 20.6596 3.25 20.6584 3.25C20.6573 3.25 20.6562 3.25 20.6551 3.25C20.6539 3.25 20.6528 3.25 20.6517 3.25C20.6505 3.25 20.6494 3.25 20.6483 3.25C20.6471 3.25 20.646 3.25 20.6448 3.25C20.6437 3.25 20.6425 3.25 20.6414 3.25C20.6403 3.25 20.6391 3.25 20.638 3.25C20.6368 3.25 20.6356 3.25 20.6345 3.25C20.6333 3.25 20.6322 3.25 20.631 3.25C20.6298 3.25 20.6287 3.25 20.6275 3.25C20.6263 3.25 20.6252 3.25 20.624 3.25C20.6228 3.25 20.6217 3.25 20.6205 3.25C20.6193 3.25 20.6181 3.25 20.617 3.25C20.6158 3.25 20.6146 3.25 20.6134 3.25C20.6122 3.25 20.611 3.25 20.6098 3.25C20.6086 3.25 20.6075 3.25 20.6063 3.25C20.6051 3.25 20.6039 3.25 20.6027 3.25C20.6015 3.25 20.6003 3.25 20.5991 3.25C20.5979 3.25 20.5967 3.25 20.5954 3.25C20.5942 3.25 20.593 3.25 20.5918 3.25C20.5906 3.25 20.5894 3.25 20.5882 3.25C20.5869 3.25 20.5857 3.25 20.5845 3.25C20.5833 3.25 20.582 3.25 20.5808 3.25C20.5796 3.25 20.5784 3.25 20.5771 3.25C20.5759 3.25 20.5747 3.25 20.5734 3.25C20.5722 3.25 20.5709 3.25 20.5697 3.25C20.5685 3.25 20.5672 3.25 20.566 3.25C20.5647 3.25 20.5635 3.25 20.5622 3.25C20.561 3.25 20.5597 3.25 20.5585 3.25C20.5572 3.25 20.556 3.25 20.5547 3.25C20.5534 3.25 20.5522 3.25 20.5509 3.25C20.5496 3.25 20.5484 3.25 20.5471 3.25C20.5458 3.25 20.5446 3.25 20.5433 3.25C20.542 3.25 20.5407 3.25 20.5395 3.25C20.5382 3.25 20.5369 3.25 20.5356 3.25C20.5343 3.25 20.5331 3.25 20.5318 3.25C20.5305 3.25 20.5292 3.25 20.5279 3.25C20.5266 3.25 20.5253 3.25 20.524 3.25C20.5227 3.25 20.5214 3.25 20.5201 3.25C20.5188 3.25 20.5175 3.25 20.5162 3.25C20.5149 3.25 20.5136 3.25 20.5123 3.25C20.511 3.25 20.5097 3.25 20.5084 3.25C20.507 3.25 20.5057 3.25 20.5044 3.25C20.5031 3.25 20.5018 3.25 20.5004 3.25C20.4991 3.25 20.4978 3.25 20.4965 3.25C20.4951 3.25 20.4938 3.25 20.4925 3.25C20.4911 3.25 20.4898 3.25 20.4885 3.25C20.4871 3.25 20.4858 3.25 20.4845 3.25C20.4831 3.25 20.4818 3.25 20.4804 3.25C20.4791 3.25 20.4777 3.25 20.4764 3.25C20.475 3.25 20.4737 3.25 20.4723 3.25C20.471 3.25 20.4696 3.25 20.4683 3.25C20.4669 3.25 20.4655 3.25 20.4642 3.25C20.4628 3.25 20.4615 3.25 20.4601 3.25C20.4587 3.25 20.4574 3.25 20.456 3.25C20.4546 3.25 20.4532 3.25 20.4519 3.25C20.4505 3.25 20.4491 3.25 20.4477 3.25C20.4464 3.25 20.445 3.25 20.4436 3.25C20.4422 3.25 20.4408 3.25 20.4394 3.25C20.438 3.25 20.4367 3.25 20.4353 3.25C20.4339 3.25 20.4325 3.25 20.4311 3.25C20.4297 3.25 20.4283 3.25 20.4269 3.25C20.4255 3.25 20.4241 3.25 20.4227 3.25C20.4213 3.25 20.4199 3.25 20.4184 3.25C20.417 3.25 20.4156 3.25 20.4142 3.25C20.4128 3.25 20.4114 3.25 20.41 3.25C20.4085 3.25 20.4071 3.25 20.4057 3.25C20.4043 3.25 20.4029 3.25 20.4014 3.25C20.4 3.25 20.3986 3.25 20.3971 3.25C20.3957 3.25 20.3943 3.25 20.3928 3.25C20.3914 3.25 20.39 3.25 20.3885 3.25C20.3871 3.25 20.3857 3.25 20.3842 3.25C20.3828 3.25 20.3813 3.25 20.3799 3.25C20.3784 3.25 20.377 3.25 20.3755 3.25C20.3741 3.25 20.3726 3.25 20.3712 3.25C20.3697 3.25 20.3683 3.25 20.3668 3.25C20.3653 3.25 20.3639 3.25 20.3624 3.25C20.3609 3.25 20.3595 3.25 20.358 3.25C20.3565 3.25 20.3551 3.25 20.3536 3.25C20.3521 3.25 20.3507 3.25 20.3492 3.25C20.3477 3.25 20.3462 3.25 20.3448 3.25C20.3433 3.25 20.3418 3.25 20.3403 3.25C20.3388 3.25 20.3373 3.25 20.3358 3.25C20.3344 3.25 20.3329 3.25 20.3314 3.25C20.3299 3.25 20.3284 3.25 20.3269 3.25C20.3254 3.25 20.3239 3.25 20.3224 3.25C20.3209 3.25 20.3194 3.25 20.3179 3.25C20.3164 3.25 20.3149 3.25 20.3134 3.25C20.3119 3.25 20.3104 3.25 20.3088 3.25C20.3073 3.25 20.3058 3.25 20.3043 3.25C20.3028 3.25 20.3013 3.25 20.2998 3.25C20.2982 3.25 20.2967 3.25 20.2952 3.25C20.2937 3.25 20.2921 3.25 20.2906 3.25C20.2891 3.25 20.2876 3.25 20.286 3.25C20.2845 3.25 20.283 3.25 20.2814 3.25C20.2799 3.25 20.2783 3.25 20.2768 3.25C20.2753 3.25 20.2737 3.25 20.2722 3.25C20.2706 3.25 20.2691 3.25 20.2675 3.25C20.266 3.25 20.2645 3.25 20.2629 3.25C20.2613 3.25 20.2598 3.25 20.2582 3.25C20.2567 3.25 20.2551 3.25 20.2536 3.25C20.252 3.25 20.2505 3.25 20.2489 3.25C20.2473 3.25 20.2458 3.25 20.2442 3.25C20.2426 3.25 20.2411 3.25 20.2395 3.25C20.2379 3.25 20.2363 3.25 20.2348 3.25C20.2332 3.25 20.2316 3.25 20.23 3.25C20.2285 3.25 20.2269 3.25 20.2253 3.25C20.2237 3.25 20.2221 3.25 20.2206 3.25C20.219 3.25 20.2174 3.25 20.2158 3.25C20.2142 3.25 20.2126 3.25 20.211 3.25C20.2094 3.25 20.2078 3.25 20.2062 3.25C20.2046 3.25 20.203 3.25 20.2014 3.25C20.1998 3.25 20.1982 3.25 20.1966 3.25C20.195 3.25 20.1934 3.25 20.1918 3.25C20.1902 3.25 20.1886 3.25 20.187 3.25C20.1854 3.25 20.1838 3.25 20.1821 3.25C20.1805 3.25 20.1789 3.25 20.1773 3.25C20.1757 3.25 20.174 3.25 20.1724 3.25C20.1708 3.25 20.1692 3.25 20.1676 3.25C20.1659 3.25 20.1643 3.25 20.1627 3.25C20.161 3.25 20.1594 3.25 20.1578 3.25C20.1561 3.25 20.1545 3.25 20.1529 3.25C20.1512 3.25 20.1496 3.25 20.1479 3.25C20.1463 3.25 20.1447 3.25 20.143 3.25C20.1414 3.25 20.1397 3.25 20.1381 3.25C20.1364 3.25 20.1348 3.25 20.1331 3.25C20.1315 3.25 20.1298 3.25 20.1282 3.25C20.1265 3.25 20.1249 3.25 20.1232 3.25C20.1215 3.25 20.1199 3.25 20.1182 3.25C20.1166 3.25 20.1149 3.25 20.1132 3.25C20.1116 3.25 20.1099 3.25 20.1082 3.25C20.1066 3.25 20.1049 3.25 20.1032 3.25C20.1015 3.25 20.0999 3.25 20.0982 3.25C20.0965 3.25 20.0948 3.25 20.0931 3.25C20.0915 3.25 20.0898 3.25 20.0881 3.25C20.0864 3.25 20.0847 3.25 20.083 3.25C20.0814 3.25 20.0797 3.25 20.078 3.25C20.0763 3.25 20.0746 3.25 20.0729 3.25C20.0712 3.25 20.0695 3.25 20.0678 3.25C20.0661 3.25 20.0644 3.25 20.0627 3.25C20.061 3.25 20.0593 3.25 20.0576 3.25C20.0559 3.25 20.0542 3.25 20.0525 3.25C20.0508 3.25 20.0491 3.25 20.0474 3.25C20.0456 3.25 20.0439 3.25 20.0422 3.25C20.0405 3.25 20.0388 3.25 20.0371 3.25C20.0354 3.25 20.0336 3.25 20.0319 3.25C20.0302 3.25 20.0285 3.25 20.0267 3.25C20.025 3.25 20.0233 3.25 20.0216 3.25C20.0198 3.25 20.0181 3.25 20.0164 3.25C20.0146 3.25 20.0129 3.25 20.0112 3.25C20.0094 3.25 20.0077 3.25 20.006 3.25C20.0042 3.25 20.0025 3.25 20.0007 3.25C19.999 3.25 19.9973 3.25 19.9955 3.25C19.9938 3.25 19.992 3.25 19.9903 3.25C19.9885 3.25 19.9868 3.25 19.985 3.25C19.9833 3.25 19.9815 3.25 19.9798 3.25C19.978 3.25 19.9762 3.25 19.9745 3.25C19.9727 3.25 19.971 3.25 19.9692 3.25C19.9675 3.25 19.9657 3.25 19.9639 3.25C19.9622 3.25 19.9604 3.25 19.9586 3.25C19.9569 3.25 19.9551 3.25 19.9533 3.25C19.9515 3.25 19.9498 3.25 19.948 3.25C19.9462 3.25 19.9444 3.25 19.9427 3.25C19.9409 3.25 19.9391 3.25 19.9373 3.25C19.9356 3.25 19.9338 3.25 19.932 3.25C19.9302 3.25 19.9284 3.25 19.9266 3.25C19.9248 3.25 19.9231 3.25 19.9213 3.25C19.9195 3.25 19.9177 3.25 19.9159 3.25C19.9141 3.25 19.9123 3.25 19.9105 3.25C19.9087 3.25 19.9069 3.25 19.9051 3.25C19.9033 3.25 19.9015 3.25 19.8997 3.25C19.8979 3.25 19.8961 3.25 19.8943 3.25C19.8925 3.25 19.8907 3.25 19.8889 3.25C19.8871 3.25 19.8852 3.25 19.8834 3.25C19.8816 3.25 19.8798 3.25 19.878 3.25C19.8762 3.25 19.8744 3.25 19.8725 3.25C19.8707 3.25 19.8689 3.25 19.8671 3.25C19.8653 3.25 19.8634 3.25 19.8616 3.25C19.8598 3.25 19.858 3.25 19.8561 3.25C19.8543 3.25 19.8525 3.25 19.8506 3.25C19.8488 3.25 19.847 3.25 19.8451 3.25C19.8433 3.25 19.8415 3.25 19.8396 3.25C19.8378 3.25 19.836 3.25 19.8341 3.25C19.8323 3.25 19.8304 3.25 19.8286 3.25C19.8268 3.25 19.8249 3.25 19.8231 3.25C19.8212 3.25 19.8194 3.25 19.8175 3.25C19.8157 3.25 19.8138 3.25 19.812 3.25C19.8101 3.25 19.8083 3.25 19.8064 3.25C19.8046 3.25 19.8027 3.25 19.8008 3.25C19.799 3.25 19.7971 3.25 19.7953 3.25C19.7934 3.25 19.7915 3.25 19.7897 3.25C19.7878 3.25 19.786 3.25 19.7841 3.25C19.7822 3.25 19.7804 3.25 19.7785 3.25C19.7766 3.25 19.7747 3.25 19.7729 3.25C19.771 3.25 19.7691 3.25 19.7673 3.25C19.7654 3.25 19.7635 3.25 19.7616 3.25C19.7597 3.25 19.7579 3.25 19.756 3.25C19.7541 3.25 19.7522 3.25 19.7503 3.25C19.7485 3.25 19.7466 3.25 19.7447 3.25C19.7428 3.25 19.7409 3.25 19.739 3.25C19.7371 3.25 19.7352 3.25 19.7333 3.25C19.7315 3.25 19.7296 3.25 19.7277 3.25C19.7258 3.25 19.7239 3.25 19.722 3.25C19.7201 3.25 19.7182 3.25 19.7163 3.25C19.7144 3.25 19.7125 3.25 19.7106 3.25C19.7087 3.25 19.7068 3.25 19.7049 3.25C19.7029 3.25 19.701 3.25 19.6991 3.25C19.6972 3.25 19.6953 3.25 19.6934 3.25C19.6915 3.25 19.6896 3.25 19.6877 3.25C19.6857 3.25 19.6838 3.25 19.6819 3.25C19.68 3.25 19.6781 3.25 19.6762 3.25C19.6742 3.25 19.6723 3.25 19.6704 3.25C19.6685 3.25 19.6665 3.25 19.6646 3.25C19.6627 3.25 19.6608 3.25 19.6588 3.25C19.6569 3.25 19.655 3.25 19.6531 3.25C19.6511 3.25 19.6492 3.25 19.6473 3.25C19.6453 3.25 19.6434 3.25 19.6415 3.25C19.6395 3.25 19.6376 3.25 19.6356 3.25C19.6337 3.25 19.6318 3.25 19.6298 3.25C19.6279 3.25 19.6259 3.25 19.624 3.25C19.622 3.25 19.6201 3.25 19.6182 3.25C19.6162 3.25 19.6143 3.25 19.6123 3.25C19.6104 3.25 19.6084 3.25 19.6065 3.25C19.6045 3.25 19.6026 3.25 19.6006 3.25C19.5986 3.25 19.5967 3.25 19.5947 3.25C19.5928 3.25 19.5908 3.25 19.5889 3.25C19.5869 3.25 19.5849 3.25 19.583 3.25C19.581 3.25 19.5791 3.25 19.5771 3.25C19.5751 3.25 19.5732 3.25 19.5712 3.25C19.5692 3.25 19.5673 3.25 19.5653 3.25C19.5633 3.25 19.5613 3.25 19.5594 3.25C19.5574 3.25 19.5554 3.25 19.5534 3.25C19.5515 3.25 19.5495 3.25 19.5475 3.25C19.5455 3.25 19.5436 3.25 19.5416 3.25C19.5396 3.25 19.5376 3.25 19.5356 3.25C19.5337 3.25 19.5317 3.25 19.5297 3.25C19.5277 3.25 19.5257 3.25 19.5237 3.25C19.5217 3.25 19.5198 3.25 19.5178 3.25C19.5158 3.25 19.5138 3.25 19.5118 3.25C19.5098 3.25 19.5078 3.25 19.5058 3.25C19.5038 3.25 19.5018 3.25 19.4998 3.25C19.4978 3.25 19.4958 3.25 19.4938 3.25C19.4918 3.25 19.4898 3.25 19.4878 3.25C19.4858 3.25 19.4838 3.25 19.4818 3.25C19.4798 3.25 19.4778 3.25 19.4758 3.25C19.4738 3.25 19.4718 3.25 19.4698 3.25C19.4678 3.25 19.4658 3.25 19.4638 3.25C19.4617 3.25 19.4597 3.25 19.4577 3.25C19.4557 3.25 19.4537 3.25 19.4517 3.25C19.4497 3.25 19.4476 3.25 19.4456 3.25C19.4436 3.25 19.4416 3.25 19.4396 3.25C19.4375 3.25 19.4355 3.25 19.4335 3.25C19.4315 3.25 19.4294 3.25 19.4274 3.25C19.4254 3.25 19.4234 3.25 19.4213 3.25C19.4193 3.25 19.4173 3.25 19.4153 3.25C19.4132 3.25 19.4112 3.25 19.4092 3.25C19.4071 3.25 19.4051 3.25 19.4031 3.25C19.401 3.25 19.399 3.25 19.397 3.25C19.3949 3.25 19.3929 3.25 19.3908 3.25C19.3888 3.25 19.3868 3.25 19.3847 3.25C19.3827 3.25 19.3806 3.25 19.3786 3.25C19.3766 3.25 19.3745 3.25 19.3725 3.25C19.3704 3.25 19.3684 3.25 19.3663 3.25C19.3643 3.25 19.3622 3.25 19.3602 3.25C19.3581 3.25 19.3561 3.25 19.354 3.25C19.352 3.25 19.3499 3.25 19.3479 3.25C19.3458 3.25 19.3438 3.25 19.3417 3.25C19.3396 3.25 19.3376 3.25 19.3355 3.25C19.3335 3.25 19.3314 3.25 19.3294 3.25C19.3273 3.25 19.3252 3.25 19.3232 3.25C19.3211 3.25 19.319 3.25 19.317 3.25C19.3149 3.25 19.3128 3.25 19.3108 3.25C19.3087 3.25 19.3066 3.25 19.3046 3.25C19.3025 3.25 19.3004 3.25 19.2984 3.25C19.2963 3.25 19.2942 3.25 19.2921 3.25C19.2901 3.25 19.288 3.25 19.2859 3.25C19.2839 3.25 19.2818 3.25 19.2797 3.25C19.2776 3.25 19.2755 3.25 19.2735 3.25C19.2714 3.25 19.2693 3.25 19.2672 3.25C19.2651 3.25 19.2631 3.25 19.261 3.25C19.2589 3.25 19.2568 3.25 19.2547 3.25C19.2526 3.25 19.2506 3.25 19.2485 3.25C19.2464 3.25 19.2443 3.25 19.2422 3.25C19.2401 3.25 19.238 3.25 19.2359 3.25C19.2338 3.25 19.2317 3.25 19.2297 3.25C19.2276 3.25 19.2255 3.25 19.2234 3.25C19.2213 3.25 19.2192 3.25 19.2171 3.25C19.215 3.25 19.2129 3.25 19.2108 3.25C19.2087 3.25 19.2066 3.25 19.2045 3.25C19.2024 3.25 19.2003 3.25 19.1982 3.25C19.1961 3.25 19.194 3.25 19.1919 3.25C19.1898 3.25 19.1877 3.25 19.1855 3.25C19.1834 3.25 19.1813 3.25 19.1792 3.25C19.1771 3.25 19.175 3.25 19.1729 3.25C19.1708 3.25 19.1687 3.25 19.1666 3.25C19.1644 3.25 19.1623 3.25 19.1602 3.25C19.1581 3.25 19.156 3.25 19.1539 3.25C19.1518 3.25 19.1496 3.25 19.1475 3.25C19.1454 3.25 19.1433 3.25 19.1412 3.25C19.139 3.25 19.1369 3.25 19.1348 3.25C19.1327 3.25 19.1306 3.25 19.1284 3.25C19.1263 3.25 19.1242 3.25 19.1221 3.25C19.1199 3.25 19.1178 3.25 19.1157 3.25C19.1136 3.25 19.1114 3.25 19.1093 3.25C19.1072 3.25 19.105 3.25 19.1029 3.25C19.1008 3.25 19.0987 3.25 19.0965 3.25C19.0944 3.25 19.0923 3.25 19.0901 3.25C19.088 3.25 19.0859 3.25 19.0837 3.25C19.0816 3.25 19.0794 3.25 19.0773 3.25C19.0752 3.25 19.073 3.25 19.0709 3.25C19.0688 3.25 19.0666 3.25 19.0645 3.25C19.0623 3.25 19.0602 3.25 19.058 3.25C19.0559 3.25 19.0538 3.25 19.0516 3.25C19.0495 3.25 19.0473 3.25 19.0452 3.25C19.043 3.25 19.0409 3.25 19.0387 3.25C19.0366 3.25 19.0344 3.25 19.0323 3.25C19.0301 3.25 19.028 3.25 19.0258 3.25C19.0237 3.25 19.0215 3.25 19.0194 3.25C19.0172 3.25 19.0151 3.25 19.0129 3.25C19.0108 3.25 19.0086 3.25 19.0065 3.25C19.0043 3.25 19.0022 3.25 19 3.25V4ZM21 4L20.25 4L20.25 20H21H21.75L21.75 4L21 4ZM21 20H20.25C20.25 20.0022 20.25 20.0043 20.25 20.0065C20.25 20.0086 20.25 20.0108 20.25 20.0129C20.25 20.0151 20.25 20.0172 20.25 20.0194C20.25 20.0215 20.25 20.0237 20.25 20.0259C20.25 20.028 20.25 20.0302 20.25 20.0323C20.25 20.0344 20.25 20.0366 20.25 20.0387C20.25 20.0409 20.25 20.043 20.25 20.0452C20.25 20.0473 20.25 20.0495 20.25 20.0516C20.25 20.0538 20.25 20.0559 20.25 20.0581C20.25 20.0602 20.25 20.0623 20.25 20.0645C20.25 20.0666 20.25 20.0688 20.25 20.0709C20.25 20.073 20.25 20.0752 20.25 20.0773C20.25 20.0794 20.25 20.0816 20.25 20.0837C20.25 20.0859 20.25 20.088 20.25 20.0901C20.25 20.0923 20.25 20.0944 20.25 20.0965C20.25 20.0987 20.25 20.1008 20.25 20.1029C20.25 20.1051 20.25 20.1072 20.25 20.1093C20.25 20.1114 20.25 20.1136 20.25 20.1157C20.25 20.1178 20.25 20.1199 20.25 20.1221C20.25 20.1242 20.25 20.1263 20.25 20.1284C20.25 20.1306 20.25 20.1327 20.25 20.1348C20.25 20.1369 20.25 20.1391 20.25 20.1412C20.25 20.1433 20.25 20.1454 20.25 20.1475C20.25 20.1496 20.25 20.1518 20.25 20.1539C20.25 20.156 20.25 20.1581 20.25 20.1602C20.25 20.1623 20.25 20.1645 20.25 20.1666C20.25 20.1687 20.25 20.1708 20.25 20.1729C20.25 20.175 20.25 20.1771 20.25 20.1792C20.25 20.1813 20.25 20.1834 20.25 20.1856C20.25 20.1877 20.25 20.1898 20.25 20.1919C20.25 20.194 20.25 20.1961 20.25 20.1982C20.25 20.2003 20.25 20.2024 20.25 20.2045C20.25 20.2066 20.25 20.2087 20.25 20.2108C20.25 20.2129 20.25 20.215 20.25 20.2171C20.25 20.2192 20.25 20.2213 20.25 20.2234C20.25 20.2255 20.25 20.2276 20.25 20.2297C20.25 20.2317 20.25 20.2338 20.25 20.2359C20.25 20.238 20.25 20.2401 20.25 20.2422C20.25 20.2443 20.25 20.2464 20.25 20.2485C20.25 20.2506 20.25 20.2526 20.25 20.2547C20.25 20.2568 20.25 20.2589 20.25 20.261C20.25 20.2631 20.25 20.2651 20.25 20.2672C20.25 20.2693 20.25 20.2714 20.25 20.2735C20.25 20.2755 20.25 20.2776 20.25 20.2797C20.25 20.2818 20.25 20.2839 20.25 20.2859C20.25 20.288 20.25 20.2901 20.25 20.2922C20.25 20.2942 20.25 20.2963 20.25 20.2984C20.25 20.3004 20.25 20.3025 20.25 20.3046C20.25 20.3067 20.25 20.3087 20.25 20.3108C20.25 20.3129 20.25 20.3149 20.25 20.317C20.25 20.319 20.25 20.3211 20.25 20.3232C20.25 20.3252 20.25 20.3273 20.25 20.3294C20.25 20.3314 20.25 20.3335 20.25 20.3355C20.25 20.3376 20.25 20.3397 20.25 20.3417C20.25 20.3438 20.25 20.3458 20.25 20.3479C20.25 20.3499 20.25 20.352 20.25 20.354C20.25 20.3561 20.25 20.3581 20.25 20.3602C20.25 20.3622 20.25 20.3643 20.25 20.3663C20.25 20.3684 20.25 20.3704 20.25 20.3725C20.25 20.3745 20.25 20.3766 20.25 20.3786C20.25 20.3806 20.25 20.3827 20.25 20.3847C20.25 20.3868 20.25 20.3888 20.25 20.3909C20.25 20.3929 20.25 20.3949 20.25 20.397C20.25 20.399 20.25 20.401 20.25 20.4031C20.25 20.4051 20.25 20.4071 20.25 20.4092C20.25 20.4112 20.25 20.4132 20.25 20.4153C20.25 20.4173 20.25 20.4193 20.25 20.4213C20.25 20.4234 20.25 20.4254 20.25 20.4274C20.25 20.4295 20.25 20.4315 20.25 20.4335C20.25 20.4355 20.25 20.4375 20.25 20.4396C20.25 20.4416 20.25 20.4436 20.25 20.4456C20.25 20.4476 20.25 20.4497 20.25 20.4517C20.25 20.4537 20.25 20.4557 20.25 20.4577C20.25 20.4597 20.25 20.4617 20.25 20.4638C20.25 20.4658 20.25 20.4678 20.25 20.4698C20.25 20.4718 20.25 20.4738 20.25 20.4758C20.25 20.4778 20.25 20.4798 20.25 20.4818C20.25 20.4838 20.25 20.4858 20.25 20.4878C20.25 20.4898 20.25 20.4918 20.25 20.4938C20.25 20.4958 20.25 20.4978 20.25 20.4998C20.25 20.5018 20.25 20.5038 20.25 20.5058C20.25 20.5078 20.25 20.5098 20.25 20.5118C20.25 20.5138 20.25 20.5158 20.25 20.5178C20.25 20.5198 20.25 20.5217 20.25 20.5237C20.25 20.5257 20.25 20.5277 20.25 20.5297C20.25 20.5317 20.25 20.5337 20.25 20.5356C20.25 20.5376 20.25 20.5396 20.25 20.5416C20.25 20.5436 20.25 20.5455 20.25 20.5475C20.25 20.5495 20.25 20.5515 20.25 20.5535C20.25 20.5554 20.25 20.5574 20.25 20.5594C20.25 20.5613 20.25 20.5633 20.25 20.5653C20.25 20.5673 20.25 20.5692 20.25 20.5712C20.25 20.5732 20.25 20.5751 20.25 20.5771C20.25 20.5791 20.25 20.581 20.25 20.583C20.25 20.5849 20.25 20.5869 20.25 20.5889C20.25 20.5908 20.25 20.5928 20.25 20.5947C20.25 20.5967 20.25 20.5987 20.25 20.6006C20.25 20.6026 20.25 20.6045 20.25 20.6065C20.25 20.6084 20.25 20.6104 20.25 20.6123C20.25 20.6143 20.25 20.6162 20.25 20.6182C20.25 20.6201 20.25 20.6221 20.25 20.624C20.25 20.6259 20.25 20.6279 20.25 20.6298C20.25 20.6318 20.25 20.6337 20.25 20.6356C20.25 20.6376 20.25 20.6395 20.25 20.6415C20.25 20.6434 20.25 20.6453 20.25 20.6473C20.25 20.6492 20.25 20.6511 20.25 20.6531C20.25 20.655 20.25 20.6569 20.25 20.6588C20.25 20.6608 20.25 20.6627 20.25 20.6646C20.25 20.6666 20.25 20.6685 20.25 20.6704C20.25 20.6723 20.25 20.6742 20.25 20.6762C20.25 20.6781 20.25 20.68 20.25 20.6819C20.25 20.6838 20.25 20.6858 20.25 20.6877C20.25 20.6896 20.25 20.6915 20.25 20.6934C20.25 20.6953 20.25 20.6972 20.25 20.6991C20.25 20.701 20.25 20.703 20.25 20.7049C20.25 20.7068 20.25 20.7087 20.25 20.7106C20.25 20.7125 20.25 20.7144 20.25 20.7163C20.25 20.7182 20.25 20.7201 20.25 20.722C20.25 20.7239 20.25 20.7258 20.25 20.7277C20.25 20.7296 20.25 20.7315 20.25 20.7334C20.25 20.7352 20.25 20.7371 20.25 20.739C20.25 20.7409 20.25 20.7428 20.25 20.7447C20.25 20.7466 20.25 20.7485 20.25 20.7503C20.25 20.7522 20.25 20.7541 20.25 20.756C20.25 20.7579 20.25 20.7597 20.25 20.7616C20.25 20.7635 20.25 20.7654 20.25 20.7673C20.25 20.7691 20.25 20.771 20.25 20.7729C20.25 20.7747 20.25 20.7766 20.25 20.7785C20.25 20.7804 20.25 20.7822 20.25 20.7841C20.25 20.786 20.25 20.7878 20.25 20.7897C20.25 20.7916 20.25 20.7934 20.25 20.7953C20.25 20.7971 20.25 20.799 20.25 20.8009C20.25 20.8027 20.25 20.8046 20.25 20.8064C20.25 20.8083 20.25 20.8101 20.25 20.812C20.25 20.8138 20.25 20.8157 20.25 20.8175C20.25 20.8194 20.25 20.8212 20.25 20.8231C20.25 20.8249 20.25 20.8268 20.25 20.8286C20.25 20.8305 20.25 20.8323 20.25 20.8341C20.25 20.836 20.25 20.8378 20.25 20.8396C20.25 20.8415 20.25 20.8433 20.25 20.8452C20.25 20.847 20.25 20.8488 20.25 20.8506C20.25 20.8525 20.25 20.8543 20.25 20.8561C20.25 20.858 20.25 20.8598 20.25 20.8616C20.25 20.8634 20.25 20.8653 20.25 20.8671C20.25 20.8689 20.25 20.8707 20.25 20.8725C20.25 20.8744 20.25 20.8762 20.25 20.878C20.25 20.8798 20.25 20.8816 20.25 20.8834C20.25 20.8852 20.25 20.8871 20.25 20.8889C20.25 20.8907 20.25 20.8925 20.25 20.8943C20.25 20.8961 20.25 20.8979 20.25 20.8997C20.25 20.9015 20.25 20.9033 20.25 20.9051C20.25 20.9069 20.25 20.9087 20.25 20.9105C20.25 20.9123 20.25 20.9141 20.25 20.9159C20.25 20.9177 20.25 20.9195 20.25 20.9213C20.25 20.9231 20.25 20.9248 20.25 20.9266C20.25 20.9284 20.25 20.9302 20.25 20.932C20.25 20.9338 20.25 20.9356 20.25 20.9373C20.25 20.9391 20.25 20.9409 20.25 20.9427C20.25 20.9445 20.25 20.9462 20.25 20.948C20.25 20.9498 20.25 20.9515 20.25 20.9533C20.25 20.9551 20.25 20.9569 20.25 20.9586C20.25 20.9604 20.25 20.9622 20.25 20.9639C20.25 20.9657 20.25 20.9675 20.25 20.9692C20.25 20.971 20.25 20.9727 20.25 20.9745C20.25 20.9763 20.25 20.978 20.25 20.9798C20.25 20.9815 20.25 20.9833 20.25 20.985C20.25 20.9868 20.25 20.9885 20.25 20.9903C20.25 20.992 20.25 20.9938 20.25 20.9955C20.25 20.9973 20.25 20.999 20.25 21.0007C20.25 21.0025 20.25 21.0042 20.25 21.006C20.25 21.0077 20.25 21.0094 20.25 21.0112C20.25 21.0129 20.25 21.0146 20.25 21.0164C20.25 21.0181 20.25 21.0198 20.25 21.0216C20.25 21.0233 20.25 21.025 20.25 21.0267C20.25 21.0285 20.25 21.0302 20.25 21.0319C20.25 21.0336 20.25 21.0354 20.25 21.0371C20.25 21.0388 20.25 21.0405 20.25 21.0422C20.25 21.0439 20.25 21.0457 20.25 21.0474C20.25 21.0491 20.25 21.0508 20.25 21.0525C20.25 21.0542 20.25 21.0559 20.25 21.0576C20.25 21.0593 20.25 21.061 20.25 21.0627C20.25 21.0644 20.25 21.0661 20.25 21.0678C20.25 21.0695 20.25 21.0712 20.25 21.0729C20.25 21.0746 20.25 21.0763 20.25 21.078C20.25 21.0797 20.25 21.0814 20.25 21.083C20.25 21.0847 20.25 21.0864 20.25 21.0881C20.25 21.0898 20.25 21.0915 20.25 21.0931C20.25 21.0948 20.25 21.0965 20.25 21.0982C20.25 21.0999 20.25 21.1015 20.25 21.1032C20.25 21.1049 20.25 21.1066 20.25 21.1082C20.25 21.1099 20.25 21.1116 20.25 21.1132C20.25 21.1149 20.25 21.1166 20.25 21.1182C20.25 21.1199 20.25 21.1215 20.25 21.1232C20.25 21.1249 20.25 21.1265 20.25 21.1282C20.25 21.1298 20.25 21.1315 20.25 21.1331C20.25 21.1348 20.25 21.1364 20.25 21.1381C20.25 21.1397 20.25 21.1414 20.25 21.143C20.25 21.1447 20.25 21.1463 20.25 21.148C20.25 21.1496 20.25 21.1512 20.25 21.1529C20.25 21.1545 20.25 21.1561 20.25 21.1578C20.25 21.1594 20.25 21.161 20.25 21.1627C20.25 21.1643 20.25 21.1659 20.25 21.1676C20.25 21.1692 20.25 21.1708 20.25 21.1724C20.25 21.1741 20.25 21.1757 20.25 21.1773C20.25 21.1789 20.25 21.1805 20.25 21.1821C20.25 21.1838 20.25 21.1854 20.25 21.187C20.25 21.1886 20.25 21.1902 20.25 21.1918C20.25 21.1934 20.25 21.195 20.25 21.1966C20.25 21.1982 20.25 21.1998 20.25 21.2014C20.25 21.203 20.25 21.2046 20.25 21.2062C20.25 21.2078 20.25 21.2094 20.25 21.211C20.25 21.2126 20.25 21.2142 20.25 21.2158C20.25 21.2174 20.25 21.219 20.25 21.2206C20.25 21.2221 20.25 21.2237 20.25 21.2253C20.25 21.2269 20.25 21.2285 20.25 21.23C20.25 21.2316 20.25 21.2332 20.25 21.2348C20.25 21.2363 20.25 21.2379 20.25 21.2395C20.25 21.2411 20.25 21.2426 20.25 21.2442C20.25 21.2458 20.25 21.2473 20.25 21.2489C20.25 21.2505 20.25 21.252 20.25 21.2536C20.25 21.2551 20.25 21.2567 20.25 21.2582C20.25 21.2598 20.25 21.2614 20.25 21.2629C20.25 21.2645 20.25 21.266 20.25 21.2675C20.25 21.2691 20.25 21.2706 20.25 21.2722C20.25 21.2737 20.25 21.2753 20.25 21.2768C20.25 21.2784 20.25 21.2799 20.25 21.2814C20.25 21.283 20.25 21.2845 20.25 21.286C20.25 21.2876 20.25 21.2891 20.25 21.2906C20.25 21.2921 20.25 21.2937 20.25 21.2952C20.25 21.2967 20.25 21.2982 20.25 21.2998C20.25 21.3013 20.25 21.3028 20.25 21.3043C20.25 21.3058 20.25 21.3073 20.25 21.3089C20.25 21.3104 20.25 21.3119 20.25 21.3134C20.25 21.3149 20.25 21.3164 20.25 21.3179C20.25 21.3194 20.25 21.3209 20.25 21.3224C20.25 21.3239 20.25 21.3254 20.25 21.3269C20.25 21.3284 20.25 21.3299 20.25 21.3314C20.25 21.3329 20.25 21.3344 20.25 21.3359C20.25 21.3373 20.25 21.3388 20.25 21.3403C20.25 21.3418 20.25 21.3433 20.25 21.3448C20.25 21.3462 20.25 21.3477 20.25 21.3492C20.25 21.3507 20.25 21.3521 20.25 21.3536C20.25 21.3551 20.25 21.3566 20.25 21.358C20.25 21.3595 20.25 21.361 20.25 21.3624C20.25 21.3639 20.25 21.3653 20.25 21.3668C20.25 21.3683 20.25 21.3697 20.25 21.3712C20.25 21.3726 20.25 21.3741 20.25 21.3755C20.25 21.377 20.25 21.3784 20.25 21.3799C20.25 21.3813 20.25 21.3828 20.25 21.3842C20.25 21.3857 20.25 21.3871 20.25 21.3885C20.25 21.39 20.25 21.3914 20.25 21.3928C20.25 21.3943 20.25 21.3957 20.25 21.3971C20.25 21.3986 20.25 21.4 20.25 21.4014C20.25 21.4029 20.25 21.4043 20.25 21.4057C20.25 21.4071 20.25 21.4085 20.25 21.41C20.25 21.4114 20.25 21.4128 20.25 21.4142C20.25 21.4156 20.25 21.417 20.25 21.4184C20.25 21.4199 20.25 21.4213 20.25 21.4227C20.25 21.4241 20.25 21.4255 20.25 21.4269C20.25 21.4283 20.25 21.4297 20.25 21.4311C20.25 21.4325 20.25 21.4339 20.25 21.4353C20.25 21.4367 20.25 21.438 20.25 21.4394C20.25 21.4408 20.25 21.4422 20.25 21.4436C20.25 21.445 20.25 21.4464 20.25 21.4477C20.25 21.4491 20.25 21.4505 20.25 21.4519C20.25 21.4532 20.25 21.4546 20.25 21.456C20.25 21.4574 20.25 21.4587 20.25 21.4601C20.25 21.4615 20.25 21.4628 20.25 21.4642C20.25 21.4656 20.25 21.4669 20.25 21.4683C20.25 21.4696 20.25 21.471 20.25 21.4723C20.25 21.4737 20.25 21.475 20.25 21.4764C20.25 21.4777 20.25 21.4791 20.25 21.4804C20.25 21.4818 20.25 21.4831 20.25 21.4845C20.25 21.4858 20.25 21.4871 20.25 21.4885C20.25 21.4898 20.25 21.4912 20.25 21.4925C20.25 21.4938 20.25 21.4951 20.25 21.4965C20.25 21.4978 20.25 21.4991 20.25 21.5004C20.25 21.5018 20.25 21.5031 20.25 21.5044C20.25 21.5057 20.25 21.507 20.25 21.5084C20.25 21.5097 20.25 21.511 20.25 21.5123C20.25 21.5136 20.25 21.5149 20.25 21.5162C20.25 21.5175 20.25 21.5188 20.25 21.5201C20.25 21.5214 20.25 21.5227 20.25 21.524C20.25 21.5253 20.25 21.5266 20.25 21.5279C20.25 21.5292 20.25 21.5305 20.25 21.5318C20.25 21.5331 20.25 21.5343 20.25 21.5356C20.25 21.5369 20.25 21.5382 20.25 21.5395C20.25 21.5407 20.25 21.542 20.25 21.5433C20.25 21.5446 20.25 21.5458 20.25 21.5471C20.25 21.5484 20.25 21.5496 20.25 21.5509C20.25 21.5522 20.25 21.5534 20.25 21.5547C20.25 21.556 20.25 21.5572 20.25 21.5585C20.25 21.5597 20.25 21.561 20.25 21.5622C20.25 21.5635 20.25 21.5647 20.25 21.566C20.25 21.5672 20.25 21.5685 20.25 21.5697C20.25 21.571 20.25 21.5722 20.25 21.5734C20.25 21.5747 20.25 21.5759 20.25 21.5771C20.25 21.5784 20.25 21.5796 20.25 21.5808C20.25 21.5821 20.25 21.5833 20.25 21.5845C20.25 21.5857 20.25 21.5869 20.25 21.5882C20.25 21.5894 20.25 21.5906 20.25 21.5918C20.25 21.593 20.25 21.5942 20.25 21.5954C20.25 21.5967 20.25 21.5979 20.25 21.5991C20.25 21.6003 20.25 21.6015 20.25 21.6027C20.25 21.6039 20.25 21.6051 20.25 21.6063C20.25 21.6075 20.25 21.6087 20.25 21.6098C20.25 21.611 20.25 21.6122 20.25 21.6134C20.25 21.6146 20.25 21.6158 20.25 21.617C20.25 21.6181 20.25 21.6193 20.25 21.6205C20.25 21.6217 20.25 21.6228 20.25 21.624C20.25 21.6252 20.25 21.6264 20.25 21.6275C20.25 21.6287 20.25 21.6298 20.25 21.631C20.25 21.6322 20.25 21.6333 20.25 21.6345C20.25 21.6356 20.25 21.6368 20.25 21.638C20.25 21.6391 20.25 21.6403 20.25 21.6414C20.25 21.6425 20.25 21.6437 20.25 21.6448C20.25 21.646 20.25 21.6471 20.25 21.6483C20.25 21.6494 20.25 21.6505 20.25 21.6517C20.25 21.6528 20.25 21.6539 20.25 21.6551C20.25 21.6562 20.25 21.6573 20.25 21.6584C20.25 21.6596 20.25 21.6607 20.25 21.6618C20.25 21.6629 20.25 21.664 20.25 21.6651C20.25 21.6663 20.25 21.6674 20.25 21.6685C20.25 21.6696 20.25 21.6707 20.25 21.6718C20.25 21.6729 20.25 21.674 20.25 21.6751C20.25 21.6762 20.25 21.6773 20.25 21.6784C20.25 21.6795 20.25 21.6806 20.25 21.6817C20.25 21.6827 20.25 21.6838 20.25 21.6849C20.25 21.686 20.25 21.6871 20.25 21.6882C20.25 21.6892 20.25 21.6903 20.25 21.6914C20.25 21.6925 20.25 21.6935 20.25 21.6946C20.25 21.6957 20.25 21.6967 20.25 21.6978C20.25 21.6989 20.25 21.6999 20.25 21.701C20.25 21.702 20.25 21.7031 20.25 21.7042C20.25 21.7052 20.25 21.7063 20.25 21.7073C20.25 21.7084 20.25 21.7094 20.25 21.7105C20.25 21.7115 20.25 21.7125 20.25 21.7136C20.25 21.7146 20.25 21.7157 20.25 21.7167C20.25 21.7177 20.25 21.7188 20.25 21.7198C20.25 21.7208 20.25 21.7218 20.25 21.7229C20.25 21.7239 20.25 21.7249 20.25 21.7259C20.25 21.7269 20.25 21.728 20.25 21.729C20.25 21.73 20.25 21.731 20.25 21.732C20.25 21.733 20.25 21.734 20.25 21.735C20.25 21.736 20.25 21.737 20.25 21.738C20.25 21.739 20.25 21.74 20.25 21.741C20.25 21.742 20.25 21.743 20.25 21.744C20.25 21.745 20.25 21.746 20.25 21.7469C20.25 21.7479 20.25 21.7489 20.25 21.7499C20.25 21.7509 20.25 21.7518 20.25 21.7528C20.25 21.7538 20.25 21.7547 20.25 21.7557C20.25 21.7567 20.25 21.7576 20.25 21.7586C20.25 21.7596 20.25 21.7605 20.25 21.7615C20.25 21.7624 20.25 21.7634 20.25 21.7644C20.25 21.7653 20.25 21.7663 20.25 21.7672C20.25 21.7681 20.25 21.7691 20.25 21.77C20.25 21.771 20.25 21.7719 20.25 21.7728C20.25 21.7738 20.25 21.7747 20.25 21.7756C20.25 21.7766 20.25 21.7775 20.25 21.7784C20.25 21.7794 20.25 21.7803 20.25 21.7812C20.25 21.7821 20.25 21.783 20.25 21.784C20.25 21.7849 20.25 21.7858 20.25 21.7867C20.25 21.7876 20.25 21.7885 20.25 21.7894C20.25 21.7903 20.25 21.7912 20.25 21.7921C20.25 21.793 20.25 21.7939 20.25 21.7948C20.25 21.7957 20.25 21.7966 20.25 21.7975C20.25 21.7984 20.25 21.7993 20.25 21.8001C20.25 21.801 20.25 21.8019 20.25 21.8028C20.25 21.8037 20.25 21.8045 20.25 21.8054C20.25 21.8063 20.25 21.8071 20.25 21.808C20.25 21.8089 20.25 21.8097 20.25 21.8106C20.25 21.8115 20.25 21.8123 20.25 21.8132C20.25 21.814 20.25 21.8149 20.25 21.8157C20.25 21.8166 20.25 21.8174 20.25 21.8183C20.25 21.8191 20.25 21.82 20.25 21.8208C20.25 21.8217 20.25 21.8225 20.25 21.8233C20.25 21.8242 20.25 21.825 20.25 21.8258C20.25 21.8267 20.25 21.8275 20.25 21.8283C20.25 21.8291 20.25 21.8299 20.25 21.8308C20.25 21.8316 20.25 21.8324 20.25 21.8332C20.25 21.834 20.25 21.8348 20.25 21.8356C20.25 21.8364 20.25 21.8373 20.25 21.8381C20.25 21.8389 20.25 21.8397 20.25 21.8405C20.25 21.8412 20.25 21.842 20.25 21.8428C20.25 21.8436 20.25 21.8444 20.25 21.8452C20.25 21.846 20.25 21.8468 20.25 21.8475C20.25 21.8483 20.25 21.8491 20.25 21.8499C20.25 21.8506 20.25 21.8514 20.25 21.8522C20.25 21.853 20.25 21.8537 20.25 21.8545C20.25 21.8552 20.25 21.856 20.25 21.8568C20.25 21.8575 20.25 21.8583 20.25 21.859C20.25 21.8598 20.25 21.8605 20.25 21.8613C20.25 21.862 20.25 21.8628 20.25 21.8635C20.25 21.8642 20.25 21.865 20.25 21.8657C20.25 21.8665 20.25 21.8672 20.25 21.8679C20.25 21.8686 20.25 21.8694 20.25 21.8701C20.25 21.8708 20.25 21.8715 20.25 21.8723C20.25 21.873 20.25 21.8737 20.25 21.8744C20.25 21.8751 20.25 21.8758 20.25 21.8765C20.25 21.8772 20.25 21.8779 20.25 21.8786C20.25 21.8793 20.25 21.88 20.25 21.8807C20.25 21.8814 20.25 21.8821 20.25 21.8828C20.25 21.8835 20.25 21.8842 20.25 21.8849C20.25 21.8856 20.25 21.8862 20.25 21.8869C20.25 21.8876 20.25 21.8883 20.25 21.8889C20.25 21.8896 20.25 21.8903 20.25 21.891C20.25 21.8916 20.25 21.8923 20.25 21.8929C20.25 21.8936 20.25 21.8943 20.25 21.8949C20.25 21.8956 20.25 21.8962 20.25 21.8969C20.25 21.8975 20.25 21.8982 20.25 21.8988C20.25 21.8995 20.25 21.9001 20.25 21.9007C20.25 21.9014 20.25 21.902 20.25 21.9026C20.25 21.9033 20.25 21.9039 20.25 21.9045C20.25 21.9052 20.25 21.9058 20.25 21.9064C20.25 21.907 20.25 21.9076 20.25 21.9082C20.25 21.9089 20.25 21.9095 20.25 21.9101C20.25 21.9107 20.25 21.9113 20.25 21.9119C20.25 21.9125 20.25 21.9131 20.25 21.9137C20.25 21.9143 20.25 21.9149 20.25 21.9155C20.25 21.9161 20.25 21.9167 20.25 21.9172C20.25 21.9178 20.25 21.9184 20.25 21.919C20.25 21.9196 20.25 21.9202 20.25 21.9207C20.25 21.9213 20.25 21.9219 20.25 21.9224C20.25 21.923 20.25 21.9236 20.25 21.9241C20.25 21.9247 20.25 21.9252 20.25 21.9258C20.25 21.9264 20.25 21.9269 20.25 21.9275C20.25 21.928 20.25 21.9286 20.25 21.9291C20.25 21.9296 20.25 21.9302 20.25 21.9307C20.25 21.9313 20.25 21.9318 20.25 21.9323C20.25 21.9329 20.25 21.9334 20.25 21.9339C20.25 21.9344 20.25 21.935 20.25 21.9355C20.25 21.936 20.25 21.9365 20.25 21.937C20.25 21.9375 20.25 21.9381 20.25 21.9386C20.25 21.9391 20.25 21.9396 20.25 21.9401C20.25 21.9406 20.25 21.9411 20.25 21.9416C20.25 21.9421 20.25 21.9426 20.25 21.9431C20.25 21.9435 20.25 21.944 20.25 21.9445C20.25 21.945 20.25 21.9455 20.25 21.946C20.25 21.9464 20.25 21.9469 20.25 21.9474C20.25 21.9479 20.25 21.9483 20.25 21.9488C20.25 21.9493 20.25 21.9497 20.25 21.9502C20.25 21.9506 20.25 21.9511 20.25 21.9515C20.25 21.952 20.25 21.9524 20.25 21.9529C20.25 21.9533 20.25 21.9538 20.25 21.9542C20.25 21.9547 20.25 21.9551 20.25 21.9555C20.25 21.956 20.25 21.9564 20.25 21.9568C20.25 21.9573 20.25 21.9577 20.25 21.9581C20.25 21.9585 20.25 21.959 20.25 21.9594C20.25 21.9598 20.25 21.9602 20.25 21.9606C20.25 21.961 20.25 21.9614 20.25 21.9618C20.25 21.9622 20.25 21.9626 20.25 21.963C20.25 21.9634 20.25 21.9638 20.25 21.9642C20.25 21.9646 20.25 21.965 20.25 21.9654C20.25 21.9658 20.25 21.9661 20.25 21.9665C20.25 21.9669 20.25 21.9673 20.25 21.9677C20.25 21.968 20.25 21.9684 20.25 21.9688C20.25 21.9691 20.25 21.9695 20.25 21.9699C20.25 21.9702 20.25 21.9706 20.25 21.9709C20.25 21.9713 20.25 21.9716 20.25 21.972C20.25 21.9723 20.25 21.9727 20.25 21.973C20.25 21.9734 20.25 21.9737 20.25 21.974C20.25 21.9744 20.25 21.9747 20.25 21.975C20.25 21.9753 20.25 21.9757 20.25 21.976C20.25 21.9763 20.25 21.9766 20.25 21.977C20.25 21.9773 20.25 21.9776 20.25 21.9779C20.25 21.9782 20.25 21.9785 20.25 21.9788C20.25 21.9791 20.25 21.9794 20.25 21.9797C20.25 21.98 20.25 21.9803 20.25 21.9806C20.25 21.9809 20.25 21.9812 20.25 21.9815C20.25 21.9817 20.25 21.982 20.25 21.9823C20.25 21.9826 20.25 21.9829 20.25 21.9831C20.25 21.9834 20.25 21.9837 20.25 21.9839C20.25 21.9842 20.25 21.9845 20.25 21.9847C20.25 21.985 20.25 21.9852 20.25 21.9855C20.25 21.9857 20.25 21.986 20.25 21.9862C20.25 21.9865 20.25 21.9867 20.25 21.987C20.25 21.9872 20.25 21.9874 20.25 21.9877C20.25 21.9879 20.25 21.9881 20.25 21.9884C20.25 21.9886 20.25 21.9888 20.25 21.989C20.25 21.9892 20.25 21.9895 20.25 21.9897C20.25 21.9899 20.25 21.9901 20.25 21.9903C20.25 21.9905 20.25 21.9907 20.25 21.9909C20.25 21.9911 20.25 21.9913 20.25 21.9915C20.25 21.9917 20.25 21.9919 20.25 21.9921C20.25 21.9923 20.25 21.9924 20.25 21.9926C20.25 21.9928 20.25 21.993 20.25 21.9932C20.25 21.9933 20.25 21.9935 20.25 21.9937C20.25 21.9938 20.25 21.994 20.25 21.9942C20.25 21.9943 20.25 21.9945 20.25 21.9946C20.25 21.9948 20.25 21.9949 20.25 21.9951C20.25 21.9952 20.25 21.9954 20.25 21.9955C20.25 21.9957 20.25 21.9958 20.25 21.9959C20.25 21.9961 20.25 21.9962 20.25 21.9963C20.25 21.9965 20.25 21.9966 20.25 21.9967C20.25 21.9968 20.25 21.9969 20.25 21.9971C20.25 21.9972 20.25 21.9973 20.25 21.9974C20.25 21.9975 20.25 21.9976 20.25 21.9977C20.25 21.9978 20.25 21.9979 20.25 21.998C20.25 21.9981 20.25 21.9982 20.25 21.9983C20.25 21.9984 20.25 21.9985 20.25 21.9985C20.25 21.9986 20.25 21.9987 20.25 21.9988C20.25 21.9988 20.25 21.9989 20.25 21.999C20.25 21.999 20.25 21.9991 20.25 21.9992C20.25 21.9992 20.25 21.9993 20.25 21.9993C20.25 21.9994 20.25 21.9995 20.25 21.9995C20.25 21.9995 20.25 21.9996 20.25 21.9996C20.25 21.9997 20.25 21.9997 20.25 21.9997C20.25 21.9998 20.25 21.9998 20.25 21.9998C20.25 21.9999 20.25 21.9999 20.25 21.9999C20.25 21.9999 20.25 21.9999 20.25 22C20.25 22 20.25 22 20.25 22C20.25 22 20.25 22 21 22C21.75 22 21.75 22 21.75 22C21.75 22 21.75 22 21.75 22C21.75 21.9999 21.75 21.9999 21.75 21.9999C21.75 21.9999 21.75 21.9999 21.75 21.9998C21.75 21.9998 21.75 21.9998 21.75 21.9997C21.75 21.9997 21.75 21.9997 21.75 21.9996C21.75 21.9996 21.75 21.9995 21.75 21.9995C21.75 21.9995 21.75 21.9994 21.75 21.9993C21.75 21.9993 21.75 21.9992 21.75 21.9992C21.75 21.9991 21.75 21.999 21.75 21.999C21.75 21.9989 21.75 21.9988 21.75 21.9988C21.75 21.9987 21.75 21.9986 21.75 21.9985C21.75 21.9985 21.75 21.9984 21.75 21.9983C21.75 21.9982 21.75 21.9981 21.75 21.998C21.75 21.9979 21.75 21.9978 21.75 21.9977C21.75 21.9976 21.75 21.9975 21.75 21.9974C21.75 21.9973 21.75 21.9972 21.75 21.9971C21.75 21.9969 21.75 21.9968 21.75 21.9967C21.75 21.9966 21.75 21.9965 21.75 21.9963C21.75 21.9962 21.75 21.9961 21.75 21.9959C21.75 21.9958 21.75 21.9957 21.75 21.9955C21.75 21.9954 21.75 21.9952 21.75 21.9951C21.75 21.9949 21.75 21.9948 21.75 21.9946C21.75 21.9945 21.75 21.9943 21.75 21.9942C21.75 21.994 21.75 21.9938 21.75 21.9937C21.75 21.9935 21.75 21.9933 21.75 21.9932C21.75 21.993 21.75 21.9928 21.75 21.9926C21.75 21.9924 21.75 21.9923 21.75 21.9921C21.75 21.9919 21.75 21.9917 21.75 21.9915C21.75 21.9913 21.75 21.9911 21.75 21.9909C21.75 21.9907 21.75 21.9905 21.75 21.9903C21.75 21.9901 21.75 21.9899 21.75 21.9897C21.75 21.9895 21.75 21.9892 21.75 21.989C21.75 21.9888 21.75 21.9886 21.75 21.9884C21.75 21.9881 21.75 21.9879 21.75 21.9877C21.75 21.9874 21.75 21.9872 21.75 21.987C21.75 21.9867 21.75 21.9865 21.75 21.9862C21.75 21.986 21.75 21.9857 21.75 21.9855C21.75 21.9852 21.75 21.985 21.75 21.9847C21.75 21.9845 21.75 21.9842 21.75 21.9839C21.75 21.9837 21.75 21.9834 21.75 21.9831C21.75 21.9829 21.75 21.9826 21.75 21.9823C21.75 21.982 21.75 21.9817 21.75 21.9815C21.75 21.9812 21.75 21.9809 21.75 21.9806C21.75 21.9803 21.75 21.98 21.75 21.9797C21.75 21.9794 21.75 21.9791 21.75 21.9788C21.75 21.9785 21.75 21.9782 21.75 21.9779C21.75 21.9776 21.75 21.9773 21.75 21.977C21.75 21.9766 21.75 21.9763 21.75 21.976C21.75 21.9757 21.75 21.9753 21.75 21.975C21.75 21.9747 21.75 21.9744 21.75 21.974C21.75 21.9737 21.75 21.9734 21.75 21.973C21.75 21.9727 21.75 21.9723 21.75 21.972C21.75 21.9716 21.75 21.9713 21.75 21.9709C21.75 21.9706 21.75 21.9702 21.75 21.9699C21.75 21.9695 21.75 21.9691 21.75 21.9688C21.75 21.9684 21.75 21.968 21.75 21.9677C21.75 21.9673 21.75 21.9669 21.75 21.9665C21.75 21.9661 21.75 21.9658 21.75 21.9654C21.75 21.965 21.75 21.9646 21.75 21.9642C21.75 21.9638 21.75 21.9634 21.75 21.963C21.75 21.9626 21.75 21.9622 21.75 21.9618C21.75 21.9614 21.75 21.961 21.75 21.9606C21.75 21.9602 21.75 21.9598 21.75 21.9594C21.75 21.959 21.75 21.9585 21.75 21.9581C21.75 21.9577 21.75 21.9573 21.75 21.9568C21.75 21.9564 21.75 21.956 21.75 21.9555C21.75 21.9551 21.75 21.9547 21.75 21.9542C21.75 21.9538 21.75 21.9533 21.75 21.9529C21.75 21.9524 21.75 21.952 21.75 21.9515C21.75 21.9511 21.75 21.9506 21.75 21.9502C21.75 21.9497 21.75 21.9493 21.75 21.9488C21.75 21.9483 21.75 21.9479 21.75 21.9474C21.75 21.9469 21.75 21.9464 21.75 21.946C21.75 21.9455 21.75 21.945 21.75 21.9445C21.75 21.944 21.75 21.9435 21.75 21.9431C21.75 21.9426 21.75 21.9421 21.75 21.9416C21.75 21.9411 21.75 21.9406 21.75 21.9401C21.75 21.9396 21.75 21.9391 21.75 21.9386C21.75 21.9381 21.75 21.9375 21.75 21.937C21.75 21.9365 21.75 21.936 21.75 21.9355C21.75 21.935 21.75 21.9344 21.75 21.9339C21.75 21.9334 21.75 21.9329 21.75 21.9323C21.75 21.9318 21.75 21.9313 21.75 21.9307C21.75 21.9302 21.75 21.9296 21.75 21.9291C21.75 21.9286 21.75 21.928 21.75 21.9275C21.75 21.9269 21.75 21.9264 21.75 21.9258C21.75 21.9252 21.75 21.9247 21.75 21.9241C21.75 21.9236 21.75 21.923 21.75 21.9224C21.75 21.9219 21.75 21.9213 21.75 21.9207C21.75 21.9202 21.75 21.9196 21.75 21.919C21.75 21.9184 21.75 21.9178 21.75 21.9172C21.75 21.9167 21.75 21.9161 21.75 21.9155C21.75 21.9149 21.75 21.9143 21.75 21.9137C21.75 21.9131 21.75 21.9125 21.75 21.9119C21.75 21.9113 21.75 21.9107 21.75 21.9101C21.75 21.9095 21.75 21.9089 21.75 21.9082C21.75 21.9076 21.75 21.907 21.75 21.9064C21.75 21.9058 21.75 21.9052 21.75 21.9045C21.75 21.9039 21.75 21.9033 21.75 21.9026C21.75 21.902 21.75 21.9014 21.75 21.9007C21.75 21.9001 21.75 21.8995 21.75 21.8988C21.75 21.8982 21.75 21.8975 21.75 21.8969C21.75 21.8962 21.75 21.8956 21.75 21.8949C21.75 21.8943 21.75 21.8936 21.75 21.8929C21.75 21.8923 21.75 21.8916 21.75 21.891C21.75 21.8903 21.75 21.8896 21.75 21.8889C21.75 21.8883 21.75 21.8876 21.75 21.8869C21.75 21.8862 21.75 21.8856 21.75 21.8849C21.75 21.8842 21.75 21.8835 21.75 21.8828C21.75 21.8821 21.75 21.8814 21.75 21.8807C21.75 21.88 21.75 21.8793 21.75 21.8786C21.75 21.8779 21.75 21.8772 21.75 21.8765C21.75 21.8758 21.75 21.8751 21.75 21.8744C21.75 21.8737 21.75 21.873 21.75 21.8723C21.75 21.8715 21.75 21.8708 21.75 21.8701C21.75 21.8694 21.75 21.8686 21.75 21.8679C21.75 21.8672 21.75 21.8665 21.75 21.8657C21.75 21.865 21.75 21.8642 21.75 21.8635C21.75 21.8628 21.75 21.862 21.75 21.8613C21.75 21.8605 21.75 21.8598 21.75 21.859C21.75 21.8583 21.75 21.8575 21.75 21.8568C21.75 21.856 21.75 21.8552 21.75 21.8545C21.75 21.8537 21.75 21.853 21.75 21.8522C21.75 21.8514 21.75 21.8506 21.75 21.8499C21.75 21.8491 21.75 21.8483 21.75 21.8475C21.75 21.8468 21.75 21.846 21.75 21.8452C21.75 21.8444 21.75 21.8436 21.75 21.8428C21.75 21.842 21.75 21.8412 21.75 21.8405C21.75 21.8397 21.75 21.8389 21.75 21.8381C21.75 21.8373 21.75 21.8364 21.75 21.8356C21.75 21.8348 21.75 21.834 21.75 21.8332C21.75 21.8324 21.75 21.8316 21.75 21.8308C21.75 21.8299 21.75 21.8291 21.75 21.8283C21.75 21.8275 21.75 21.8267 21.75 21.8258C21.75 21.825 21.75 21.8242 21.75 21.8233C21.75 21.8225 21.75 21.8217 21.75 21.8208C21.75 21.82 21.75 21.8191 21.75 21.8183C21.75 21.8174 21.75 21.8166 21.75 21.8157C21.75 21.8149 21.75 21.814 21.75 21.8132C21.75 21.8123 21.75 21.8115 21.75 21.8106C21.75 21.8097 21.75 21.8089 21.75 21.808C21.75 21.8071 21.75 21.8063 21.75 21.8054C21.75 21.8045 21.75 21.8037 21.75 21.8028C21.75 21.8019 21.75 21.801 21.75 21.8001C21.75 21.7993 21.75 21.7984 21.75 21.7975C21.75 21.7966 21.75 21.7957 21.75 21.7948C21.75 21.7939 21.75 21.793 21.75 21.7921C21.75 21.7912 21.75 21.7903 21.75 21.7894C21.75 21.7885 21.75 21.7876 21.75 21.7867C21.75 21.7858 21.75 21.7849 21.75 21.784C21.75 21.783 21.75 21.7821 21.75 21.7812C21.75 21.7803 21.75 21.7794 21.75 21.7784C21.75 21.7775 21.75 21.7766 21.75 21.7756C21.75 21.7747 21.75 21.7738 21.75 21.7728C21.75 21.7719 21.75 21.771 21.75 21.77C21.75 21.7691 21.75 21.7681 21.75 21.7672C21.75 21.7663 21.75 21.7653 21.75 21.7644C21.75 21.7634 21.75 21.7624 21.75 21.7615C21.75 21.7605 21.75 21.7596 21.75 21.7586C21.75 21.7576 21.75 21.7567 21.75 21.7557C21.75 21.7547 21.75 21.7538 21.75 21.7528C21.75 21.7518 21.75 21.7509 21.75 21.7499C21.75 21.7489 21.75 21.7479 21.75 21.7469C21.75 21.746 21.75 21.745 21.75 21.744C21.75 21.743 21.75 21.742 21.75 21.741C21.75 21.74 21.75 21.739 21.75 21.738C21.75 21.737 21.75 21.736 21.75 21.735C21.75 21.734 21.75 21.733 21.75 21.732C21.75 21.731 21.75 21.73 21.75 21.729C21.75 21.728 21.75 21.7269 21.75 21.7259C21.75 21.7249 21.75 21.7239 21.75 21.7229C21.75 21.7218 21.75 21.7208 21.75 21.7198C21.75 21.7188 21.75 21.7177 21.75 21.7167C21.75 21.7157 21.75 21.7146 21.75 21.7136C21.75 21.7125 21.75 21.7115 21.75 21.7105C21.75 21.7094 21.75 21.7084 21.75 21.7073C21.75 21.7063 21.75 21.7052 21.75 21.7042C21.75 21.7031 21.75 21.702 21.75 21.701C21.75 21.6999 21.75 21.6989 21.75 21.6978C21.75 21.6967 21.75 21.6957 21.75 21.6946C21.75 21.6935 21.75 21.6925 21.75 21.6914C21.75 21.6903 21.75 21.6892 21.75 21.6882C21.75 21.6871 21.75 21.686 21.75 21.6849C21.75 21.6838 21.75 21.6827 21.75 21.6817C21.75 21.6806 21.75 21.6795 21.75 21.6784C21.75 21.6773 21.75 21.6762 21.75 21.6751C21.75 21.674 21.75 21.6729 21.75 21.6718C21.75 21.6707 21.75 21.6696 21.75 21.6685C21.75 21.6674 21.75 21.6663 21.75 21.6651C21.75 21.664 21.75 21.6629 21.75 21.6618C21.75 21.6607 21.75 21.6596 21.75 21.6584C21.75 21.6573 21.75 21.6562 21.75 21.6551C21.75 21.6539 21.75 21.6528 21.75 21.6517C21.75 21.6505 21.75 21.6494 21.75 21.6483C21.75 21.6471 21.75 21.646 21.75 21.6448C21.75 21.6437 21.75 21.6425 21.75 21.6414C21.75 21.6403 21.75 21.6391 21.75 21.638C21.75 21.6368 21.75 21.6356 21.75 21.6345C21.75 21.6333 21.75 21.6322 21.75 21.631C21.75 21.6298 21.75 21.6287 21.75 21.6275C21.75 21.6264 21.75 21.6252 21.75 21.624C21.75 21.6228 21.75 21.6217 21.75 21.6205C21.75 21.6193 21.75 21.6181 21.75 21.617C21.75 21.6158 21.75 21.6146 21.75 21.6134C21.75 21.6122 21.75 21.611 21.75 21.6098C21.75 21.6087 21.75 21.6075 21.75 21.6063C21.75 21.6051 21.75 21.6039 21.75 21.6027C21.75 21.6015 21.75 21.6003 21.75 21.5991C21.75 21.5979 21.75 21.5967 21.75 21.5954C21.75 21.5942 21.75 21.593 21.75 21.5918C21.75 21.5906 21.75 21.5894 21.75 21.5882C21.75 21.5869 21.75 21.5857 21.75 21.5845C21.75 21.5833 21.75 21.5821 21.75 21.5808C21.75 21.5796 21.75 21.5784 21.75 21.5771C21.75 21.5759 21.75 21.5747 21.75 21.5734C21.75 21.5722 21.75 21.571 21.75 21.5697C21.75 21.5685 21.75 21.5672 21.75 21.566C21.75 21.5647 21.75 21.5635 21.75 21.5622C21.75 21.561 21.75 21.5597 21.75 21.5585C21.75 21.5572 21.75 21.556 21.75 21.5547C21.75 21.5534 21.75 21.5522 21.75 21.5509C21.75 21.5496 21.75 21.5484 21.75 21.5471C21.75 21.5458 21.75 21.5446 21.75 21.5433C21.75 21.542 21.75 21.5407 21.75 21.5395C21.75 21.5382 21.75 21.5369 21.75 21.5356C21.75 21.5343 21.75 21.5331 21.75 21.5318C21.75 21.5305 21.75 21.5292 21.75 21.5279C21.75 21.5266 21.75 21.5253 21.75 21.524C21.75 21.5227 21.75 21.5214 21.75 21.5201C21.75 21.5188 21.75 21.5175 21.75 21.5162C21.75 21.5149 21.75 21.5136 21.75 21.5123C21.75 21.511 21.75 21.5097 21.75 21.5084C21.75 21.507 21.75 21.5057 21.75 21.5044C21.75 21.5031 21.75 21.5018 21.75 21.5004C21.75 21.4991 21.75 21.4978 21.75 21.4965C21.75 21.4951 21.75 21.4938 21.75 21.4925C21.75 21.4912 21.75 21.4898 21.75 21.4885C21.75 21.4871 21.75 21.4858 21.75 21.4845C21.75 21.4831 21.75 21.4818 21.75 21.4804C21.75 21.4791 21.75 21.4777 21.75 21.4764C21.75 21.475 21.75 21.4737 21.75 21.4723C21.75 21.471 21.75 21.4696 21.75 21.4683C21.75 21.4669 21.75 21.4656 21.75 21.4642C21.75 21.4628 21.75 21.4615 21.75 21.4601C21.75 21.4587 21.75 21.4574 21.75 21.456C21.75 21.4546 21.75 21.4532 21.75 21.4519C21.75 21.4505 21.75 21.4491 21.75 21.4477C21.75 21.4464 21.75 21.445 21.75 21.4436C21.75 21.4422 21.75 21.4408 21.75 21.4394C21.75 21.438 21.75 21.4367 21.75 21.4353C21.75 21.4339 21.75 21.4325 21.75 21.4311C21.75 21.4297 21.75 21.4283 21.75 21.4269C21.75 21.4255 21.75 21.4241 21.75 21.4227C21.75 21.4213 21.75 21.4199 21.75 21.4184C21.75 21.417 21.75 21.4156 21.75 21.4142C21.75 21.4128 21.75 21.4114 21.75 21.41C21.75 21.4085 21.75 21.4071 21.75 21.4057C21.75 21.4043 21.75 21.4029 21.75 21.4014C21.75 21.4 21.75 21.3986 21.75 21.3971C21.75 21.3957 21.75 21.3943 21.75 21.3928C21.75 21.3914 21.75 21.39 21.75 21.3885C21.75 21.3871 21.75 21.3857 21.75 21.3842C21.75 21.3828 21.75 21.3813 21.75 21.3799C21.75 21.3784 21.75 21.377 21.75 21.3755C21.75 21.3741 21.75 21.3726 21.75 21.3712C21.75 21.3697 21.75 21.3683 21.75 21.3668C21.75 21.3653 21.75 21.3639 21.75 21.3624C21.75 21.361 21.75 21.3595 21.75 21.358C21.75 21.3566 21.75 21.3551 21.75 21.3536C21.75 21.3521 21.75 21.3507 21.75 21.3492C21.75 21.3477 21.75 21.3462 21.75 21.3448C21.75 21.3433 21.75 21.3418 21.75 21.3403C21.75 21.3388 21.75 21.3373 21.75 21.3359C21.75 21.3344 21.75 21.3329 21.75 21.3314C21.75 21.3299 21.75 21.3284 21.75 21.3269C21.75 21.3254 21.75 21.3239 21.75 21.3224C21.75 21.3209 21.75 21.3194 21.75 21.3179C21.75 21.3164 21.75 21.3149 21.75 21.3134C21.75 21.3119 21.75 21.3104 21.75 21.3089C21.75 21.3073 21.75 21.3058 21.75 21.3043C21.75 21.3028 21.75 21.3013 21.75 21.2998C21.75 21.2982 21.75 21.2967 21.75 21.2952C21.75 21.2937 21.75 21.2921 21.75 21.2906C21.75 21.2891 21.75 21.2876 21.75 21.286C21.75 21.2845 21.75 21.283 21.75 21.2814C21.75 21.2799 21.75 21.2784 21.75 21.2768C21.75 21.2753 21.75 21.2737 21.75 21.2722C21.75 21.2706 21.75 21.2691 21.75 21.2675C21.75 21.266 21.75 21.2645 21.75 21.2629C21.75 21.2614 21.75 21.2598 21.75 21.2582C21.75 21.2567 21.75 21.2551 21.75 21.2536C21.75 21.252 21.75 21.2505 21.75 21.2489C21.75 21.2473 21.75 21.2458 21.75 21.2442C21.75 21.2426 21.75 21.2411 21.75 21.2395C21.75 21.2379 21.75 21.2363 21.75 21.2348C21.75 21.2332 21.75 21.2316 21.75 21.23C21.75 21.2285 21.75 21.2269 21.75 21.2253C21.75 21.2237 21.75 21.2221 21.75 21.2206C21.75 21.219 21.75 21.2174 21.75 21.2158C21.75 21.2142 21.75 21.2126 21.75 21.211C21.75 21.2094 21.75 21.2078 21.75 21.2062C21.75 21.2046 21.75 21.203 21.75 21.2014C21.75 21.1998 21.75 21.1982 21.75 21.1966C21.75 21.195 21.75 21.1934 21.75 21.1918C21.75 21.1902 21.75 21.1886 21.75 21.187C21.75 21.1854 21.75 21.1838 21.75 21.1821C21.75 21.1805 21.75 21.1789 21.75 21.1773C21.75 21.1757 21.75 21.1741 21.75 21.1724C21.75 21.1708 21.75 21.1692 21.75 21.1676C21.75 21.1659 21.75 21.1643 21.75 21.1627C21.75 21.161 21.75 21.1594 21.75 21.1578C21.75 21.1561 21.75 21.1545 21.75 21.1529C21.75 21.1512 21.75 21.1496 21.75 21.148C21.75 21.1463 21.75 21.1447 21.75 21.143C21.75 21.1414 21.75 21.1397 21.75 21.1381C21.75 21.1364 21.75 21.1348 21.75 21.1331C21.75 21.1315 21.75 21.1298 21.75 21.1282C21.75 21.1265 21.75 21.1249 21.75 21.1232C21.75 21.1215 21.75 21.1199 21.75 21.1182C21.75 21.1166 21.75 21.1149 21.75 21.1132C21.75 21.1116 21.75 21.1099 21.75 21.1082C21.75 21.1066 21.75 21.1049 21.75 21.1032C21.75 21.1015 21.75 21.0999 21.75 21.0982C21.75 21.0965 21.75 21.0948 21.75 21.0931C21.75 21.0915 21.75 21.0898 21.75 21.0881C21.75 21.0864 21.75 21.0847 21.75 21.083C21.75 21.0814 21.75 21.0797 21.75 21.078C21.75 21.0763 21.75 21.0746 21.75 21.0729C21.75 21.0712 21.75 21.0695 21.75 21.0678C21.75 21.0661 21.75 21.0644 21.75 21.0627C21.75 21.061 21.75 21.0593 21.75 21.0576C21.75 21.0559 21.75 21.0542 21.75 21.0525C21.75 21.0508 21.75 21.0491 21.75 21.0474C21.75 21.0457 21.75 21.0439 21.75 21.0422C21.75 21.0405 21.75 21.0388 21.75 21.0371C21.75 21.0354 21.75 21.0336 21.75 21.0319C21.75 21.0302 21.75 21.0285 21.75 21.0267C21.75 21.025 21.75 21.0233 21.75 21.0216C21.75 21.0198 21.75 21.0181 21.75 21.0164C21.75 21.0146 21.75 21.0129 21.75 21.0112C21.75 21.0094 21.75 21.0077 21.75 21.006C21.75 21.0042 21.75 21.0025 21.75 21.0007C21.75 20.999 21.75 20.9973 21.75 20.9955C21.75 20.9938 21.75 20.992 21.75 20.9903C21.75 20.9885 21.75 20.9868 21.75 20.985C21.75 20.9833 21.75 20.9815 21.75 20.9798C21.75 20.978 21.75 20.9763 21.75 20.9745C21.75 20.9727 21.75 20.971 21.75 20.9692C21.75 20.9675 21.75 20.9657 21.75 20.9639C21.75 20.9622 21.75 20.9604 21.75 20.9586C21.75 20.9569 21.75 20.9551 21.75 20.9533C21.75 20.9515 21.75 20.9498 21.75 20.948C21.75 20.9462 21.75 20.9445 21.75 20.9427C21.75 20.9409 21.75 20.9391 21.75 20.9373C21.75 20.9356 21.75 20.9338 21.75 20.932C21.75 20.9302 21.75 20.9284 21.75 20.9266C21.75 20.9248 21.75 20.9231 21.75 20.9213C21.75 20.9195 21.75 20.9177 21.75 20.9159C21.75 20.9141 21.75 20.9123 21.75 20.9105C21.75 20.9087 21.75 20.9069 21.75 20.9051C21.75 20.9033 21.75 20.9015 21.75 20.8997C21.75 20.8979 21.75 20.8961 21.75 20.8943C21.75 20.8925 21.75 20.8907 21.75 20.8889C21.75 20.8871 21.75 20.8852 21.75 20.8834C21.75 20.8816 21.75 20.8798 21.75 20.878C21.75 20.8762 21.75 20.8744 21.75 20.8725C21.75 20.8707 21.75 20.8689 21.75 20.8671C21.75 20.8653 21.75 20.8634 21.75 20.8616C21.75 20.8598 21.75 20.858 21.75 20.8561C21.75 20.8543 21.75 20.8525 21.75 20.8506C21.75 20.8488 21.75 20.847 21.75 20.8452C21.75 20.8433 21.75 20.8415 21.75 20.8396C21.75 20.8378 21.75 20.836 21.75 20.8341C21.75 20.8323 21.75 20.8305 21.75 20.8286C21.75 20.8268 21.75 20.8249 21.75 20.8231C21.75 20.8212 21.75 20.8194 21.75 20.8175C21.75 20.8157 21.75 20.8138 21.75 20.812C21.75 20.8101 21.75 20.8083 21.75 20.8064C21.75 20.8046 21.75 20.8027 21.75 20.8009C21.75 20.799 21.75 20.7971 21.75 20.7953C21.75 20.7934 21.75 20.7916 21.75 20.7897C21.75 20.7878 21.75 20.786 21.75 20.7841C21.75 20.7822 21.75 20.7804 21.75 20.7785C21.75 20.7766 21.75 20.7747 21.75 20.7729C21.75 20.771 21.75 20.7691 21.75 20.7673C21.75 20.7654 21.75 20.7635 21.75 20.7616C21.75 20.7597 21.75 20.7579 21.75 20.756C21.75 20.7541 21.75 20.7522 21.75 20.7503C21.75 20.7485 21.75 20.7466 21.75 20.7447C21.75 20.7428 21.75 20.7409 21.75 20.739C21.75 20.7371 21.75 20.7352 21.75 20.7334C21.75 20.7315 21.75 20.7296 21.75 20.7277C21.75 20.7258 21.75 20.7239 21.75 20.722C21.75 20.7201 21.75 20.7182 21.75 20.7163C21.75 20.7144 21.75 20.7125 21.75 20.7106C21.75 20.7087 21.75 20.7068 21.75 20.7049C21.75 20.703 21.75 20.701 21.75 20.6991C21.75 20.6972 21.75 20.6953 21.75 20.6934C21.75 20.6915 21.75 20.6896 21.75 20.6877C21.75 20.6858 21.75 20.6838 21.75 20.6819C21.75 20.68 21.75 20.6781 21.75 20.6762C21.75 20.6742 21.75 20.6723 21.75 20.6704C21.75 20.6685 21.75 20.6666 21.75 20.6646C21.75 20.6627 21.75 20.6608 21.75 20.6588C21.75 20.6569 21.75 20.655 21.75 20.6531C21.75 20.6511 21.75 20.6492 21.75 20.6473C21.75 20.6453 21.75 20.6434 21.75 20.6415C21.75 20.6395 21.75 20.6376 21.75 20.6356C21.75 20.6337 21.75 20.6318 21.75 20.6298C21.75 20.6279 21.75 20.6259 21.75 20.624C21.75 20.6221 21.75 20.6201 21.75 20.6182C21.75 20.6162 21.75 20.6143 21.75 20.6123C21.75 20.6104 21.75 20.6084 21.75 20.6065C21.75 20.6045 21.75 20.6026 21.75 20.6006C21.75 20.5987 21.75 20.5967 21.75 20.5947C21.75 20.5928 21.75 20.5908 21.75 20.5889C21.75 20.5869 21.75 20.5849 21.75 20.583C21.75 20.581 21.75 20.5791 21.75 20.5771C21.75 20.5751 21.75 20.5732 21.75 20.5712C21.75 20.5692 21.75 20.5673 21.75 20.5653C21.75 20.5633 21.75 20.5613 21.75 20.5594C21.75 20.5574 21.75 20.5554 21.75 20.5535C21.75 20.5515 21.75 20.5495 21.75 20.5475C21.75 20.5455 21.75 20.5436 21.75 20.5416C21.75 20.5396 21.75 20.5376 21.75 20.5356C21.75 20.5337 21.75 20.5317 21.75 20.5297C21.75 20.5277 21.75 20.5257 21.75 20.5237C21.75 20.5217 21.75 20.5198 21.75 20.5178C21.75 20.5158 21.75 20.5138 21.75 20.5118C21.75 20.5098 21.75 20.5078 21.75 20.5058C21.75 20.5038 21.75 20.5018 21.75 20.4998C21.75 20.4978 21.75 20.4958 21.75 20.4938C21.75 20.4918 21.75 20.4898 21.75 20.4878C21.75 20.4858 21.75 20.4838 21.75 20.4818C21.75 20.4798 21.75 20.4778 21.75 20.4758C21.75 20.4738 21.75 20.4718 21.75 20.4698C21.75 20.4678 21.75 20.4658 21.75 20.4638C21.75 20.4617 21.75 20.4597 21.75 20.4577C21.75 20.4557 21.75 20.4537 21.75 20.4517C21.75 20.4497 21.75 20.4476 21.75 20.4456C21.75 20.4436 21.75 20.4416 21.75 20.4396C21.75 20.4375 21.75 20.4355 21.75 20.4335C21.75 20.4315 21.75 20.4295 21.75 20.4274C21.75 20.4254 21.75 20.4234 21.75 20.4213C21.75 20.4193 21.75 20.4173 21.75 20.4153C21.75 20.4132 21.75 20.4112 21.75 20.4092C21.75 20.4071 21.75 20.4051 21.75 20.4031C21.75 20.401 21.75 20.399 21.75 20.397C21.75 20.3949 21.75 20.3929 21.75 20.3909C21.75 20.3888 21.75 20.3868 21.75 20.3847C21.75 20.3827 21.75 20.3806 21.75 20.3786C21.75 20.3766 21.75 20.3745 21.75 20.3725C21.75 20.3704 21.75 20.3684 21.75 20.3663C21.75 20.3643 21.75 20.3622 21.75 20.3602C21.75 20.3581 21.75 20.3561 21.75 20.354C21.75 20.352 21.75 20.3499 21.75 20.3479C21.75 20.3458 21.75 20.3438 21.75 20.3417C21.75 20.3397 21.75 20.3376 21.75 20.3355C21.75 20.3335 21.75 20.3314 21.75 20.3294C21.75 20.3273 21.75 20.3252 21.75 20.3232C21.75 20.3211 21.75 20.319 21.75 20.317C21.75 20.3149 21.75 20.3129 21.75 20.3108C21.75 20.3087 21.75 20.3067 21.75 20.3046C21.75 20.3025 21.75 20.3004 21.75 20.2984C21.75 20.2963 21.75 20.2942 21.75 20.2922C21.75 20.2901 21.75 20.288 21.75 20.2859C21.75 20.2839 21.75 20.2818 21.75 20.2797C21.75 20.2776 21.75 20.2755 21.75 20.2735C21.75 20.2714 21.75 20.2693 21.75 20.2672C21.75 20.2651 21.75 20.2631 21.75 20.261C21.75 20.2589 21.75 20.2568 21.75 20.2547C21.75 20.2526 21.75 20.2506 21.75 20.2485C21.75 20.2464 21.75 20.2443 21.75 20.2422C21.75 20.2401 21.75 20.238 21.75 20.2359C21.75 20.2338 21.75 20.2317 21.75 20.2297C21.75 20.2276 21.75 20.2255 21.75 20.2234C21.75 20.2213 21.75 20.2192 21.75 20.2171C21.75 20.215 21.75 20.2129 21.75 20.2108C21.75 20.2087 21.75 20.2066 21.75 20.2045C21.75 20.2024 21.75 20.2003 21.75 20.1982C21.75 20.1961 21.75 20.194 21.75 20.1919C21.75 20.1898 21.75 20.1877 21.75 20.1856C21.75 20.1834 21.75 20.1813 21.75 20.1792C21.75 20.1771 21.75 20.175 21.75 20.1729C21.75 20.1708 21.75 20.1687 21.75 20.1666C21.75 20.1645 21.75 20.1623 21.75 20.1602C21.75 20.1581 21.75 20.156 21.75 20.1539C21.75 20.1518 21.75 20.1496 21.75 20.1475C21.75 20.1454 21.75 20.1433 21.75 20.1412C21.75 20.1391 21.75 20.1369 21.75 20.1348C21.75 20.1327 21.75 20.1306 21.75 20.1284C21.75 20.1263 21.75 20.1242 21.75 20.1221C21.75 20.1199 21.75 20.1178 21.75 20.1157C21.75 20.1136 21.75 20.1114 21.75 20.1093C21.75 20.1072 21.75 20.1051 21.75 20.1029C21.75 20.1008 21.75 20.0987 21.75 20.0965C21.75 20.0944 21.75 20.0923 21.75 20.0901C21.75 20.088 21.75 20.0859 21.75 20.0837C21.75 20.0816 21.75 20.0794 21.75 20.0773C21.75 20.0752 21.75 20.073 21.75 20.0709C21.75 20.0688 21.75 20.0666 21.75 20.0645C21.75 20.0623 21.75 20.0602 21.75 20.0581C21.75 20.0559 21.75 20.0538 21.75 20.0516C21.75 20.0495 21.75 20.0473 21.75 20.0452C21.75 20.043 21.75 20.0409 21.75 20.0387C21.75 20.0366 21.75 20.0344 21.75 20.0323C21.75 20.0302 21.75 20.028 21.75 20.0259C21.75 20.0237 21.75 20.0215 21.75 20.0194C21.75 20.0172 21.75 20.0151 21.75 20.0129C21.75 20.0108 21.75 20.0086 21.75 20.0065C21.75 20.0043 21.75 20.0022 21.75 20H21ZM21 22V21.25H3.00019V22V22.75H21V22ZM3.00019 22C3.75019 21.9998 3.75019 21.9998 3.75019 21.9998C3.75019 21.9998 3.75019 21.9998 3.75019 21.9998C3.75019 21.9998 3.75019 21.9997 3.75019 21.9997C3.75019 21.9996 3.75019 21.9994 3.75019 21.9992C3.75019 21.9988 3.75019 21.9981 3.75019 21.9972C3.75019 21.9955 3.75019 21.9929 3.75019 21.9895C3.75019 21.9827 3.75018 21.9725 3.75018 21.9592C3.75018 21.9326 3.75017 21.8933 3.75016 21.8427C3.75014 21.7415 3.75012 21.5951 3.75009 21.4141C3.75005 21.0522 3.75 20.5522 3.75 20H3H2.25C2.25 20.5523 2.25005 21.0524 2.25009 21.4143C2.25012 21.5953 2.25014 21.7417 2.25016 21.843C2.25017 21.8936 2.25018 21.9329 2.25018 21.9595C2.25018 21.9728 2.25019 21.983 2.25019 21.9898C2.25019 21.9932 2.25019 21.9958 2.25019 21.9976C2.25019 21.9984 2.25019 21.9991 2.25019 21.9995C2.25019 21.9997 2.25019 21.9999 2.25019 22C2.25019 22 2.25019 22.0001 2.25019 22.0001C2.25019 22.0001 2.25019 22.0001 2.25019 22.0001C2.25019 22.0002 2.25019 22.0002 3.00019 22ZM3 20H3.75V6H3H2.25V20H3ZM3 6H3.75C3.75 5.44774 3.75003 4.94776 3.75005 4.58584C3.75007 4.40488 3.75008 4.25844 3.75009 4.15724C3.75009 4.10664 3.7501 4.06735 3.7501 4.04071C3.7501 4.02739 3.7501 4.01724 3.7501 4.01041C3.7501 4.007 3.7501 4.00442 3.7501 4.00269C3.75011 4.00183 3.75011 4.00117 3.75011 4.00074C3.75011 4.00052 3.75011 4.00036 3.75011 4.00025C3.75011 4.0002 3.75011 4.00016 3.75011 4.00013C3.75011 4.00012 3.75011 4.00011 3.75011 4.0001C3.75011 4.00009 3.75011 4.00009 3.00011 4C2.25011 3.99991 2.25011 3.99992 2.25011 3.99992C2.25011 3.99993 2.25011 3.99994 2.25011 3.99995C2.25011 3.99998 2.25011 4.00002 2.25011 4.00008C2.25011 4.00019 2.25011 4.00035 2.25011 4.00057C2.25011 4.001 2.25011 4.00165 2.25011 4.00252C2.2501 4.00424 2.2501 4.00683 2.2501 4.01024C2.2501 4.01707 2.2501 4.02723 2.2501 4.04055C2.2501 4.0672 2.25009 4.10649 2.25009 4.1571C2.25008 4.25831 2.25007 4.40476 2.25005 4.58573C2.25003 4.94767 2.25 5.44769 2.25 6H3ZM3 10V10.75H21V10V9.25H3V10Z" fill="#5F3420"/><path d="M16.5 17.8643V18.5H15.9199V17.8643H16.5ZM12.29 17.8643V18.5H11.71V17.8643H12.29ZM8.08008 17.8643V18.5H7.5V17.8643H8.08008ZM16.5 13.5V14.1357H15.9199V13.5H16.5ZM12.29 13.5V14.1357H11.71V13.5H12.29ZM8.08008 13.5V14.1357H7.5V13.5H8.08008Z" stroke="#5F3420"/></svg>
