<svg viewBox="0 0 16 26" fill="none" xmlns="http://www.w3.org/2000/svg"><path d="M15.7581 13.9637C15.3855 13.2227 14.3342 12.5986 12.937 13.6517C11.034 15.1339 8 15.1339 8 15.1339C8 15.1339 4.96595 15.1339 3.06302 13.6517C1.66576 12.5986 0.614487 13.2227 0.241885 13.9637C-0.423476 15.2639 0.321728 15.901 2.01175 16.9541C3.46223 17.8642 5.44501 18.2023 6.72251 18.3323L5.65793 19.3724C4.1409 20.8416 2.67711 22.2588 1.67907 23.2469C1.08024 23.845 1.08024 24.7941 1.67907 25.3532L1.86537 25.5612C2.46419 26.1463 3.44893 26.1463 4.04775 25.5612L8 21.6867C9.53033 23.1559 10.9808 24.5731 11.9922 25.5612C12.591 26.1463 13.5624 26.1463 14.1746 25.5612L14.3475 25.3532C14.9597 24.7941 14.9597 23.845 14.3475 23.2469L10.382 19.3724L9.33072 18.3193C10.5949 18.2023 12.5511 17.8512 13.9883 16.9541C15.6783 15.901 16.4235 15.2639 15.7581 13.9637ZM8 3.34142C9.8364 3.34142 11.3268 4.7976 11.3268 6.57882C11.3268 8.37305 9.8364 9.81623 8 9.81623C6.1636 9.81623 4.67319 8.37305 4.67319 6.57882C4.67319 4.7976 6.1636 3.34142 8 3.34142ZM8 13.1576C11.726 13.1576 14.7335 10.2193 14.7335 6.57882C14.7335 4.83401 14.024 3.16066 12.7613 1.92689C11.4985 0.693124 9.78582 0 8 0C6.21418 0 4.50149 0.693124 3.23873 1.92689C1.97596 3.16066 1.26654 4.83401 1.26654 6.57882C1.26654 10.2193 4.27398 13.1576 8 13.1576Z" fill="white"/></svg>
