<svg viewBox="0 0 24 24" fill="none" xmlns="http://www.w3.org/2000/svg"><path d="M5.18182 10.6488L9.81818 11.7471M5.18182 12.8453L9.81818 13.9436M5.18182 15.0419L9.81818 16.1401M5.18182 17.2384L9.81818 18.4739M13.6364 7.25353L19.2273 5.70664M13.7727 9.41327L19.3636 7.90316M13.7727 11.7471L19.3636 10.237M13.9091 13.9436L19.3636 12.5708M13.6364 16.1401L19.3636 14.5755M13.7727 18.4739L19.3636 17.1011M3 2V19.5722L12 22L21 19.5722V2L12 4.19653L3 2ZM5.18182 5.15751V8.17773L9.81818 9.27599V6.25577L5.18182 5.15751Z" stroke="#5F3420"/></svg>
