<svg viewBox="0 0 25 25" fill="none" xmlns="http://www.w3.org/2000/svg"><g clip-path="url(#clip0_889_2492)"><mask maskUnits="userSpaceOnUse" x="0" y="0" width="25" height="25"><path d="M25 0H0V25H25V0Z" fill="white"/></mask><g mask="url(#mask0_889_2492)"><path d="M15.413 12.4521H8.10099V9.64631H15.413C15.8401 9.64631 16.1371 9.71851 16.2861 9.84456C16.4352 9.97064 16.5275 10.2045 16.5275 10.546V11.5535C16.5275 11.9133 16.4352 12.1472 16.2861 12.2732C16.1371 12.3993 15.8401 12.4532 15.413 12.4532V12.4521ZM15.9147 7.00107H5V19H8.10099V15.0963H13.8158L16.5275 19H20L17.0102 15.0779C18.1125 14.9195 18.6074 14.592 19.0156 14.0522C19.4238 13.5123 19.6286 12.6493 19.6286 11.4974V10.5977C19.6286 9.9146 19.5539 9.37478 19.4238 8.96104C19.2937 8.54727 19.0713 8.1874 18.7554 7.86415C18.4217 7.55815 18.0502 7.34264 17.6042 7.19825C17.1582 7.0722 16.6009 7 15.9147 7V7.00107Z" fill="white"/><path d="M38 0.499997C38 7.40355 32.4036 13 25.5 13C24.0964 13 22.747 12.7687 21.4875 12.342C21.5144 12.045 21.5263 11.7413 21.5263 11.4348V10.4976C21.5263 9.70188 21.4432 9.00044 21.2619 8.40597C21.0663 7.76491 20.7311 7.21321 20.2809 6.73825L20.2559 6.71188L20.2295 6.68692C19.75 6.23334 19.2063 5.90955 18.5756 5.69897L18.5513 5.69088L18.5267 5.68372C17.9263 5.5087 17.2331 5.42423 16.4491 5.42423H15.1234V5.42535H14.0078C13.3592 3.91395 13 2.24892 13 0.499997C13 -6.40356 18.5964 -12 25.5 -12C32.4036 -12 38 -6.40356 38 0.499997Z" fill="white"/></g><path d="M20 0H5C2.23858 0 0 2.23858 0 5V20C0 22.7614 2.23858 25 5 25H20C22.7614 25 25 22.7614 25 20V5C25 2.23858 22.7614 0 20 0Z" stroke="white" stroke-width="2"/></g><defs><clipPath><rect width="25" height="25" rx="5" fill="white"/></clipPath></defs></svg>
