<svg viewBox="0 0 16 15" fill="none" xmlns="http://www.w3.org/2000/svg"><path fill-rule="evenodd" clip-rule="evenodd" d="M7.98409 12.2908L3.61496 14.9043C3.50603 14.9691 3.3799 15.0007 3.25258 14.9952C3.12526 14.9897 3.00248 14.9473 2.89982 14.8733C2.79716 14.7993 2.71924 14.6971 2.67596 14.5797C2.63268 14.4623 2.62597 14.335 2.6567 14.2138L3.92321 9.27292L0.249662 6.47299C0.147118 6.39528 0.0709374 6.28904 0.0311081 6.1682C-0.00872124 6.04735 -0.0103407 5.91754 0.026462 5.79578C0.0632647 5.67402 0.136772 5.56599 0.237347 5.48585C0.337923 5.40572 0.460873 5.35722 0.590079 5.34671L5.39612 4.95947L7.40109 0.382179C7.4507 0.268651 7.53327 0.171903 7.63855 0.103957C7.74383 0.03601 7.86717 -0.000139445 7.99325 4.04239e-07C8.11932 0.000140254 8.24258 0.0365632 8.3477 0.104743C8.45282 0.172923 8.53517 0.269854 8.58451 0.383492L10.5721 4.95947L15.4103 5.34802C15.5393 5.35858 15.662 5.40701 15.7624 5.48697C15.8629 5.56693 15.9364 5.67471 15.9733 5.79622C16.0102 5.91774 16.0088 6.04733 15.9694 6.16807C15.9299 6.28881 15.8541 6.39508 15.752 6.47299L12.0637 9.27292L13.3276 14.2164C13.3586 14.3377 13.3522 14.4652 13.3091 14.5829C13.2659 14.7005 13.188 14.803 13.0853 14.8771C12.9826 14.9513 12.8596 14.9938 12.7321 14.9994C12.6046 15.0049 12.4783 14.9732 12.3693 14.9082L7.98409 12.2894V12.2908Z" fill="#FFCC00"/></svg>
