<svg viewBox="0 0 26 21" fill="none" xmlns="http://www.w3.org/2000/svg"><path d="M1.7871 9.04046C8.76774 6.07715 13.4215 4.12336 15.7484 3.17946C22.3998 0.484119 23.7802 0.0159974 24.6818 0.000138185C24.8801 -0.00296075 25.3215 0.0447989 25.6096 0.27175C25.849 0.463155 25.9163 0.722008 25.95 0.903751C25.9799 1.08531 26.0211 1.49911 25.9874 1.82213C25.6283 5.51169 24.0683 14.4651 23.2752 18.5976C22.9423 20.3461 22.2801 20.9324 21.6404 20.9896C20.2488 21.1143 19.1938 20.0942 17.8471 19.2341C15.7409 17.8877 14.5513 17.0499 12.505 15.7364C10.1407 14.2182 11.6745 13.3837 13.0212 12.0202C13.3729 11.6633 19.5006 6.23283 19.6165 5.74028C19.6315 5.67866 19.6465 5.44898 19.5043 5.32794C19.3659 5.20653 19.1601 5.24809 19.0105 5.28091C18.7973 5.32757 15.4341 7.4961 8.9099 11.7861C7.95595 12.4256 7.09179 12.7373 6.31367 12.7209C5.46073 12.703 3.81471 12.2499 2.59141 11.8627C1.09503 11.3876 -0.0983409 11.1364 0.00640607 10.3296C0.0587796 9.90962 0.653593 9.47978 1.7871 9.04046Z" fill="white"/></svg>
