<svg viewBox="0 0 27 17" fill="none" xmlns="http://www.w3.org/2000/svg"><path d="M27 16.9955H26.6878C25.2972 16.9955 23.9061 16.9911 22.5155 17C22.2995 17 22.1969 16.9543 22.1159 16.7253C21.4051 14.7137 20.2123 13.0802 18.3853 11.9644C17.4335 11.3837 16.3998 11.0454 15.2664 10.9241V16.9548C15.2308 16.9716 15.1934 16.9839 15.1549 16.9916C12.144 17.0512 9.28274 16.4977 6.70423 14.8335C4.59695 13.4737 3.08312 11.5884 2.01058 9.32245C1.1949 7.58723 0.649155 5.73481 0.392692 3.83083C0.218926 2.57193 0.130079 1.30062 0 0.0084456H4.65585C4.66959 0.277711 4.68334 0.554926 4.69806 0.83214C4.82225 3.16412 5.22476 5.43052 6.26883 7.53894C7.00513 9.03331 8.00355 10.3066 9.45258 11.1566C9.89436 11.4145 10.3774 11.5933 10.9001 11.8348V0.0034776H15.2428V6.72866C15.5118 6.67103 15.7494 6.63675 15.9791 6.56869C17.2318 6.1941 18.2371 5.42605 19.1162 4.48213C20.2646 3.24927 21.1143 1.76317 21.598 0.141091C21.6123 0.094392 21.6334 0.0491832 21.6525 0H25.9721C25.657 1.78848 24.9413 3.38172 23.9105 4.83734C22.8797 6.29297 21.627 7.5146 20.0984 8.4605C23.5909 10.3151 25.8686 13.1493 27 16.9955Z" fill="white"/></svg>
