<svg width="81" height="23" viewBox="0 0 81 23" fill="none" xmlns="http://www.w3.org/2000/svg">
<path d="M4.30997 11.3606C1.84713 10.6636 0 8.64242 0 5.71515C0 2.09091 2.94172 0 6.08868 0H21.0709V4.39091H12.3142V7.80606H19.087V12.0576H12.3142V18.1212H7.66216V4.25152H6.02027C5.26774 4.25152 4.37838 4.73939 4.37838 5.71515C4.37838 6.48182 4.85726 6.9697 5.47297 7.24848L4.30997 11.3606ZM23.2601 18.1212V0H28.049V18.1212H23.2601ZM36.3269 4.46061C39.8843 4.46061 42.4155 6.20303 42.4155 9.82727V18.1212H38.3792V16.7273C37.6267 18.1212 35.9164 18.5394 34.2745 18.5394C31.4012 18.5394 29.7593 16.4485 29.7593 14.0788C29.7593 12.0576 31.3328 9.61818 35.2323 9.61818H38.0372V9.40909C38.0372 7.87576 37.4899 7.31818 36.2584 7.31818C35.1639 7.31818 34.4797 7.87576 34.4113 8.92121H30.3066C30.5118 6.34242 32.5642 4.46061 36.3269 4.46061ZM38.1056 13.0333V12.2667H36.1216C34.9586 12.2667 34.0693 12.8939 34.0693 13.8C34.0693 14.7758 34.7534 15.2636 35.9164 15.2636C37.2846 15.2636 38.1056 14.2879 38.1056 13.0333ZM56.3716 6.8303C57.261 5.15758 58.5608 4.5303 60.2711 4.5303C63.5549 4.5303 64.9916 6.62121 64.9916 9.96667V18.1212H60.5448V10.8727C60.5448 9.33939 60.2711 8.43333 58.9713 8.43333C57.5346 8.43333 57.1242 9.54848 57.1242 11.0121V18.1212H52.6774V10.8727C52.6774 9.33939 52.3353 8.43333 50.9671 8.43333C49.5304 8.43333 49.0515 9.68788 49.0515 11.2212V18.1909H44.4679V4.87879H48.7779V6.8303C49.6672 4.94848 51.2407 4.46061 52.6774 4.46061C54.3877 4.46061 55.6191 5.15758 56.3716 6.8303ZM71.4223 6.69091C72.3117 5.01818 73.9535 4.46061 75.527 4.46061C78.9476 4.46061 81 7.38788 81 11.5C81 15.6818 78.8792 18.5394 75.527 18.5394C73.9535 18.5394 72.3801 18.0515 71.5591 16.7273V23H67.0439V4.87879H71.4223V6.69091ZM73.8851 14.9152C75.8007 14.9152 76.5532 13.3121 76.5532 11.5C76.5532 9.68788 75.8691 8.15455 73.8851 8.15455C72.038 8.15455 71.2171 9.68788 71.2171 11.5C71.2855 13.3121 72.038 14.9152 73.8851 14.9152Z" fill="black"/>
</svg>
