<svg width="93" height="25" viewBox="0 0 93 25" fill="none" xmlns="http://www.w3.org/2000/svg">
<g clip-path="url(#clip0_828_11411)">
<path d="M16.1835 0C17.1572 0.00575281 18.131 0.00934832 19.1049 0.0107865C19.5143 0.0112659 19.9215 0.0256479 20.3266 0.0539326C20.7963 0.0867715 21.2514 0.157723 21.6919 0.266787C23.4493 0.700764 24.8956 1.94553 25.5418 3.6311C25.8288 4.3804 25.9411 5.19766 25.9728 5.97753C25.9981 6.59572 26.0057 7.26987 25.9958 8L18.5247 6.84944C18.5133 6.84776 18.5037 6.84273 18.4959 6.83434C18.4677 6.8039 18.4025 6.73115 18.3004 6.61609C16.926 5.06751 14.9111 4.25384 12.8179 4.2578C11.3838 4.26067 10.0683 4.62574 8.87142 5.35299C8.8627 5.35811 8.8524 5.36014 8.84225 5.35874L0 3.99604C0.659695 1.86067 2.49291 0.411326 4.72326 0.121528C5.21484 0.0577678 5.7086 0.0222921 6.20456 0.0151011C6.45983 0.0112659 6.71498 0.00623221 6.97001 0H16.1835Z" fill="#FFB919"/>
<path d="M25.9982 7.90737L26 8.90912L19.3384 7.8993C19.3368 7.89908 19.3351 7.8993 19.3335 7.89991C19.332 7.90053 19.3307 7.90153 19.3297 7.9028C19.3287 7.90407 19.3282 7.90556 19.328 7.90711C19.3279 7.90866 19.3282 7.91021 19.329 7.91158C19.8459 8.88351 20.1053 9.95298 20.0839 11.0439C20.0617 12.1737 19.8328 13.2745 19.397 14.3463C19.2383 14.7367 19.0495 15.147 18.8305 15.5772C18.8293 15.5795 18.8275 15.5815 18.8253 15.5828C18.823 15.5842 18.8205 15.5849 18.8179 15.5849C18.5357 15.5807 18.2426 15.582 17.9385 15.5888C16.9608 15.6116 16.0159 15.9091 15.3778 16.6498C14.9615 17.1337 14.7097 17.7789 14.6084 18.4003C14.531 18.8745 14.4825 19.3844 14.463 19.9302C14.4625 19.9423 14.4684 19.9475 14.4807 19.9456L25.9996 18.2003L25.9863 19.2046L0.940134 23C0.735636 22.7146 0.561645 22.4069 0.418159 22.0768L11.4288 20.4077C11.433 20.4071 11.4369 20.4051 11.4396 20.402C11.4423 20.3989 11.4438 20.3949 11.4437 20.3909C11.4309 19.8856 11.3958 19.3643 11.3384 18.827C11.1836 17.3807 10.539 16.1333 8.98969 15.7323C8.35341 15.5677 7.67408 15.5758 7.06819 15.5846C7.0624 15.5846 7.0583 15.5821 7.05589 15.5772C6.86224 15.1957 6.68765 14.8205 6.5321 14.4516C6.11177 13.4539 5.87147 12.417 5.81118 11.3407C5.70157 9.38316 6.44818 7.53263 7.8904 6.18035C7.89161 6.17917 7.89247 6.17768 7.89288 6.17606C7.89329 6.17443 7.89323 6.17273 7.8927 6.17114C7.89218 6.16954 7.89122 6.16812 7.88992 6.16702C7.88862 6.16593 7.88703 6.16519 7.88533 6.16491L0 4.97018C0.0455779 4.62842 0.116356 4.30503 0.212335 4L8.98318 5.32982C8.99326 5.33119 9.00346 5.32921 9.01212 5.32421C10.1993 4.6145 11.5042 4.25825 12.9267 4.25544C15.0031 4.25158 17.0016 5.04561 18.365 6.55684C18.4663 6.66912 18.5309 6.74012 18.5589 6.76982C18.5666 6.77801 18.5761 6.78292 18.5874 6.78456L25.9982 7.90737ZM18.1646 14.5965C18.1682 14.5965 18.1718 14.5955 18.1749 14.5937C18.178 14.5918 18.1804 14.5891 18.1819 14.586C18.6992 13.5239 18.9944 12.414 19.0562 11.2561C19.172 9.09333 18.0307 7.09228 16.0933 6.02737C14.5607 5.18456 12.6522 5.02421 10.9843 5.52807C8.51546 6.27368 6.78748 8.46702 6.82185 10.9951C6.83849 12.2435 7.155 13.4593 7.70447 14.5874C7.70575 14.5899 7.70772 14.592 7.71014 14.5935C7.71257 14.595 7.71537 14.5958 7.71821 14.5958C9.22662 14.586 10.6591 15.0705 11.5265 16.3211C11.9671 16.9561 12.2235 17.7112 12.3223 18.4716C12.3971 19.0489 12.4424 19.638 12.4583 20.2389C12.4583 20.2406 12.4587 20.2421 12.4594 20.2436C12.4602 20.245 12.4612 20.2463 12.4625 20.2473C12.4637 20.2484 12.4652 20.2491 12.4668 20.2496C12.4684 20.25 12.4701 20.2501 12.4717 20.2498L13.4118 20.1077C13.4239 20.1058 13.4302 20.0989 13.4306 20.087C13.4453 19.7018 13.4801 19.2411 13.5348 18.7049C13.6911 17.1744 14.386 15.7463 15.8705 15.0516C16.5726 14.7228 17.3699 14.5909 18.1646 14.5965Z" fill="white"/>
<path d="M37.1151 17.788C37.0979 17.795 37.0987 17.7986 37.1173 17.7986H45.9847C45.9949 17.7986 46 17.8035 46 17.8134V20.9936C46 20.9953 45.9993 20.9969 45.9981 20.9981C45.9969 20.9993 45.9952 21 45.9935 21H32.0131C32.0044 21 32 20.9958 32 20.9873V16.3374C32 16.3263 32.0055 16.3191 32.0164 16.3158C33.0568 15.9923 34.0487 15.6611 34.9919 15.3221C36.3381 14.8376 37.6679 14.2683 38.9976 13.6434C39.686 13.3198 40.3711 12.9605 40.9456 12.4747C41.5874 11.9322 41.9317 11.2401 41.8376 10.3964C41.7176 9.31778 40.9445 8.53732 39.8718 8.29261C38.9136 8.07406 37.7922 8.2339 36.9973 8.79158C36.2261 9.33299 35.7854 10.2337 35.7639 11.1545C35.7615 11.254 35.7587 11.3302 35.7555 11.383C35.7551 11.3943 35.7489 11.4 35.737 11.4H32.0116C32.0092 11.4 32.0069 11.399 32.0052 11.3974C32.0035 11.3957 32.0025 11.3935 32.0025 11.3911C31.9953 10.6966 32.084 9.97342 32.2938 9.30859C32.7866 7.7446 33.7904 6.58056 35.305 5.81648C36.0553 5.43786 36.9104 5.1902 37.8704 5.0735C39.8143 4.83727 42.0696 5.14529 43.6426 6.36567C44.5405 7.06209 45.1325 7.94334 45.4186 9.00942C45.6321 9.80509 45.6691 10.6189 45.5295 11.4509C45.096 14.0342 42.7517 15.3072 40.555 16.307C39.39 16.8374 38.2434 17.3311 37.1151 17.788Z" fill="black"/>
<path d="M93 11.0342V11.0621L89.1898 11.0611C89.1845 11.061 89.1793 11.0595 89.175 11.0567C89.1706 11.054 89.1673 11.05 89.1654 11.0454C89.1028 10.8919 89.0658 10.8015 89.0541 10.7741C88.4023 9.21661 86.8676 8.23657 85.0957 8.15995C83.7056 8.10005 82.3845 8.49812 81.3626 9.38134C80.4568 10.1639 79.8969 11.2418 79.746 12.3789C79.3982 14.9993 81.3066 17.5382 84.175 17.8203C85.2039 17.9216 86.2306 17.7409 87.1264 17.2662C88.1038 16.748 88.7836 15.9788 89.1657 14.9586C89.1699 14.9476 89.1782 14.9422 89.1906 14.9422L93 14.9408C92.9998 14.9443 92.9998 14.9476 93 14.9509C92.7316 16.5603 91.9692 17.9944 90.6863 19.0807C89.3975 20.1725 87.716 20.7566 86.0019 20.9335C84.2336 21.116 82.416 20.9331 80.7972 20.2575C79.2345 19.6055 78.0273 18.6027 77.1758 17.2491C76.0059 15.389 75.7342 13.0438 76.2488 10.9468C76.5039 9.90734 76.9582 8.96759 77.6118 8.12756C79.7264 5.40965 83.4583 4.57868 86.8343 5.19059C88.0393 5.4093 89.2329 5.86833 90.2032 6.56556C91.5823 7.55651 92.4753 8.86299 92.8825 10.485C92.9045 10.573 92.9436 10.7561 93 11.0342Z" fill="black"/>
<path d="M51.6521 20H48.0147C48.0128 20 48.0109 19.9997 48.0091 19.999C48.0073 19.9983 48.0057 19.9973 48.0043 19.9961C48.0029 19.9948 48.0019 19.9933 48.0011 19.9917C48.0004 19.9901 48 19.9883 48 19.9865V5.01347C48 5.0117 48.0004 5.00995 48.0011 5.00831C48.0019 5.00668 48.0029 5.0052 48.0043 5.00394C48.0057 5.00269 48.0073 5.0017 48.0091 5.00103C48.0109 5.00035 48.0128 5 48.0147 5H58.9853C58.9892 5 58.9929 5.00142 58.9957 5.00394C58.9985 5.00647 59 5.0099 59 5.01347V8.03286C59 8.03644 58.9985 8.03986 58.9957 8.04239C58.9929 8.04491 58.9892 8.04633 58.9853 8.04633H51.6815C51.6776 8.04633 51.6738 8.04775 51.6711 8.05028C51.6683 8.0528 51.6668 8.05623 51.6668 8.0598V19.9865C51.6668 19.9901 51.6652 19.9935 51.6625 19.9961C51.6597 19.9986 51.656 20 51.6521 20Z" fill="black"/>
<path d="M64.63 14.5613C64.63 14.5774 64.6347 14.5788 64.6442 14.5653L71.362 5.01178C71.3646 5.00817 71.3681 5.0052 71.3722 5.00314C71.3763 5.00108 71.381 5 71.3856 5H74.9895C74.9908 5 74.9922 5.00025 74.9935 5.00074C74.9948 5.00123 74.9959 5.00195 74.9969 5.00286C74.9979 5.00377 74.9987 5.00484 74.9992 5.00603C74.9997 5.00721 75 5.00848 75 5.00976V19.9886C75 19.9916 74.9987 19.9945 74.9964 19.9966C74.9941 19.9988 74.9909 20 74.9876 20H71.3809C71.3734 20 71.3696 19.9965 71.3696 19.9896V10.4559C71.3696 10.4283 71.3615 10.4261 71.3453 10.4492L64.6151 19.9832C64.6071 19.9944 64.5958 20 64.5813 20H61.0211C61.007 20 61 19.9936 61 19.9808V5.01313C61 5.01141 61.0004 5.0097 61.0011 5.00811C61.0018 5.00651 61.0029 5.00507 61.0043 5.00385C61.0056 5.00263 61.0072 5.00166 61.009 5.001C61.0107 5.00034 61.0126 5 61.0145 5H64.6162C64.6198 5 64.6234 5.00135 64.6259 5.00375C64.6285 5.00615 64.63 5.0094 64.63 5.0128V14.5613Z" fill="black"/>
<path d="M0.555694 22C0.195244 21.2074 0.0627033 20.3709 0.0296621 19.5302C0.0178974 19.2318 0.00801001 18.9332 0 18.6344V6.9694C0.0157697 6.31003 0.0274092 5.65449 0.121652 5L8.3065 6.18729C8.30827 6.18757 8.30991 6.18829 8.31126 6.18939C8.31261 6.19048 8.31361 6.19189 8.31415 6.19347C8.3147 6.19506 8.31476 6.19675 8.31434 6.19836C8.31392 6.19998 8.31302 6.20145 8.31176 6.20263C6.81476 7.54648 6.0398 9.38547 6.15356 11.3308C6.21614 12.4003 6.46558 13.4308 6.90187 14.4223C7.06332 14.7889 7.24455 15.1617 7.44555 15.5409C7.44805 15.5458 7.45231 15.5482 7.45832 15.5482C8.08723 15.5395 8.79236 15.5315 9.45281 15.695C11.0609 16.0936 11.73 17.3331 11.8907 18.7704C11.9503 19.3044 11.9867 19.8224 12 20.3245C12.0001 20.3286 11.9986 20.3325 11.9958 20.3356C11.9929 20.3387 11.989 20.3407 11.9846 20.3413L0.555694 22Z" fill="#19AA1E"/>
<path d="M18.1182 14.3494C17.3392 14.3438 16.5578 14.4756 15.8696 14.8042C14.4145 15.4986 13.7334 16.926 13.5803 18.4557C13.5266 18.9916 13.4926 19.4521 13.4781 19.8371C13.4777 19.8491 13.4715 19.856 13.4597 19.8578L12.5382 19.9999C12.5366 20.0001 12.535 20 12.5334 19.9996C12.5319 19.9992 12.5304 19.9984 12.5292 19.9974C12.5279 19.9963 12.5269 19.9951 12.5262 19.9936C12.5255 19.9922 12.5251 19.9906 12.5251 19.989C12.5095 19.3884 12.4651 18.7995 12.3918 18.2225C12.295 17.4625 12.0436 16.7078 11.6118 16.0731C10.7616 14.8232 9.35755 14.3389 7.87907 14.3487C7.87628 14.3487 7.87355 14.3479 7.87116 14.3464C7.86878 14.3449 7.86685 14.3428 7.8656 14.3403C7.32703 13.2128 7.0168 11.9976 7.00049 10.7498C6.96681 8.223 8.6605 6.03077 11.0803 5.28553C12.7151 4.78193 14.5858 4.9422 16.088 5.78458C17.987 6.84895 19.1056 8.849 18.9921 11.0107C18.9315 12.168 18.6422 13.2773 18.1352 14.3389C18.1337 14.342 18.1313 14.3447 18.1283 14.3466C18.1252 14.3484 18.1217 14.3494 18.1182 14.3494Z" fill="#0073FA"/>
<path d="M27 9.00599L26.9996 18.2611L15.0185 19.9996C15.0057 20.0015 14.9995 19.9964 15 19.9842C15.0203 19.4406 15.0708 18.9327 15.1513 18.4604C15.2566 17.8414 15.5185 17.1986 15.9516 16.7166C16.6152 15.9788 17.598 15.6824 18.615 15.6597C18.9313 15.6529 19.2362 15.6517 19.5296 15.6559C19.5324 15.6558 19.535 15.6551 19.5374 15.6538C19.5397 15.6524 19.5416 15.6505 19.5428 15.6482C19.7706 15.2197 19.967 14.811 20.132 14.4221C20.5853 13.3544 20.8234 12.2579 20.8465 11.1324C20.8687 10.0458 20.5989 8.98047 20.0613 8.01231C20.0605 8.01095 20.0601 8.00941 20.0603 8.00786C20.0604 8.00632 20.061 8.00484 20.062 8.00357C20.063 8.00231 20.0644 8.00131 20.066 8.00069C20.0676 8.00008 20.0694 7.99987 20.0711 8.00008L27 9.00599Z" fill="#19AA1E"/>
<path d="M26 19C25.9952 19.6966 25.9271 20.3189 25.7956 20.8671C25.2963 22.9474 23.5112 24.4989 21.2531 24.846C20.1464 25.0161 19.1091 24.9941 17.9198 24.9978C16.308 25.0028 12.5439 24.9992 6.62753 24.987C5.59416 24.985 4.57416 24.9079 3.60724 24.5659C2.53055 24.1853 1.66147 23.5496 1 22.6588L26 19Z" fill="#82D714"/>
</g>
<defs>
<clipPath id="clip0_828_11411">
<rect width="93" height="25" fill="white"/>
</clipPath>
</defs>
</svg>
