<svg width="126" height="35" viewBox="0 0 126 35" fill="none" xmlns="http://www.w3.org/2000/svg">
<g clip-path="url(#clip0_550_13741)">
<path d="M21.7855 0C23.0962 0.00791011 24.4071 0.0128539 25.7181 0.0148315C26.2693 0.0154906 26.8174 0.0352659 27.3627 0.0741573C27.995 0.119311 28.6076 0.216869 29.2006 0.366831C31.5663 0.963551 33.5132 2.6751 34.3831 4.99276C34.7695 6.02306 34.9207 7.14679 34.9634 8.2191C34.9974 9.06911 35.0077 9.99607 34.9943 11L24.9371 9.41798C24.9217 9.41567 24.9088 9.40875 24.8983 9.39721C24.8603 9.35536 24.7726 9.25533 24.6352 9.09712C22.785 6.96782 20.0727 5.84903 17.2549 5.85447C15.3243 5.85843 13.5535 6.36039 11.9423 7.36036C11.9306 7.3674 11.9167 7.37019 11.903 7.36827L0 5.49456C0.888051 2.55843 3.35584 0.565573 6.35823 0.167101C7.01997 0.0794307 7.68466 0.0306517 8.35229 0.020764C8.69593 0.0154906 9.0394 0.00856929 9.38271 0H21.7855Z" fill="#FFB919"/>
<path d="M34.9976 10.3469L35 11.7177L26.0325 10.3359C26.0302 10.3356 26.028 10.3359 26.0259 10.3367C26.0239 10.3376 26.0221 10.3389 26.0208 10.3407C26.0194 10.3424 26.0187 10.3445 26.0185 10.3466C26.0183 10.3487 26.0188 10.3508 26.0198 10.3527C26.7156 11.6827 27.0648 13.1462 27.036 14.639C27.0062 16.185 26.6979 17.6914 26.1113 19.1581C25.8977 19.6924 25.6436 20.2538 25.3488 20.8425C25.3472 20.8456 25.3447 20.8483 25.3417 20.8502C25.3387 20.852 25.3353 20.853 25.3317 20.853C24.9519 20.8473 24.5573 20.849 24.148 20.8583C22.8318 20.8895 21.5599 21.2967 20.7009 22.3103C20.1404 22.9724 19.8015 23.8554 19.6652 24.7057C19.561 25.3546 19.4957 26.0524 19.4694 26.7992C19.4688 26.8158 19.4767 26.8229 19.4933 26.8203L34.9995 24.4321L34.9815 25.8062L1.26556 31C0.99028 30.6095 0.75606 30.1884 0.562906 29.7367L15.385 27.4527C15.3906 27.4518 15.3958 27.449 15.3995 27.4448C15.4032 27.4405 15.4051 27.4352 15.4049 27.4296C15.3877 26.7382 15.3405 26.0249 15.2632 25.2896C15.0548 23.3104 14.1871 21.6035 12.1015 21.0547C11.245 20.8295 10.3305 20.8406 9.51487 20.8526C9.50707 20.8526 9.50156 20.8492 9.49831 20.8425C9.23763 20.3204 9.0026 19.807 8.79322 19.3022C8.22739 17.9369 7.9039 16.5179 7.82274 15.0452C7.67519 12.3664 8.68025 9.83413 10.6217 7.98364C10.6233 7.98202 10.6245 7.97999 10.625 7.97776C10.6256 7.97554 10.6255 7.97321 10.6248 7.97103C10.6241 7.96885 10.6228 7.9669 10.621 7.9654C10.6193 7.9639 10.6172 7.9629 10.6149 7.96251L0 6.32761C0.0613548 5.85994 0.156633 5.41741 0.285836 5L12.0927 6.81976C12.1063 6.82163 12.12 6.81892 12.1317 6.81208C13.7298 5.8409 15.4864 5.35339 17.4014 5.34955C20.1964 5.34427 22.8868 6.43084 24.7221 8.49884C24.8584 8.65248 24.9454 8.74963 24.9831 8.79029C24.9935 8.80149 25.0063 8.80821 25.0216 8.81045L34.9976 10.3469ZM24.4523 19.5005C24.4573 19.5005 24.4621 19.4991 24.4662 19.4966C24.4704 19.494 24.4737 19.4904 24.4757 19.4861C25.172 18.0327 25.5694 16.5139 25.6526 14.9295C25.8085 11.9698 24.2722 9.23154 21.6641 7.77429C19.6009 6.62098 17.0318 6.40155 14.7865 7.09104C11.4631 8.11136 9.137 11.1128 9.18326 14.5722C9.20566 16.2806 9.63173 17.9443 10.3714 19.488C10.3731 19.4914 10.3758 19.4943 10.379 19.4964C10.3823 19.4984 10.3861 19.4995 10.3899 19.4995C12.4205 19.4861 14.3488 20.1491 15.5164 21.8604C16.1095 22.7295 16.4548 23.7627 16.5877 24.8032C16.6883 25.5932 16.7494 26.3994 16.7708 27.2217C16.7708 27.2239 16.7714 27.2261 16.7723 27.2281C16.7733 27.23 16.7747 27.2318 16.7764 27.2332C16.7781 27.2346 16.7801 27.2356 16.7822 27.2362C16.7844 27.2368 16.7866 27.2369 16.7888 27.2366L18.0544 27.0421C18.0706 27.0396 18.0791 27.0301 18.0797 27.0138C18.0995 26.4866 18.1463 25.8562 18.2199 25.1225C18.4303 23.0281 19.3657 21.0739 21.3641 20.1232C22.3093 19.6733 23.3825 19.4928 24.4523 19.5005Z" fill="white"/>
<path d="M49.942 23.5835C49.9186 23.5932 49.9196 23.598 49.9449 23.598H61.9793C61.9931 23.598 62 23.6048 62 23.6185V27.9912C62 27.9936 61.9991 27.9958 61.9974 27.9974C61.9957 27.9991 61.9935 28 61.9911 28H43.0178C43.0059 28 43 27.9942 43 27.9825V21.5889C43 21.5736 43.0074 21.5638 43.0222 21.5592C44.4343 21.1145 45.7803 20.659 47.0605 20.1929C48.8874 19.5267 50.6921 18.7439 52.4968 17.8847C53.431 17.4398 54.3607 16.9457 55.1404 16.2776C56.0115 15.5317 56.4788 14.5802 56.351 13.42C56.1881 11.937 55.139 10.8638 53.6832 10.5273C52.3828 10.2268 50.8609 10.4466 49.7821 11.2134C48.7354 11.9579 48.1373 13.1963 48.1082 14.4625C48.1049 14.5993 48.1011 14.704 48.0968 14.7766C48.0961 14.7922 48.0878 14.8 48.0716 14.8H43.0158C43.0125 14.8 43.0094 14.7987 43.0071 14.7964C43.0048 14.7941 43.0035 14.791 43.0035 14.7878C42.9936 13.8328 43.114 12.8384 43.3987 11.9243C44.0676 9.77382 45.4298 8.17327 47.4854 7.12266C48.5036 6.60205 49.6641 6.26152 50.967 6.10106C53.6052 5.77625 56.6658 6.19977 58.8007 7.87779C60.0193 8.83537 60.8227 10.0471 61.2109 11.5129C61.5007 12.607 61.5509 13.726 61.3614 14.87C60.7732 18.422 57.5916 20.1725 54.6104 21.5471C53.0293 22.2764 51.4731 22.9552 49.942 23.5835Z" fill="white"/>
<path d="M126 14.2971V14.3354L120.845 14.3339C120.838 14.3339 120.831 14.3319 120.825 14.328C120.819 14.3242 120.815 14.3187 120.812 14.3124C120.727 14.1014 120.677 13.977 120.661 13.9394C119.78 11.7978 117.703 10.4503 115.306 10.3449C113.425 10.2626 111.638 10.8099 110.255 12.0243C109.03 13.1004 108.272 14.5825 108.068 16.146C107.598 19.749 110.18 23.24 114.06 23.6279C115.452 23.7673 116.841 23.5187 118.053 22.866C119.376 22.1535 120.295 21.0958 120.812 19.693C120.818 19.678 120.829 19.6705 120.846 19.6705L126 19.6686C126 19.6734 126 19.678 126 19.6825C125.637 21.8953 124.605 23.8673 122.87 25.361C121.126 26.8622 118.851 27.6653 116.532 27.9086C114.14 28.1595 111.681 27.9081 109.49 26.9791C107.376 26.0826 105.743 24.7038 104.591 22.8426C103.008 20.2849 102.64 17.0602 103.337 14.1769C103.682 12.7476 104.296 11.4554 105.181 10.3004C108.042 6.56327 113.091 5.42068 117.658 6.26206C119.288 6.56279 120.903 7.19395 122.216 8.15265C124.082 9.5152 125.29 11.3116 125.841 13.5419C125.871 13.6629 125.924 13.9146 126 14.2971Z" fill="white"/>
<path d="M69.9801 29H65.02C65.0174 29 65.0148 28.9995 65.0124 28.9985C65.0099 28.9975 65.0077 28.996 65.0059 28.9942C65.004 28.9924 65.0025 28.9902 65.0015 28.9878C65.0005 28.9854 65 28.9828 65 28.9802V7.01975C65 7.01716 65.0005 7.01459 65.0015 7.01219C65.0025 7.0098 65.004 7.00762 65.0059 7.00579C65.0077 7.00395 65.0099 7.0025 65.0124 7.0015C65.0148 7.00051 65.0174 7 65.02 7H79.98C79.9853 7 79.9904 7.00208 79.9941 7.00579C79.9979 7.00949 80 7.01451 80 7.01975V11.4482C80 11.4534 79.9979 11.4585 79.9941 11.4622C79.9904 11.4659 79.9853 11.468 79.98 11.468H70.0202C70.0149 11.468 70.0098 11.47 70.006 11.4737C70.0023 11.4774 70.0002 11.4825 70.0002 11.4877V28.9802C70.0002 28.9855 69.9981 28.9905 69.9943 28.9942C69.9905 28.9979 69.9854 29 69.9801 29Z" fill="white"/>
<path d="M86.9264 21.0232C86.9264 21.0469 86.9328 21.0488 86.9457 21.0291L96.0627 7.01728C96.0662 7.01198 96.071 7.00762 96.0766 7.0046C96.0822 7.00159 96.0884 7.00001 96.0948 7H100.986C100.988 7 100.989 7.00037 100.991 7.00109C100.993 7.00181 100.994 7.00286 100.996 7.00419C100.997 7.00552 100.998 7.0071 100.999 7.00884C101 7.01058 101 7.01244 101 7.01432V28.9832C101 28.9877 100.998 28.9919 100.995 28.9951C100.992 28.9982 100.988 29 100.983 29H96.0884C96.0782 29 96.0731 28.9949 96.0731 28.9847V15.002C96.0731 14.9615 96.0621 14.9582 96.04 14.9921L86.9062 28.9753C86.8953 28.9918 86.88 29 86.8603 29H82.0286C82.0095 29 82 28.9906 82 28.9719V7.01926C82 7.01673 82.0005 7.01423 82.0015 7.01189C82.0025 7.00955 82.004 7.00743 82.0058 7.00564C82.0076 7.00385 82.0098 7.00243 82.0122 7.00147C82.0146 7.0005 82.0171 7 82.0197 7H86.9077C86.9126 7 86.9174 7.00198 86.9209 7.0055C86.9244 7.00902 86.9264 7.01379 86.9264 7.01877V21.0232Z" fill="white"/>
<path d="M0.740926 31C0.260325 29.8811 0.0836044 28.7001 0.0395494 27.5133C0.0238631 27.0919 0.01068 26.6703 0 26.2486V9.78033C0.0210263 8.84945 0.0365457 7.92399 0.162203 7L11.0753 8.67617C11.0777 8.67657 11.0799 8.67759 11.0817 8.67913C11.0835 8.68067 11.0848 8.68267 11.0855 8.6849C11.0863 8.68714 11.0863 8.68953 11.0858 8.69181C11.0852 8.69409 11.084 8.69617 11.0823 8.69783C9.08635 10.595 8.05306 13.1912 8.20475 15.9376C8.28819 17.4476 8.62077 18.9024 9.2025 20.302C9.41777 20.8196 9.6594 21.346 9.9274 21.8812C9.93074 21.8881 9.93641 21.8916 9.94442 21.8916C10.783 21.8793 11.7231 21.868 12.6037 22.0988C14.7479 22.6615 15.64 24.4115 15.8543 26.4406C15.9337 27.1944 15.9823 27.9258 16 28.6347C16.0002 28.6403 15.9982 28.6459 15.9944 28.6502C15.9906 28.6546 15.9853 28.6574 15.9795 28.6583L0.740926 31Z" fill="#19AA1E"/>
<path d="M24.7507 20.0891C23.6472 20.0813 22.5402 20.2659 21.5653 20.7259C19.5039 21.6981 18.539 23.6964 18.322 25.838C18.246 26.5882 18.1978 27.2329 18.1774 27.772C18.1767 27.7887 18.168 27.7983 18.1512 27.801L16.8458 27.9998C16.8436 28.0002 16.8412 28 16.839 27.9994C16.8368 27.9988 16.8347 27.9978 16.833 27.9963C16.8312 27.9949 16.8298 27.9931 16.8288 27.9911C16.8278 27.989 16.8273 27.9868 16.8272 27.9846C16.8051 27.1437 16.7422 26.3193 16.6384 25.5115C16.5013 24.4476 16.1451 23.391 15.5334 22.5023C14.3289 20.7524 12.3399 20.0744 10.2454 20.0881C10.2414 20.0881 10.2375 20.087 10.2341 20.085C10.2308 20.0829 10.228 20.0799 10.2263 20.0764C9.4633 18.4979 9.0238 16.7966 9.0007 15.0497C8.95298 11.5122 11.3524 8.44308 14.7804 7.39975C17.0965 6.6947 19.7465 6.91908 21.8747 8.09841C24.5649 9.58854 26.1496 12.3886 25.9888 15.415C25.9029 17.0352 25.4931 18.5882 24.7748 20.0744C24.7727 20.0788 24.7693 20.0826 24.765 20.0852C24.7608 20.0878 24.7558 20.0892 24.7507 20.0891Z" fill="#0073FA"/>
<path d="M36 12.4251L35.9995 25.5366L20.0246 27.9995C20.0076 28.0021 19.9994 27.9949 20 27.9777C20.0271 27.2076 20.0943 26.488 20.2017 25.8188C20.3422 24.9419 20.6913 24.0314 21.2687 23.3486C22.1537 22.3033 23.464 21.8834 24.82 21.8512C25.2417 21.8417 25.6482 21.8399 26.0395 21.8458C26.0431 21.8458 26.0467 21.8448 26.0498 21.8428C26.0529 21.8409 26.0554 21.8382 26.0571 21.8349C26.3608 21.2279 26.6226 20.6489 26.8427 20.0979C27.447 18.5854 27.7646 17.032 27.7953 15.4376C27.8249 13.8982 27.4652 12.389 26.7484 11.0174C26.7473 11.0155 26.7469 11.0133 26.747 11.0111C26.7472 11.009 26.748 11.0069 26.7494 11.0051C26.7507 11.0033 26.7526 11.0019 26.7547 11.001C26.7568 11.0001 26.7591 10.9998 26.7614 11.0001L36 12.4251Z" fill="#19AA1E"/>
<path d="M35 26C34.9935 27.0449 34.9008 27.9784 34.7221 28.8007C34.043 31.9211 31.6152 34.2484 28.5442 34.769C27.0392 35.0242 25.6284 34.9912 24.0109 34.9968C21.8189 35.0042 16.6997 34.9988 8.65344 34.9805C7.24806 34.9775 5.86086 34.8618 4.54584 34.3489C3.08154 33.7779 1.8996 32.8244 1 31.4883L35 26Z" fill="#82D714"/>
</g>
<defs>
<clipPath id="clip0_550_13741">
<rect width="126" height="35" fill="white"/>
</clipPath>
</defs>
</svg>
