<svg width="95" height="19" viewBox="0 0 95 19" fill="none" xmlns="http://www.w3.org/2000/svg">
<path d="M8.27904 0.303739L4.81417 4.59051C4.80074 4.6067 4.79276 4.62552 4.79025 4.64696L4.77702 4.75264L4.53839 5.00403L1.50482 2.35294C1.70085 2.10483 1.92563 1.86591 2.17916 1.63618C3.08331 0.817461 4.11759 0.304833 5.28199 0.098294C6.30325 -0.0824275 7.30227 -0.0139456 8.27904 0.303739Z" fill="#1A73E8"/>
<path d="M11.9961 3.5536L8.4595 7.92111C8.83812 7.11902 8.87778 6.36069 8.5785 5.64612C8.3661 5.13808 8.03827 4.74863 7.59501 4.47777C6.67638 3.91657 5.60096 4.03275 4.7774 4.75279L4.79063 4.64712C4.79315 4.62567 4.80112 4.60686 4.81455 4.59067L8.27942 0.303894C9.72506 0.803175 10.8571 1.69322 11.6757 2.97402C11.8167 3.19456 11.9235 3.38775 11.9961 3.5536Z" fill="#4285F4"/>
<path d="M1.50492 2.35345L4.5385 5.00455L4.42831 5.13516C4.26167 5.2695 4.11349 5.42375 3.98379 5.59791C3.8268 5.80882 3.74726 5.91559 3.74516 5.91822C2.71718 7.19377 1.67513 8.48092 0.61903 9.77966C0.0632742 8.41572 -0.11827 7.0369 0.0743981 5.6432C0.24314 4.42322 0.719982 3.32664 1.50492 2.35345Z" fill="#EA4335"/>
<path d="M11.9951 3.55396C12.3809 4.32104 12.6076 5.10103 12.6751 5.89393C12.6886 6.05146 12.7096 6.29475 12.7381 6.62381C12.7488 6.75115 12.7129 6.95594 12.7072 7.10625C12.6791 7.83088 12.5536 8.52467 12.3307 9.18761C11.9259 10.3947 11.2182 11.4508 10.462 12.4393C9.54837 13.6326 8.86522 14.5167 8.1764 15.6194C7.74951 16.3025 7.42168 17.021 7.19292 17.7749C7.07392 18.1668 6.92973 18.9203 6.48836 18.9899C6.14248 19.0446 5.90616 18.8866 5.77939 18.516C5.71475 18.327 5.59428 17.9651 5.41798 17.4303C5.01376 16.2075 4.2582 15.1088 3.50516 14.0691L7.9554 8.55683L8.45848 7.92146L11.9951 3.55396Z" fill="#34A853"/>
<path d="M27.061 11.1161C27.0633 11.1049 27.0631 11.0933 27.0605 11.0821C27.0579 11.071 27.053 11.0605 27.046 11.0516C27.0391 11.0427 27.0304 11.0355 27.0204 11.0305C27.0105 11.0256 26.9996 11.023 26.9886 11.0229H23.5238C23.5106 11.0229 23.4979 11.0175 23.4886 11.0077C23.4793 10.998 23.474 10.9848 23.474 10.9711V9.44105C23.474 9.42049 23.4839 9.4102 23.5036 9.4102H28.5243C28.5353 9.41016 28.546 9.41419 28.5546 9.42161C28.5632 9.42902 28.5692 9.43937 28.5715 9.4509C28.654 9.89461 28.6357 10.3009 28.6301 10.824C28.6276 11.0695 28.5999 11.2323 28.5545 11.5441C28.2523 13.6136 26.6663 15.1646 24.7345 15.5611C22.4219 16.0363 20.3284 15.1725 18.9243 13.2198C17.8224 11.6885 17.6361 9.53623 18.3236 7.77846C18.7688 6.64162 19.6383 5.66363 20.635 5.02563C21.7671 4.30034 23.1693 4.06273 24.455 4.29049C25.535 4.48215 26.4744 4.98012 27.2732 5.7844C27.2773 5.78851 27.2806 5.79343 27.2828 5.79887C27.2851 5.80431 27.2863 5.81017 27.2863 5.81609C27.2864 5.82202 27.2853 5.8279 27.2832 5.83339C27.281 5.83888 27.2779 5.84387 27.2738 5.84807L26.2526 6.9127C26.2383 6.92758 26.2228 6.92889 26.206 6.91664C26.0152 6.77618 25.8307 6.5983 25.6437 6.47031C24.3039 5.54745 22.4276 5.58158 21.1557 6.63112C20.1894 7.42796 19.6712 8.44271 19.6011 9.67538C19.5327 10.8805 19.8828 11.9165 20.6514 12.7833C21.2844 13.4974 22.0624 13.9217 22.9854 14.056C23.1315 14.0775 23.376 14.0821 23.7189 14.0698C23.9956 14.0602 24.2371 14.0309 24.4436 13.9818C25.1001 13.8261 25.6616 13.5215 26.1279 13.0682C26.7103 12.5011 26.9049 11.8985 27.061 11.1161Z" fill="black"/>
<path d="M54.0096 4.62109H52.4733C52.456 4.62109 52.4419 4.63579 52.4419 4.65391V15.4381C52.4419 15.4563 52.456 15.4709 52.4733 15.4709H54.0096C54.027 15.4709 54.0411 15.4563 54.0411 15.4381V4.65391C54.0411 4.63579 54.027 4.62109 54.0096 4.62109Z" fill="black"/>
<path d="M4.42741 5.13531C4.16632 5.52651 4.01521 5.94309 3.97408 6.38505C3.78393 8.41849 5.85227 9.80672 7.54661 8.8156C7.56131 8.80685 7.627 8.76046 7.74369 8.67645C7.80959 8.62875 7.88011 8.58893 7.95525 8.55699L3.505 14.0692C2.81534 13.1774 2.23167 12.4014 1.75399 11.7411C1.30066 11.1149 0.922036 10.4611 0.618134 9.77981C1.67424 8.48107 2.71628 7.19392 3.74426 5.91837C3.74636 5.91574 3.8259 5.80897 3.98289 5.59806C4.1126 5.4239 4.26077 5.26965 4.42741 5.13531Z" fill="#FBBC04"/>
<path d="M73.1385 7.93909C73.0877 7.97891 73.0294 8.05986 72.9635 8.18195C72.6705 8.72368 71.8096 10.2983 70.3807 12.9059C70.259 13.1277 70.1752 13.268 70.1295 13.3266C70.1185 13.3405 70.1029 13.3499 70.0854 13.3529C69.9876 13.3699 69.846 13.3771 69.6604 13.3745C69.3802 13.3712 69.3336 13.238 69.1932 12.9807C68.3176 11.3735 67.4397 9.76753 66.5595 8.16291C66.5402 8.12791 66.5108 8.05308 66.4713 7.93844C66.4634 7.91524 66.4489 7.90934 66.4279 7.92071C66.4228 7.92378 66.4176 7.92837 66.4121 7.9345C66.4071 7.94019 66.4042 7.9485 66.4033 7.95944C66.3567 8.37624 66.421 8.93612 66.421 9.28597C66.4205 11.0376 66.4189 13.089 66.4159 15.4401C66.4159 15.4481 66.4128 15.4558 66.4073 15.4615C66.4017 15.4671 66.3942 15.4703 66.3863 15.4703H65.2335C65.2191 15.4703 65.2053 15.4644 65.1952 15.4538C65.185 15.4432 65.1793 15.4288 65.1793 15.4139V5.46063C65.1793 5.44444 65.1869 5.43634 65.202 5.43634H66.29C66.3815 5.43634 66.4499 5.47791 66.4953 5.56105L69.7026 11.4218C69.7458 11.5006 69.7889 11.5006 69.8317 11.4218L73.0604 5.52101C73.0733 5.49767 73.0917 5.47828 73.114 5.4648C73.1362 5.45132 73.1614 5.44422 73.187 5.44422H74.3518C74.3665 5.44422 74.3739 5.45187 74.3739 5.46719V15.4454C74.3739 15.4485 74.3732 15.4516 74.3721 15.4544C74.3709 15.4573 74.3692 15.4599 74.367 15.4621C74.3649 15.4643 74.3623 15.466 74.3595 15.4672C74.3566 15.4684 74.3536 15.469 74.3506 15.469H73.1763C73.1611 15.469 73.1465 15.4627 73.1358 15.4515C73.125 15.4403 73.119 15.4251 73.119 15.4093C73.111 13.2222 73.1106 11.0652 73.1177 8.93809C73.1184 8.61844 73.158 8.33423 73.1656 7.95353C73.166 7.92903 73.157 7.92421 73.1385 7.93909Z" fill="black"/>
<path d="M36.2858 11.8531C36.3022 12.3419 36.2259 12.8293 36.0612 13.2874C35.8965 13.7455 35.6467 14.1654 35.3261 14.5231C35.0054 14.8808 34.6201 15.1693 34.1923 15.3722C33.7645 15.575 33.3025 15.6883 32.8326 15.7054C31.8837 15.7399 30.9605 15.3809 30.2661 14.7073C29.5717 14.0337 29.1631 13.1008 29.13 12.1136C29.1136 11.6248 29.19 11.1375 29.3547 10.6794C29.5193 10.2212 29.7691 9.80133 30.0898 9.44362C30.4105 9.08591 30.7957 8.79739 31.2235 8.59454C31.6514 8.39169 32.1134 8.27848 32.5832 8.26138C33.5322 8.22683 34.4554 8.58584 35.1497 9.25942C35.8441 9.933 36.2528 10.866 36.2858 11.8531ZM32.7141 14.1993C33.2404 14.1974 33.7444 13.9619 34.1152 13.5448C34.486 13.1276 34.6932 12.5629 34.6913 11.9748C34.6903 11.6837 34.638 11.3955 34.5373 11.1269C34.4367 10.8582 34.2897 10.6144 34.1047 10.4091C33.9198 10.2039 33.7004 10.0414 33.4593 9.93085C33.2181 9.8203 32.9599 9.76389 32.6992 9.76484C32.1729 9.76675 31.6689 10.0022 31.2981 10.4194C30.9273 10.8365 30.7201 11.4012 30.7221 11.9893C30.7231 12.2804 30.7753 12.5686 30.876 12.8372C30.9766 13.1059 31.1236 13.3498 31.3086 13.555C31.4936 13.7602 31.7129 13.9227 31.9541 14.0333C32.1952 14.1438 32.4535 14.2002 32.7141 14.1993Z" fill="black"/>
<path d="M44.0149 12.1195C43.9802 13.1064 43.57 14.0384 42.8745 14.7106C42.179 15.3828 41.2552 15.7401 40.3063 15.7038C39.8365 15.6859 39.3747 15.5718 38.9472 15.3682C38.5197 15.1646 38.1349 14.8755 37.8149 14.5172C37.4948 14.159 37.2457 13.7387 37.0818 13.2804C36.9179 12.822 36.8424 12.3346 36.8595 11.846C36.8943 10.8591 37.3045 9.92699 38 9.25479C38.6955 8.5826 39.6193 8.22534 40.5681 8.26161C41.0379 8.27957 41.4998 8.3936 41.9273 8.5972C42.3548 8.80079 42.7395 9.08996 43.0596 9.4482C43.3797 9.80644 43.6288 10.2267 43.7927 10.6851C43.9566 11.1434 44.0321 11.6308 44.0149 12.1195ZM40.4496 14.1993C40.976 14.1964 41.4796 13.96 41.8497 13.5422C42.2198 13.1244 42.426 12.5593 42.4231 11.9712C42.4216 11.6801 42.3688 11.392 42.2677 11.1236C42.1667 10.8551 42.0192 10.6115 41.8339 10.4066C41.6486 10.2017 41.429 10.0396 41.1877 9.92949C40.9463 9.81938 40.688 9.76344 40.4274 9.76486C39.901 9.76773 39.3974 10.0041 39.0273 10.4219C38.6572 10.8398 38.451 11.4049 38.4539 11.9929C38.4554 12.2841 38.5082 12.5721 38.6092 12.8405C38.7103 13.109 38.8577 13.3526 39.0431 13.5575C39.2284 13.7624 39.448 13.9245 39.6893 14.0346C39.9307 14.1447 40.189 14.2007 40.4496 14.1993Z" fill="black"/>
<path d="M49.8897 14.8953C49.7752 14.9576 49.6259 15.1355 49.5202 15.2103C49.2461 15.4051 49.0059 15.5278 48.7998 15.5786C47.9163 15.7969 47.1114 15.6799 46.3852 15.2274C45.3992 14.613 44.745 13.618 44.6285 12.4207C44.5983 12.1103 44.6084 11.6351 44.6619 11.2977C44.7761 10.5765 45.0989 9.93046 45.6303 9.35941C46.5691 8.35122 48.0468 7.92852 49.2878 8.6118C49.5044 8.73061 49.7065 8.92358 49.8627 9.05354C49.9097 9.09249 49.9307 9.08067 49.9256 9.0181L49.8923 8.59868C49.8881 8.54617 49.9112 8.51991 49.9615 8.51991H51.3876C51.4053 8.51991 51.4141 8.5291 51.4141 8.54748C51.4212 10.2794 51.4225 12.4347 51.4179 15.0134C51.416 15.9264 51.2932 16.9399 50.7454 17.6908C50.2766 18.334 49.6423 18.7396 48.8427 18.9077C48.1803 19.0464 47.5374 19.0149 46.9141 18.8132C46.0427 18.5309 45.284 17.7275 44.9049 16.8532C44.9009 16.8438 44.8987 16.8336 44.8985 16.8233C44.8983 16.813 44.9 16.8027 44.9036 16.7931C44.9073 16.7835 44.9127 16.7748 44.9197 16.7674C44.9266 16.76 44.9348 16.7542 44.944 16.7502L46.2341 16.1936C46.2509 16.1861 46.2631 16.1912 46.2706 16.2087C46.4423 16.5867 46.6805 16.9001 46.9853 17.1486C47.3221 17.4236 47.7037 17.5096 48.1564 17.4958C49.0051 17.4696 49.6354 16.9425 49.8318 16.0662C49.8826 15.8391 49.9086 15.5477 49.9099 15.1919C49.9103 15.1022 49.9172 15.0136 49.9307 14.9261C49.9315 14.9207 49.9308 14.9152 49.9288 14.9102C49.9268 14.9052 49.9235 14.9008 49.9193 14.8976C49.915 14.8944 49.91 14.8925 49.9048 14.8921C49.8996 14.8917 49.8944 14.8928 49.8897 14.8953ZM48.1222 14.206C48.6303 14.2033 49.1165 13.9667 49.4737 13.5485C49.8309 13.1302 50.0299 12.5645 50.027 11.9758C50.0255 11.6843 49.9745 11.3959 49.8769 11.1271C49.7792 10.8583 49.6369 10.6143 49.4579 10.4092C49.279 10.204 49.0669 10.0417 48.8339 9.93137C48.6009 9.82108 48.3515 9.76502 48.0999 9.7664C47.5917 9.76917 47.1056 10.0057 46.7484 10.424C46.3912 10.8422 46.1921 11.4079 46.1951 11.9967C46.1965 12.2882 46.2476 12.5766 46.3452 12.8454C46.4428 13.1142 46.5852 13.3581 46.7641 13.5633C46.9431 13.7684 47.1551 13.9308 47.3881 14.0411C47.6211 14.1514 47.8706 14.2074 48.1222 14.206Z" fill="black"/>
<path d="M56.636 13.2298C56.7323 13.3617 56.8733 13.579 57.0024 13.6978C57.8083 14.4336 58.9108 14.3371 59.6802 13.5816C59.7176 13.5453 59.8211 13.4145 59.9906 13.1891C60.0024 13.1742 60.0158 13.172 60.0309 13.1825L61.2027 13.9984C61.2308 14.0181 61.235 14.0422 61.2153 14.0706C60.687 14.8399 59.8836 15.4589 58.9996 15.6197C57.5697 15.8796 56.1751 15.3827 55.3446 14.112C54.8488 13.3523 54.6587 12.4553 54.7741 11.4208C54.9725 9.64863 56.3104 8.31029 58.0237 8.28666C59.7413 8.26303 60.7777 9.46091 61.2877 11.05C61.29 11.0573 61.2896 11.0653 61.2866 11.0723C61.2835 11.0792 61.2781 11.0846 61.2713 11.0874L56.6769 13.0716C56.5975 13.1058 56.5839 13.1585 56.636 13.2298ZM56.3048 11.7786C56.3031 11.8228 56.3216 11.8363 56.3602 11.8193L59.4082 10.5039C59.4134 10.5016 59.4181 10.4981 59.4219 10.4937C59.4256 10.4894 59.4284 10.4842 59.4301 10.4785C59.4317 10.4729 59.4321 10.4669 59.4313 10.4611C59.4304 10.4553 59.4284 10.4497 59.4252 10.4448C59.3144 10.2698 59.1872 10.1289 59.0437 10.0221C58.5362 9.64601 57.7775 9.6657 57.2668 10.0188C57.023 10.1877 56.8355 10.3593 56.7046 10.5334C56.4569 10.8625 56.3237 11.2775 56.3048 11.7786Z" fill="black"/>
<path d="M80.0492 14.6305C79.8019 15.0528 79.4359 15.3491 78.9511 15.5193C77.3065 16.0969 75.3017 15.1491 75.5391 13.069C75.7746 11.0001 78.3574 10.6569 79.8508 11.2128C79.8983 11.2303 79.9778 11.2747 80.0895 11.3461C80.0979 11.3515 80.1074 11.3547 80.1173 11.3553C80.1271 11.356 80.137 11.3541 80.146 11.3498C80.1549 11.3455 80.1628 11.3389 80.1687 11.3307C80.1747 11.3225 80.1786 11.3129 80.1801 11.3027C80.1906 11.2358 80.1908 11.1575 80.1808 11.0677C80.1258 10.5698 79.9058 10.1799 79.5209 9.89809C78.732 9.32049 77.3424 9.51674 76.9476 10.5262C76.9342 10.5608 76.9109 10.5707 76.8777 10.5558L75.7828 10.0615C75.7635 10.0528 75.7584 10.0386 75.7677 10.0189C75.9851 9.55984 76.2909 9.18155 76.685 8.884C77.3462 8.38515 78.1722 8.3228 78.9587 8.4055C80.0215 8.51774 81.0119 9.26207 81.2795 10.3733C81.3504 10.6674 81.3874 10.9518 81.3903 11.2266C81.4004 12.2063 81.4012 13.6119 81.3928 15.4431C81.3928 15.4468 81.3921 15.4503 81.3908 15.4537C81.3895 15.457 81.3875 15.4601 81.3851 15.4626C81.3826 15.4652 81.3797 15.4672 81.3765 15.4686C81.3733 15.47 81.3698 15.4707 81.3664 15.4707H80.2337C80.2268 15.4707 80.22 15.4693 80.2137 15.4666C80.2073 15.4638 80.2016 15.4598 80.1967 15.4547C80.1919 15.4497 80.188 15.4437 80.1854 15.4371C80.1828 15.4305 80.1814 15.4234 80.1814 15.4162V14.6693C80.1814 14.4934 80.1373 14.4805 80.0492 14.6305ZM79.0235 14.2663C79.5946 13.9742 80.0895 13.3907 80.1676 12.708C80.1757 12.6385 80.2047 12.5177 80.1361 12.4711C79.7977 12.24 79.4168 12.1134 78.9933 12.091C78.6508 12.0735 78.4159 12.0724 78.2887 12.0878C77.6377 12.1665 77.1088 12.4376 76.8796 13.1163C76.7417 13.5239 76.9438 13.9958 77.2864 14.2065C77.8463 14.5518 78.4254 14.5717 79.0235 14.2663Z" fill="black"/>
<path d="M83.8359 14.6267C83.7712 14.5318 83.7404 14.5425 83.7433 14.6589C83.7502 14.9044 83.7924 15.1604 83.7918 15.4334C83.7914 16.8079 83.7907 17.8147 83.7899 18.454C83.7899 18.4615 83.787 18.4687 83.782 18.474C83.7769 18.4793 83.77 18.4823 83.7628 18.4823H82.6112C82.594 18.4823 82.5775 18.4751 82.5654 18.4625C82.5532 18.4498 82.5464 18.4326 82.5464 18.4147V8.62486C82.5464 8.60298 82.5569 8.59204 82.5778 8.59204H83.6929C83.7164 8.59204 83.7282 8.60429 83.7282 8.6288C83.7265 9.02174 83.7244 9.24994 83.7219 9.31339C83.7185 9.40004 83.7294 9.46611 83.7546 9.51162C83.7685 9.53612 83.7821 9.53612 83.7956 9.51162C84.1771 8.81586 85.0208 8.43517 85.76 8.37937C85.8238 8.37456 85.9781 8.37675 86.2228 8.38594C86.6969 8.40366 87.1842 8.56578 87.5538 8.82374C88.8263 9.71378 89.3061 11.1388 89.099 12.6963C88.994 13.4831 88.6681 14.166 88.1211 14.7449C87.4655 15.4393 86.6658 15.7483 85.7222 15.6717C85.0089 15.6139 84.2508 15.2352 83.8359 14.6267ZM85.8025 14.4882C86.3564 14.4892 86.888 14.2307 87.2805 13.7696C87.6729 13.3085 87.894 12.6825 87.8951 12.0293C87.8962 11.3762 87.6772 10.7494 87.2863 10.2868C86.8954 9.82426 86.3646 9.56383 85.8107 9.56282C85.2568 9.56181 84.7252 9.82031 84.3327 10.2814C83.9403 10.7426 83.7192 11.3686 83.7181 12.0217C83.717 12.6749 83.936 13.3017 84.3269 13.7642C84.7178 14.2268 85.2486 14.4872 85.8025 14.4882Z" fill="black"/>
<path d="M92.8488 14.4557C93.9167 14.2207 94.0388 12.9999 92.9225 12.7058C92.0091 12.466 91.5136 12.3352 91.4359 12.3133C91.0418 12.2035 90.6759 12.0099 90.3385 11.7324C89.9588 11.4207 89.7598 11.0268 89.7384 10.5306C89.7038 9.71474 90.0967 9.15945 90.7603 8.76759C91.1629 8.52999 91.6112 8.40221 92.1052 8.38427C92.6297 8.36524 93.0679 8.39083 93.6082 8.62057C94.1904 8.8678 94.613 9.29401 94.8762 9.89918C94.881 9.91009 94.8835 9.92188 94.8837 9.93385C94.884 9.94582 94.8819 9.95773 94.8776 9.96887C94.8733 9.98002 94.8669 9.99016 94.8588 9.99871C94.8506 10.0073 94.841 10.014 94.8303 10.0186L93.8455 10.444C93.8344 10.4488 93.822 10.449 93.8109 10.4446C93.7998 10.4402 93.7907 10.4315 93.7857 10.4203C93.5924 10.0055 93.2965 9.73115 92.8564 9.61497C92.3168 9.47188 91.6506 9.52767 91.2263 9.92281C90.8516 10.2707 91.0512 10.8608 91.4693 11.036C92.0555 11.2822 92.8614 11.4069 93.4111 11.5651C94.3908 11.846 95.0815 12.6008 94.9921 13.7166C94.9071 14.776 94.008 15.4593 93.0339 15.6306C92.1896 15.779 91.2168 15.651 90.5261 15.0826C90.0879 14.7216 89.7521 14.2746 89.5187 13.7416C89.5165 13.7367 89.5154 13.7313 89.5152 13.7259C89.5151 13.7205 89.5161 13.7151 89.518 13.71C89.5199 13.705 89.5228 13.7004 89.5265 13.6966C89.5302 13.6928 89.5346 13.6898 89.5395 13.6878L90.6124 13.2244C90.6325 13.2156 90.647 13.2215 90.6558 13.2421C90.8806 13.7436 91.1727 14.1374 91.6733 14.354C92.0414 14.5128 92.4333 14.5467 92.8488 14.4557Z" fill="black"/>
</svg>
