<svg width="81" height="28" viewBox="0 0 81 28" fill="none" xmlns="http://www.w3.org/2000/svg">
<path fill-rule="evenodd" clip-rule="evenodd" d="M8.10421 27.7506C11.8223 27.7506 13.2014 26.1766 13.2014 23.0296V17.8113C13.2014 14.8705 12.1134 13.6269 10.0254 13.2547V13.0888C11.9476 12.6332 12.825 11.1009 12.825 8.57349V5.75689C12.825 2.27802 11.4049 0.248419 7.56101 0.248419H0V27.7501L8.10421 27.7506ZM9.48323 21.87C9.48323 23.6512 8.7316 24.5216 6.97573 24.5216H3.67603V14.8705H6.85045C8.7316 14.8705 9.48323 15.657 9.48323 17.5624V21.87ZM9.31483 8.94764C9.31483 11.0602 8.35526 11.7637 6.89306 11.7637H3.67603V3.4804H6.85045C8.7316 3.4804 9.31483 4.43233 9.31483 6.29547V8.94764ZM28.1971 7.16646C28.1971 2.6929 25.8154 0.000509551 21.6393 0.000509551C17.4632 0.000509551 15.0389 2.61043 15.0389 7.08298V21.0417C15.0389 25.5158 17.378 28 21.6819 28C25.9858 28 28.1976 25.723 28.1976 21.1242L28.1971 7.16646ZM24.5216 21.3314C24.5216 23.5264 23.4763 24.5634 21.6393 24.5634C19.8023 24.5634 18.757 23.444 18.757 21.2902V6.79332C18.757 4.64003 19.8008 3.47989 21.5967 3.47989C23.3926 3.47989 24.5216 4.68075 24.5216 6.83456V21.3314ZM44.4055 27.7506V0.248928H41.1043V13.3372C41.1043 15.1601 41.1469 17.3964 41.2301 20.0063H41.0642L35.257 0.248928H30.3272V27.7506H33.6269V12.2606C33.6269 10.4381 33.5859 8.49102 33.5017 6.46193H33.6696L40.0189 27.7506H44.4055ZM59.7786 8.36681V7.16595C59.7786 3.02378 58.3164 0 53.2614 0C48.6674 0 46.6625 2.52745 46.6625 6.17177V7.37263C46.6625 9.56767 47.4141 11.0175 48.7916 12.426C50.5043 14.083 52.635 15.1179 54.5572 16.6919C55.9347 17.7685 56.3542 18.4731 56.3542 20.1708V21.4134C56.3542 23.6089 55.2662 24.5629 53.3035 24.5629C51.0475 24.5629 50.0875 23.3605 50.0875 21.1232V19.5085H46.5367V21.083C46.5367 25.5973 48.5421 27.999 53.3866 27.999C58.2312 27.999 60.2792 25.6395 60.2792 21.3309V19.6332C60.2792 17.1062 59.5702 15.7807 58.2738 14.6633C56.7289 13.2955 53.8888 11.8045 52.0092 10.3547C50.7128 9.31925 50.3791 8.61472 50.3791 7.41386V6.33721C50.3791 4.72198 51.2986 3.47989 53.3029 3.47989C55.3073 3.47989 56.2705 4.76271 56.2705 6.79332V8.36681H59.7786ZM75.5681 27.7506L70.8488 0.248928H65.7932L61.0724 27.7506H64.7079L65.7106 21.2902H70.8062L71.8941 27.7506H75.5681ZM68.175 6.04756H68.3418L70.3056 18.1004H66.2112L68.175 6.04756ZM81 27.7506V0.248928H77.2408V27.7506H81Z" fill="#26211F"/>
</svg>
