<svg width="260" height="96" viewBox="0 0 260 96" fill="none" xmlns="http://www.w3.org/2000/svg">
<path fill-rule="evenodd" clip-rule="evenodd" d="M25.9135 92.1982C37.8023 92.1982 42.2118 87.139 42.2118 77.0237V60.2506C42.2118 50.798 38.7331 46.8006 32.0565 45.6045V45.0711C38.2028 43.6067 41.0084 38.6816 41.0084 30.5576V21.5043C41.0084 10.3222 36.4676 3.79849 24.1766 3.79849H0V92.1966L25.9135 92.1982ZM30.3229 73.2963C30.3229 79.0216 27.9196 81.8195 22.3051 81.8195H11.7542V50.798H21.9045C27.9195 50.798 30.3229 53.326 30.3229 59.4505V73.2963ZM29.7845 31.7603C29.7845 38.5507 26.7162 40.812 22.0408 40.812H11.7542V14.187H21.9045C27.9195 14.187 29.7845 17.2468 29.7845 23.2354V31.7603ZM90.1611 26.0351C90.1611 11.6557 82.5455 3.00164 69.1923 3.00164C55.8391 3.00164 48.0872 11.3907 48.0872 25.7667V70.6342C48.0872 85.0151 55.5666 93 69.3286 93C83.0905 93 90.1627 85.6811 90.1627 70.8993L90.1611 26.0351ZM78.4085 71.5652C78.4085 78.6207 75.0661 81.9537 69.1923 81.9537C63.3185 81.9537 59.9761 78.3556 59.9761 71.4327V24.8357C59.9761 17.9144 63.3135 14.1854 69.056 14.1854C74.7985 14.1854 78.4085 18.0453 78.4085 24.9682V71.5652ZM141.988 92.1982V3.80013H131.432V45.8696C131.432 51.729 131.568 58.917 131.834 67.306H131.304L112.735 3.80013H96.9723V92.1982H107.523V42.409C107.523 36.5512 107.392 30.2926 107.123 23.7705H107.659L127.962 92.1982H141.988ZM191.144 29.8933V26.0334C191.144 12.7193 186.469 3 170.305 3C155.615 3 149.205 11.124 149.205 22.8378V26.6977C149.205 33.7532 151.608 38.4132 156.013 42.9407C161.489 48.2667 168.302 51.5932 174.448 56.6525C178.853 60.1131 180.194 62.3777 180.194 67.8346V71.8286C180.194 78.8857 176.715 81.9521 170.439 81.9521C163.226 81.9521 160.156 78.0873 160.156 70.896V65.7058H148.803V70.7667C148.803 85.2769 155.215 92.9967 170.705 92.9967C186.196 92.9967 192.745 85.4127 192.745 71.5636V66.1067C192.745 57.9844 190.477 53.7236 186.332 50.132C181.393 45.7354 172.311 40.9429 166.301 36.2828C162.156 32.9547 161.089 30.6902 161.089 26.8303V23.3696C161.089 18.1778 164.029 14.1854 170.438 14.1854C176.847 14.1854 179.927 18.3087 179.927 24.8357V29.8933H191.144ZM241.631 92.1982L226.541 3.80013H210.376L195.281 92.1982H206.905L210.112 71.4327H226.405L229.884 92.1982H241.631ZM217.992 22.4386H218.525L224.804 61.18H211.712L217.992 22.4386ZM259 92.1982V3.80013H246.98V92.1982H259Z" fill="white"/>
</svg>
