<svg width="106" height="22" viewBox="0 0 106 22" fill="none" xmlns="http://www.w3.org/2000/svg">
<g clip-path="url(#clip0_828_11483)">
<path d="M11 22C17.0751 22 22 17.0751 22 11C22 4.92487 17.0751 0 11 0C4.92487 0 0 4.92487 0 11C0 17.0751 4.92487 22 11 22Z" fill="#CE2457"/>
<path fill-rule="evenodd" clip-rule="evenodd" d="M10.963 4.00009C7.62433 4.27357 5 7.07435 5 10.4891C5 14.085 7.91017 17 11.5 17C15.0898 17 18 14.085 18 10.4891C18 7.07395 15.3751 4.27295 12.0359 4L11.8607 8.27654C12.9251 8.44934 13.7377 9.37417 13.7377 10.4891C13.7377 11.7271 12.7358 12.7306 11.5 12.7306C10.2641 12.7306 9.26219 11.7271 9.26219 10.4891C9.26219 9.37451 10.0743 8.45001 11.1381 8.27675L10.963 4.00009Z" fill="white"/>
<path d="M11.5 4C12.3284 4 13 3.32843 13 2.5C13 1.67157 12.3284 1 11.5 1C10.6716 1 10 1.67157 10 2.5C10 3.32843 10.6716 4 11.5 4Z" fill="white"/>
<path d="M38 11C38 12.4607 37.4407 13.6404 36.3842 14.5956C35.3277 15.5506 34.0227 16 32.469 16C30.9153 16 29.6724 15.5506 28.5537 14.5956C27.5594 13.6404 27 12.4607 27 11C27 9.53931 27.5594 8.35956 28.6158 7.4045C29.6724 6.44944 30.9774 6 32.469 6C33.9605 6 35.3277 6.44944 36.3842 7.4045C37.4407 8.35956 38 9.53931 38 11ZM35.9492 11C35.9492 10.1573 35.6384 9.42696 34.9548 8.86515C34.3334 8.30335 33.4633 8.02245 32.469 8.02245C31.4746 8.02245 30.6667 8.30335 29.9831 8.86515C29.2995 9.42696 28.9887 10.1573 28.9887 11C28.9887 11.8427 29.2995 12.573 29.9831 13.1348C30.6045 13.6966 31.4746 13.9775 32.469 13.9775C33.4633 13.9775 34.3334 13.6966 34.9548 13.1348C35.6384 12.573 35.9492 11.8427 35.9492 11Z" fill="black"/>
<path d="M43.64 15H41.42V7.72219H38V6H47V7.72219H43.64V15Z" fill="black"/>
<path d="M52.9724 16C51.3586 16 50.0551 15.7647 49 15.2941V13.4118C50.1793 13.9412 51.4206 14.1765 52.662 14.1765C53.5931 14.1765 54.2759 14.0589 54.8345 13.8235C55.331 13.5882 55.6414 13.2353 55.6414 12.8235C55.6414 12 54.8966 11.647 53.3448 11.647H51.4206V9.94116H53.3448C54.6483 9.94116 55.269 9.58825 55.269 8.88238C55.269 8.11765 54.4 7.76467 52.7241 7.76467C51.6068 7.76467 50.4896 8.00001 49.3103 8.47062V6.64705C50.3655 6.23529 51.6689 6 53.2207 6C54.4621 6 55.5173 6.23529 56.3862 6.70588C57.1931 7.1765 57.6276 7.82352 57.6276 8.5294C57.6276 9.58825 57.069 10.2941 56.0138 10.647C57.3172 11.0588 58 11.8235 58 13C58 13.8824 57.5655 14.647 56.6345 15.1765C55.7035 15.7647 54.4621 16 52.9724 16Z" fill="black"/>
<path d="M70 11C70 12.4607 69.4439 13.6404 68.3934 14.5956C67.3428 15.5506 66.0451 16 64.5 16C62.9551 16 61.7191 15.5506 60.6067 14.5956C59.5562 13.6404 59 12.4607 59 11C59 9.53931 59.5562 8.35956 60.6067 7.4045C61.7191 6.44944 63.0169 6 64.5619 6C66.1068 6 67.4046 6.44944 68.4552 7.4045C69.4439 8.35956 70 9.53931 70 11ZM68.0226 11C68.0226 10.1573 67.7136 9.42696 67.0338 8.86515C66.4159 8.30335 65.5506 8.02245 64.5619 8.02245C63.5731 8.02245 62.7697 8.30335 62.0899 8.86515C61.4101 9.42696 61.1011 10.1573 61.1011 11C61.1011 11.8427 61.4101 12.573 62.0899 13.1348C62.7079 13.6966 63.5731 13.9775 64.5619 13.9775C65.5506 13.9775 66.4159 13.6966 67.0338 13.1348C67.6518 12.573 68.0226 11.8427 68.0226 11Z" fill="black"/>
<path d="M78.2181 15H72V6H77.8975C78.9231 6 79.7562 6.22222 80.3975 6.61114C81.0388 7.00002 81.295 7.61109 81.295 8.27775C81.295 8.72222 81.1669 9.1111 80.91 9.44446C80.6537 9.77776 80.3331 10.0555 79.8843 10.2222C81.295 10.5555 82 11.3333 82 12.5556C82 13.3333 81.6794 13.9444 80.9744 14.3889C80.3331 14.7777 79.4356 15 78.2181 15ZM74.3719 7.61109V9.61107H77.3206C77.8331 9.61107 78.2181 9.49997 78.5381 9.33336C78.795 9.16668 78.9868 8.8889 78.9868 8.61112C78.9868 7.94446 78.4744 7.61109 77.3843 7.61109H74.3719ZM74.3719 11.1667V13.3889H77.7694C78.3463 13.3889 78.7306 13.2777 79.0512 13.1111C79.3719 12.8889 79.5 12.6667 79.5 12.2778C79.5 11.9444 79.3719 11.6666 79.0512 11.4444C78.7306 11.2222 78.2818 11.1667 77.7694 11.1667H74.3719Z" fill="black"/>
<path d="M86.1473 15H84V6H86.2699V12.1111L91.8527 6H94V15H91.7301V8.8889L86.1473 15Z" fill="black"/>
<path d="M99 15H97V6H99V15Z" fill="black"/>
<path d="M101.612 10.3313L106 15H103.167L99 10.4437L102.889 6H105.611L101.612 10.3313Z" fill="black"/>
</g>
<defs>
<clipPath id="clip0_828_11483">
<rect width="106" height="22" fill="white"/>
</clipPath>
</defs>
</svg>
