<svg width="183" height="49" viewBox="0 0 183 49" fill="none" xmlns="http://www.w3.org/2000/svg">
<rect x="0.5" y="0.5" width="182" height="48" rx="9.5" fill="white"/>
<rect x="0.5" y="0.5" width="182" height="48" rx="9.5" stroke="#E3E4E7"/>
<path d="M20 13C20 11.3431 21.3431 10 23 10H46C47.6569 10 49 11.3431 49 13V24H20V13Z" fill="url(#paint0_linear_221_4621)"/>
<path d="M20 35C20 36.6569 21.3431 38 23 38H34.5V24H20V35Z" fill="url(#paint1_linear_221_4621)"/>
<path d="M34.5 38H46C47.6569 38 49 36.6569 49 35V24H34.5V38Z" fill="#28282A"/>
<path d="M60.1369 29.5V19.3182H64.2136C64.9627 19.3182 65.5874 19.4292 66.0879 19.6513C66.5884 19.8733 66.9645 20.1816 67.2164 20.576C67.4683 20.9671 67.5943 21.4179 67.5943 21.9283C67.5943 22.326 67.5147 22.6757 67.3556 22.9773C67.1966 23.2756 66.9778 23.5208 66.6994 23.7131C66.4243 23.902 66.1094 24.0362 65.7548 24.1158V24.2152C66.1426 24.2318 66.5055 24.3411 66.8436 24.5433C67.185 24.7455 67.4617 25.0289 67.6738 25.3935C67.8859 25.7547 67.992 26.1856 67.992 26.6861C67.992 27.2263 67.8578 27.7086 67.5893 28.1328C67.3242 28.5537 66.9314 28.8868 66.411 29.1321C65.8907 29.3774 65.2493 29.5 64.487 29.5H60.1369ZM62.2896 27.7401H64.0446C64.6445 27.7401 65.082 27.6257 65.3571 27.397C65.6322 27.165 65.7697 26.8568 65.7697 26.4723C65.7697 26.1906 65.7018 25.942 65.5659 25.7266C65.43 25.5111 65.2361 25.3421 64.9842 25.2195C64.7356 25.0968 64.439 25.0355 64.0943 25.0355H62.2896V27.7401ZM62.2896 23.5788H63.8855C64.1805 23.5788 64.4423 23.5275 64.671 23.4247C64.903 23.3187 65.0853 23.1695 65.2179 22.9773C65.3538 22.785 65.4217 22.5547 65.4217 22.2862C65.4217 21.9183 65.2908 21.6217 65.0289 21.3963C64.7704 21.1709 64.4025 21.0582 63.9252 21.0582H62.2896V23.5788ZM70.6804 24.2102H72.9624C73.9732 24.2102 74.7621 24.4522 75.3288 24.9361C75.8956 25.4167 76.179 26.0597 76.179 26.8651C76.179 27.3887 76.0514 27.8494 75.7962 28.2472C75.541 28.6416 75.1731 28.9498 74.6925 29.1719C74.2119 29.3906 73.6352 29.5 72.9624 29.5H69.353V21.8636H71.3764V27.8345H72.9624C73.317 27.8345 73.6087 27.745 73.8374 27.5661C74.0661 27.3871 74.1821 27.1584 74.1854 26.88C74.1821 26.585 74.0661 26.3447 73.8374 26.1591C73.6087 25.9702 73.317 25.8757 72.9624 25.8757H70.6804V24.2102ZM76.9993 29.5V21.8636H79.1172V29.5H76.9993ZM80.4173 27.3374H82.4705C82.4805 27.5893 82.5932 27.7881 82.8086 27.9339C83.024 28.0798 83.3024 28.1527 83.6438 28.1527C83.9885 28.1527 84.2785 28.0732 84.5138 27.9141C84.7492 27.7517 84.8668 27.5196 84.8668 27.218C84.8668 27.0324 84.8204 26.8717 84.7276 26.7358C84.6348 26.5966 84.5056 26.4872 84.3398 26.4077C84.1741 26.3281 83.9819 26.2884 83.7631 26.2884H82.6644V24.9013H83.7631C84.0913 24.9013 84.3432 24.825 84.5188 24.6726C84.6978 24.5201 84.7873 24.3295 84.7873 24.1009C84.7873 23.8423 84.6945 23.6352 84.5089 23.4794C84.3266 23.3203 84.0797 23.2408 83.7681 23.2408C83.4532 23.2408 83.1914 23.312 82.9826 23.4545C82.7771 23.5937 82.671 23.776 82.6644 24.0014H80.6211C80.6277 23.544 80.7653 23.148 81.0337 22.8132C81.3055 22.4785 81.6701 22.2199 82.1275 22.0376C82.5882 21.8554 83.1036 21.7642 83.6737 21.7642C84.2968 21.7642 84.8337 21.852 85.2844 22.0277C85.7385 22.2 86.0865 22.447 86.3285 22.7685C86.5737 23.09 86.6964 23.4728 86.6964 23.9169C86.6964 24.3213 86.5638 24.6593 86.2987 24.9311C86.0335 25.2029 85.6623 25.3968 85.185 25.5128V25.5923C85.4999 25.6122 85.7849 25.6967 86.0401 25.8459C86.2953 25.995 86.4992 26.2005 86.6516 26.4624C86.8041 26.7209 86.8803 27.0275 86.8803 27.3821C86.8803 27.8561 86.7411 28.2621 86.4627 28.6001C86.1876 28.9382 85.8065 29.1984 85.3192 29.3807C84.8353 29.5597 84.2802 29.6491 83.6538 29.6491C83.0439 29.6491 82.497 29.5613 82.0131 29.3857C81.5326 29.2067 81.1497 28.9448 80.8647 28.6001C80.583 28.2554 80.4338 27.8345 80.4173 27.3374ZM88.1792 29.5V21.8636H91.4355C92.3768 21.8636 93.1209 22.0426 93.6678 22.4006C94.2147 22.7585 94.4881 23.2673 94.4881 23.9268C94.4881 24.3411 94.334 24.6858 94.0257 24.9609C93.7175 25.236 93.29 25.4216 92.7431 25.5178C93.2005 25.5509 93.5899 25.6553 93.9114 25.831C94.2362 26.0033 94.4831 26.227 94.6522 26.5021C94.8245 26.7772 94.9107 27.0821 94.9107 27.4169C94.9107 27.8511 94.7947 28.224 94.5627 28.5355C94.334 28.8471 93.9976 29.0857 93.5534 29.2514C93.1126 29.4171 92.574 29.5 91.9377 29.5H88.1792ZM90.1529 27.9141H91.9377C92.2327 27.9141 92.463 27.8445 92.6287 27.7053C92.7978 27.5627 92.8823 27.3688 92.8823 27.1236C92.8823 26.8518 92.7978 26.638 92.6287 26.4822C92.463 26.3265 92.2327 26.2486 91.9377 26.2486H90.1529V27.9141ZM90.1529 25.0057H91.4803C91.6924 25.0057 91.873 24.9759 92.0222 24.9162C92.1747 24.8532 92.2907 24.7637 92.3702 24.6477C92.4531 24.5317 92.4945 24.3942 92.4945 24.2351C92.4945 23.9998 92.4 23.8158 92.2111 23.6832C92.0222 23.5507 91.7637 23.4844 91.4355 23.4844H90.1529V25.0057ZM98.4231 29.6442C97.9359 29.6442 97.5017 29.5597 97.1206 29.3906C96.7394 29.2183 96.4378 28.9647 96.2157 28.63C95.997 28.2919 95.8876 27.871 95.8876 27.3672C95.8876 26.9429 95.9655 26.5866 96.1213 26.2983C96.277 26.0099 96.4892 25.7779 96.7576 25.6023C97.0261 25.4266 97.331 25.294 97.6724 25.2045C98.0171 25.1151 98.3784 25.0521 98.7562 25.0156C99.2003 24.9692 99.5583 24.9261 99.8301 24.8864C100.102 24.8433 100.299 24.7803 100.422 24.6974C100.544 24.6146 100.606 24.492 100.606 24.3295V24.2997C100.606 23.9848 100.506 23.7412 100.307 23.5689C100.112 23.3965 99.8334 23.3104 99.4721 23.3104C99.091 23.3104 98.7877 23.3949 98.5623 23.5639C98.3369 23.7296 98.1878 23.9384 98.1149 24.1903L96.1561 24.0312C96.2555 23.5672 96.4511 23.1662 96.7427 22.8281C97.0344 22.4867 97.4106 22.2249 97.8713 22.0426C98.3353 21.857 98.8722 21.7642 99.4821 21.7642C99.9063 21.7642 100.312 21.8139 100.7 21.9134C101.091 22.0128 101.438 22.1669 101.739 22.3757C102.044 22.5845 102.284 22.853 102.46 23.1811C102.636 23.5059 102.724 23.8954 102.724 24.3494V29.5H100.715V28.4411H100.655C100.533 28.6797 100.369 28.8902 100.163 29.0724C99.9577 29.2514 99.7108 29.3923 99.4224 29.495C99.1341 29.5945 98.801 29.6442 98.4231 29.6442ZM99.0297 28.1825C99.3412 28.1825 99.6163 28.1212 99.8549 27.9986C100.094 27.8726 100.281 27.7036 100.417 27.4915C100.553 27.2794 100.621 27.0391 100.621 26.7706V25.9602C100.554 26.0033 100.463 26.0431 100.347 26.0795C100.234 26.1127 100.107 26.1442 99.9643 26.174C99.8218 26.2005 99.6793 26.2254 99.5368 26.2486C99.3942 26.2685 99.265 26.2867 99.149 26.3033C98.9004 26.3397 98.6833 26.3977 98.4977 26.4773C98.3121 26.5568 98.1679 26.6645 98.0652 26.8004C97.9624 26.933 97.911 27.0987 97.911 27.2976C97.911 27.5859 98.0154 27.8063 98.2243 27.9588C98.4364 28.108 98.7048 28.1825 99.0297 28.1825ZM103.6 23.5291V21.8636H110.52V23.5291H108.059V29.5H106.041V23.5291H103.6ZM113.132 24.2102H115.414C116.424 24.2102 117.213 24.4522 117.78 24.9361C118.347 25.4167 118.63 26.0597 118.63 26.8651C118.63 27.3887 118.503 27.8494 118.247 28.2472C117.992 28.6416 117.624 28.9498 117.144 29.1719C116.663 29.3906 116.086 29.5 115.414 29.5H111.804V21.8636H113.828V27.8345H115.414C115.768 27.8345 116.06 27.745 116.289 27.5661C116.517 27.3871 116.633 27.1584 116.637 26.88C116.633 26.585 116.517 26.3447 116.289 26.1591C116.06 25.9702 115.768 25.8757 115.414 25.8757H113.132V24.2102ZM122.877 23.5291V21.8636H129.798V23.5291H127.337V29.5H125.318V23.5291H122.877ZM132.986 29.6442C132.498 29.6442 132.064 29.5597 131.683 29.3906C131.302 29.2183 131 28.9647 130.778 28.63C130.559 28.2919 130.45 27.871 130.45 27.3672C130.45 26.9429 130.528 26.5866 130.684 26.2983C130.84 26.0099 131.052 25.7779 131.32 25.6023C131.589 25.4266 131.894 25.294 132.235 25.2045C132.58 25.1151 132.941 25.0521 133.319 25.0156C133.763 24.9692 134.121 24.9261 134.393 24.8864C134.664 24.8433 134.862 24.7803 134.984 24.6974C135.107 24.6146 135.168 24.492 135.168 24.3295V24.2997C135.168 23.9848 135.069 23.7412 134.87 23.5689C134.674 23.3965 134.396 23.3104 134.035 23.3104C133.653 23.3104 133.35 23.3949 133.125 23.5639C132.899 23.7296 132.75 23.9384 132.677 24.1903L130.719 24.0312C130.818 23.5672 131.014 23.1662 131.305 22.8281C131.597 22.4867 131.973 22.2249 132.434 22.0426C132.898 21.857 133.435 21.7642 134.045 21.7642C134.469 21.7642 134.875 21.8139 135.263 21.9134C135.654 22.0128 136 22.1669 136.302 22.3757C136.607 22.5845 136.847 22.853 137.023 23.1811C137.198 23.5059 137.286 23.8954 137.286 24.3494V29.5H135.278V28.4411H135.218C135.095 28.6797 134.931 28.8902 134.726 29.0724C134.52 29.2514 134.273 29.3923 133.985 29.495C133.697 29.5945 133.363 29.6442 132.986 29.6442ZM133.592 28.1825C133.904 28.1825 134.179 28.1212 134.417 27.9986C134.656 27.8726 134.843 27.7036 134.979 27.4915C135.115 27.2794 135.183 27.0391 135.183 26.7706V25.9602C135.117 26.0033 135.026 26.0431 134.91 26.0795C134.797 26.1127 134.669 26.1442 134.527 26.174C134.384 26.2005 134.242 26.2254 134.099 26.2486C133.957 26.2685 133.827 26.2867 133.711 26.3033C133.463 26.3397 133.246 26.3977 133.06 26.4773C132.875 26.5568 132.73 26.6645 132.628 26.8004C132.525 26.933 132.474 27.0987 132.474 27.2976C132.474 27.5859 132.578 27.8063 132.787 27.9588C132.999 28.108 133.267 28.1825 133.592 28.1825ZM138.929 29.5V21.8636H141.047V24.8267H141.644L143.722 21.8636H146.208L143.508 25.652L146.237 29.5H143.722L141.838 26.7905H141.047V29.5H138.929ZM150.268 29.6491C149.486 29.6491 148.813 29.4834 148.25 29.152C147.69 28.8172 147.259 28.3532 146.957 27.7599C146.659 27.1667 146.51 26.4839 146.51 25.7116C146.51 24.9295 146.66 24.2434 146.962 23.6534C147.267 23.0601 147.699 22.5978 148.26 22.2663C148.82 21.9316 149.486 21.7642 150.258 21.7642C150.924 21.7642 151.508 21.8852 152.008 22.1271C152.509 22.3691 152.905 22.7088 153.196 23.1463C153.488 23.5838 153.649 24.0975 153.679 24.6875H151.68C151.624 24.3063 151.475 23.9998 151.233 23.7678C150.994 23.5324 150.681 23.4148 150.293 23.4148C149.965 23.4148 149.678 23.5043 149.433 23.6832C149.191 23.8589 149.002 24.1158 148.866 24.4538C148.73 24.7919 148.662 25.2012 148.662 25.6818C148.662 26.169 148.729 26.5833 148.861 26.9247C148.997 27.2661 149.188 27.5263 149.433 27.7053C149.678 27.8842 149.965 27.9737 150.293 27.9737C150.535 27.9737 150.752 27.924 150.944 27.8246C151.14 27.7251 151.301 27.581 151.426 27.392C151.556 27.1998 151.64 26.9695 151.68 26.701H153.679C153.645 27.2843 153.486 27.7981 153.201 28.2422C152.92 28.683 152.53 29.0277 152.033 29.2763C151.536 29.5249 150.948 29.6491 150.268 29.6491ZM157.058 26.706L159.807 21.8636H161.895V29.5H159.877V24.6428L157.138 29.5H155.035V21.8636H157.058V26.706Z" fill="#373A41"/>
<path d="M165 0.5H173C178.523 0.5 183 4.97715 183 10.5V18.5H170C167.239 18.5 165 16.2614 165 13.5V0.5Z" fill="#A09B99"/>
<defs>
<linearGradient id="paint0_linear_221_4621" x1="34.5" y1="10" x2="32.9495" y2="23.9889" gradientUnits="userSpaceOnUse">
<stop stop-color="#FFD800"/>
<stop offset="1" stop-color="#FFAF00"/>
</linearGradient>
<linearGradient id="paint1_linear_221_4621" x1="27.25" y1="24" x2="27.25" y2="38" gradientUnits="userSpaceOnUse">
<stop stop-color="#F4F5F5"/>
<stop offset="1" stop-color="#D6DFDF"/>
</linearGradient>
</defs>
</svg>
