<svg width="122" height="33" viewBox="0 0 122 33" fill="none" xmlns="http://www.w3.org/2000/svg">
<path d="M10.1254 8.45184C8.03053 9.34435 7.50682 12.2946 7.50682 13.6581C7.63151 13.9066 7.8809 14.6265 7.8809 15.519C7.8809 16.6347 10.8735 19.6097 13.118 19.6097C15.3625 19.6097 18.3551 17.3784 18.7292 16.6347C19.1033 15.8909 19.1033 12.544 18.7292 11.0565C18.4299 9.86649 16.6094 8.5763 15.7366 8.07997C14.739 7.83205 12.2202 7.55933 10.1254 8.45184Z" fill="white"/>
<path d="M14.0502 33H12.5955C12.3459 31.518 11.7923 30.2309 10.9347 29.1386C9.27396 27.018 6.96249 25.3146 4.92738 23.5862C1.56234 20.7288 -0.079143 17.1638 0.00293122 12.8911C0.0766305 9.1179 1.56318 5.935 4.46257 3.3424C7.49429 0.629906 11.2136 -0.431613 15.6205 0.157842C16.5702 0.286057 17.5032 0.545817 18.4194 0.937122C21.7224 2.35248 24.1009 4.6387 25.5548 7.79579C26.8135 10.5308 27.1125 13.8802 26.2558 16.8674C25.5104 19.4617 24.0683 21.6721 21.9293 23.4988C19.9495 25.1922 17.8641 26.7658 16.1431 28.7339C15.113 29.9095 14.4153 31.3315 14.0502 33ZM18.3013 13.518C18.3013 12.1925 17.7716 10.9212 16.8288 9.98396C15.8859 9.04668 14.6072 8.52012 13.2738 8.52012C11.9405 8.52012 10.6617 9.04668 9.71887 9.98396C8.77604 10.9212 8.24636 12.1925 8.24636 13.518C8.24636 14.8435 8.77604 16.1147 9.71887 17.052C10.6617 17.9893 11.9405 18.5159 13.2738 18.5159C14.6072 18.5159 15.8859 17.9893 16.8288 17.052C17.7716 16.1147 18.3013 14.8435 18.3013 13.518Z" fill="#E85032"/>
<path d="M49.985 7.11899C46.8519 6.87421 43.8344 7.59605 44.1811 11.42C44.4324 14.1974 46.872 15.4463 49.0026 16.855C49.0847 16.9099 49.0981 16.9782 49.0428 17.0598L44.141 24.373C44.1015 24.4324 44.048 24.4813 43.985 24.5157C43.922 24.55 43.8513 24.5688 43.7792 24.5704L40.5029 24.6228C40.2583 24.6278 40.2047 24.5296 40.3421 24.3281L44.7289 17.8666C44.7481 17.838 44.7552 17.8031 44.7486 17.7694C44.742 17.7357 44.7223 17.706 44.6937 17.6867C41.9375 15.8309 40.3195 13.4781 40.7089 9.99383C40.9978 7.41871 42.6485 5.67282 45.0655 4.89854C46.1426 4.55552 47.3753 4.38651 48.7639 4.39151C50.4138 4.39817 52.0092 4.399 53.5502 4.394C53.5848 4.394 53.618 4.40742 53.6426 4.43131C53.6671 4.4552 53.6808 4.4876 53.6808 4.52139L53.6858 24.4655C53.6858 24.4973 53.6731 24.5278 53.6505 24.5502C53.6279 24.5727 53.5972 24.5854 53.5652 24.5854L50.3116 24.5779C50.2094 24.5779 50.1583 24.5271 50.1583 24.4255L50.1357 7.28383C50.1357 7.18226 50.0855 7.12731 49.985 7.11899Z" fill="white"/>
<path d="M88.3828 18.6646C88.4909 21.3946 90.0963 22.3512 92.6892 22.1239C94.056 22.0057 95.3441 21.5744 96.5534 20.8301C96.5569 20.8278 96.561 20.8265 96.5652 20.8263C96.5694 20.8262 96.5736 20.8272 96.5772 20.8293C96.5809 20.8313 96.5839 20.8344 96.5859 20.8381C96.5879 20.8418 96.5888 20.8459 96.5886 20.8501C96.6237 21.676 96.633 22.5643 96.6162 23.5151C96.6145 23.5551 96.5978 23.5859 96.566 23.6075C95.6414 24.232 94.4538 24.6233 93.0033 24.7815C90.727 25.0287 88.5084 24.6866 86.8577 23.2479C85.7623 22.2913 85.1543 20.7502 84.9382 19.339C84.388 15.7623 85.1141 11.0092 89.2069 9.94268C90.371 9.63796 91.5418 9.61631 92.7194 9.87774C96.7167 10.7644 96.8247 15.1404 96.7393 18.3674C96.7376 18.4656 96.6874 18.5139 96.5886 18.5123L88.5336 18.5073C88.4281 18.5073 88.3778 18.5597 88.3828 18.6646ZM88.516 15.9546L93.1691 15.9846C93.1867 15.9846 93.2035 15.9778 93.2162 15.9657C93.2288 15.9536 93.2363 15.9371 93.2369 15.9197L93.242 15.2253C93.2472 14.4775 93.0219 13.7587 92.6158 13.2271C92.2097 12.6955 91.6559 12.3945 91.0762 12.3904L90.6591 12.3854C90.372 12.3834 90.0872 12.4543 89.821 12.5942C89.5548 12.734 89.3123 12.9401 89.1074 13.2005C88.9026 13.461 88.7394 13.7708 88.6271 14.1122C88.5149 14.4536 88.4557 14.82 88.4532 15.1903L88.4482 15.8847C88.4478 15.8938 88.4493 15.9028 88.4526 15.9113C88.4558 15.9197 88.4608 15.9275 88.4671 15.934C88.4734 15.9405 88.481 15.9457 88.4894 15.9493C88.4978 15.9528 88.5069 15.9546 88.516 15.9546Z" fill="white"/>
<path d="M121.952 21.2474C121.984 21.2291 122 21.2391 122 21.2774L121.955 23.9649C121.955 23.9965 121.941 24.0198 121.915 24.0348C121.005 24.556 119.895 24.8341 118.586 24.8691C116.744 24.9165 114.875 24.5544 113.546 23.2955C111.711 21.5546 111.372 18.8696 111.51 16.3994C111.684 13.2148 113.357 10.5448 116.638 9.85544C118.076 9.55322 120.276 9.61815 121.804 10.3125C121.905 10.3591 121.956 10.4374 121.957 10.5473L121.985 13.1299C121.985 13.2315 121.94 13.2598 121.849 13.2148C119.244 11.911 115.91 11.7837 115.229 15.3828C114.939 16.9247 115 18.4 115.412 19.8087C116.317 22.8859 119.691 22.5062 121.952 21.2474Z" fill="white"/>
<path d="M102.585 17.6289V24.4376C102.585 24.478 102.568 24.5168 102.54 24.5453C102.511 24.5739 102.472 24.59 102.431 24.59L99.2682 24.6024C99.1693 24.6024 99.1199 24.5533 99.1199 24.4551V10.0884C99.1199 10.0034 99.1626 9.96097 99.2481 9.96097L102.436 9.97595C102.534 9.97595 102.582 10.0242 102.582 10.1208L102.585 16.5249C102.585 16.6664 102.627 16.6798 102.71 16.5649L107.331 10.1908C107.455 10.0192 107.623 9.93433 107.836 9.93599L110.798 9.95847C110.935 9.96013 110.964 10.0159 110.883 10.1258L106.233 16.5049C106.187 16.5685 106.162 16.6444 106.162 16.7223C106.161 16.8001 106.185 16.876 106.23 16.9395L111.597 24.4875C111.604 24.4977 111.608 24.5096 111.609 24.5218C111.61 24.5341 111.607 24.5463 111.602 24.5571C111.596 24.5679 111.588 24.5769 111.578 24.5831C111.568 24.5894 111.556 24.5926 111.544 24.5924L107.826 24.6024C107.772 24.6024 107.73 24.5808 107.7 24.5375L102.708 17.5889C102.626 17.474 102.585 17.4873 102.585 17.6289Z" fill="white"/>
<path d="M60.2555 15.7647H64.6046C64.6419 15.7647 64.6777 15.7497 64.7041 15.723C64.7305 15.6963 64.7453 15.6601 64.7453 15.6223L64.7629 10.1524C64.7629 10.0242 64.8274 9.96008 64.9563 9.96008L68.0442 9.97256C68.1631 9.97256 68.2225 10.0308 68.2225 10.1474L68.22 24.4367C68.22 24.5483 68.1631 24.604 68.0492 24.604L64.8609 24.5841C64.8293 24.5834 64.7993 24.5708 64.7772 24.5488C64.7551 24.5269 64.7428 24.4974 64.7428 24.4667L64.7503 18.6271C64.7503 18.5814 64.732 18.5375 64.6995 18.5052C64.667 18.4729 64.6229 18.4547 64.5769 18.4547H60.1902C60.1081 18.4547 60.0671 18.4947 60.0671 18.5746L60.0696 24.4492C60.0696 24.5391 60.0243 24.5832 59.9339 24.5816L56.8234 24.5741C56.6493 24.5741 56.563 24.4875 56.5647 24.3143C56.6166 20.1915 56.6141 16.176 56.5571 12.2679C56.5487 11.6185 56.5535 10.128 56.5535 10.128C56.5602 10.0281 56.6878 9.96257 56.7883 9.96257L59.9414 9.95758C59.9747 9.95758 60.0067 9.971 60.0303 9.99489C60.0538 10.0188 60.0671 10.0512 60.0671 10.085V15.5799C60.0671 15.7031 60.1299 15.7647 60.2555 15.7647Z" fill="white"/>
<path d="M72.892 24.7068L72.9221 27.7515C72.9224 27.7727 72.9185 27.7938 72.9106 27.8134C72.9027 27.8331 72.8909 27.851 72.8759 27.8662C72.8609 27.8813 72.8431 27.8933 72.8234 27.9015C72.8038 27.9096 72.7826 27.9139 72.7613 27.9139L69.8418 27.9014C69.7246 27.9014 69.6668 27.8431 69.6685 27.7265L69.7187 22.0093C69.7187 21.9111 69.769 21.8603 69.8695 21.857L70.6885 21.8345C70.7639 21.8328 70.8158 21.797 70.8443 21.7271C72.2186 18.4451 72.2689 13.8593 72.2412 10.0604C72.2412 10.0378 72.2502 10.0162 72.2662 10.0003C72.2823 9.98438 72.304 9.97543 72.3267 9.97543L82.2258 9.97793C82.2651 9.97793 82.3028 9.99372 82.3306 10.0218C82.3584 10.0499 82.374 10.088 82.374 10.1278L82.3791 21.6821C82.3791 21.7036 82.3833 21.725 82.3916 21.7448C82.3998 21.7647 82.4119 21.7827 82.4271 21.7978C82.4423 21.8129 82.4603 21.8248 82.4801 21.8328C82.4999 21.8408 82.521 21.8448 82.5424 21.8445L83.7911 21.842C83.8899 21.8403 83.9393 21.8886 83.9393 21.9868V27.759C83.9393 27.8472 83.8949 27.8914 83.8062 27.8914L80.8615 27.9039C80.761 27.9039 80.7108 27.8539 80.7108 27.754L80.7133 24.6968C80.7133 24.684 80.7107 24.6714 80.7056 24.6596C80.7006 24.6477 80.6932 24.637 80.6839 24.628C80.6745 24.6189 80.6635 24.6117 80.6513 24.6068C80.6391 24.6019 80.626 24.5994 80.6128 24.5994H72.9975C72.9834 24.5994 72.9695 24.6022 72.9565 24.6076C72.9435 24.6131 72.9318 24.621 72.922 24.631C72.9121 24.641 72.9044 24.6529 72.8993 24.6659C72.8941 24.6789 72.8916 24.6928 72.892 24.7068ZM75.2034 12.8253C75.2085 15.9599 74.9999 18.8572 74.0477 21.6996C74.0142 21.7962 74.0485 21.8445 74.1507 21.8445L78.7787 21.842C78.8691 21.842 78.9144 21.797 78.9144 21.7071V12.8203C78.9144 12.7287 78.8691 12.6829 78.7787 12.6829L75.3391 12.6929C75.2487 12.6929 75.2034 12.737 75.2034 12.8253Z" fill="white"/>
</svg>
