<svg width="126" height="20" viewBox="0 0 126 20" fill="none" xmlns="http://www.w3.org/2000/svg">
<g clip-path="url(#clip0_347_7734)">
<path d="M27.4747 16.2381H29.7693V3H26.4311C23.0693 3 21.3083 4.73214 21.3083 7.28571C21.3083 9.32143 22.2748 10.5238 24.0002 11.7619L21 16.2381H23.4903L26.8284 11.2262L25.6722 10.4464C24.267 9.49405 23.5851 8.75 23.5851 7.14881C23.5851 5.7381 24.5694 4.78571 26.4489 4.78571H27.4747V16.2381ZM71.7361 16.4286C72.7796 16.4286 73.5208 16.2381 74.0722 15.8333V13.9881C73.503 14.3869 72.8211 14.6369 71.8724 14.6369C70.2597 14.6369 69.5956 13.381 69.5956 11.3988C69.5956 9.32143 70.4079 8.25595 71.8902 8.25595C72.7618 8.25595 73.6156 8.55952 74.0722 8.84524V6.92262C73.5978 6.65476 72.7618 6.46429 71.6412 6.46429C68.7596 6.46429 67.2595 8.54167 67.2595 11.4524C67.2595 14.6548 68.7181 16.4286 71.7361 16.4286ZM57.6187 15.5893V13.7381C56.919 14.2143 55.745 14.6369 54.6422 14.6369C52.9939 14.6369 52.3654 13.8571 52.2705 12.256H57.7135V11.0536C57.7135 7.72024 56.255 6.46429 53.9959 6.46429C51.2448 6.46429 49.9344 8.57738 49.9344 11.4762C49.9344 14.8095 51.5709 16.4286 54.4525 16.4286C55.8933 16.4286 56.9546 16.0476 57.6187 15.5893ZM64.8286 16.2381H67.39L63.7672 11.1488L66.9571 6.65476H64.6803L61.4904 11.1488V6.65476H59.2314V16.2381H61.4904V11.6071L64.8286 16.2381ZM49.389 14.4464H48.381V6.65476H41.7996V7.47619C41.7996 9.81548 41.6454 12.8452 40.8509 14.4464H40.1454V18.4286H42.2324V16.2381H47.3019V18.4286H49.389V14.4464ZM36.9377 6.65476V10.4464H33.9256V6.65476H31.6666V16.2381H33.9256V12.2381H36.9377V16.2381H39.1967V6.65476H36.9377ZM53.9604 8.25595C55.081 8.25595 55.4189 9.19048 55.4189 10.3869V10.5774H52.2705C52.3298 9.05357 52.8753 8.25595 53.9604 8.25595ZM46.122 14.4464H42.938C43.5606 13 43.7325 10.3869 43.7325 8.73214V8.44643H46.122V14.4464ZM85.8535 16.2381H88.5275L83.8435 9.28571L88.0947 3H85.7586L81.6793 9.09524V3H79.3847V16.2381H81.6793V10.0238L85.8535 16.2381ZM96.2295 9.70238C96.2295 7.38095 95.0556 6.5 92.6661 6.5C91.166 6.5 89.992 6.97619 89.3043 7.38095V9.2619C89.915 8.80952 91.2431 8.30952 92.3993 8.30952C93.4784 8.30952 93.9765 8.69048 93.9765 9.72024V10.256H93.6148C90.1581 10.256 88.6224 11.3988 88.6224 13.3393C88.6224 15.2857 89.8023 16.369 91.5455 16.369C92.8736 16.369 93.4428 15.9286 93.8816 15.4762H93.9765C93.9942 15.7202 94.0713 16.0476 94.1425 16.2381H96.3481C96.2711 15.4524 96.2295 14.6726 96.2295 13.8929V9.70238ZM93.9765 13.9524C93.6918 14.369 93.1582 14.7143 92.3637 14.7143C91.415 14.7143 90.9407 14.1786 90.9407 13.3571C90.9407 12.2738 91.7174 11.875 93.6504 11.875H93.9765V13.9524ZM100.143 6.65476H98.0557V19H100.309V15.1131C100.878 15.9702 101.714 16.4286 102.68 16.4286C104.886 16.4286 106.404 14.6548 106.404 11.4345C106.404 8.2381 104.922 6.46429 102.799 6.46429C101.732 6.46429 100.86 6.95833 100.255 7.89286L100.143 6.65476ZM102.111 14.6369C100.92 14.6369 100.309 13.6667 100.309 11.4524C100.309 9.22619 100.955 8.25595 102.23 8.25595C103.463 8.25595 104.068 9.22619 104.068 11.4345C104.068 13.6667 103.422 14.6369 102.111 14.6369ZM114.349 8.44643V6.65476H106.783V8.44643H109.44V16.2381H111.693V8.44643H114.349ZM115.677 6.65476V16.2381H119.116C121.334 16.2381 122.911 15.0952 122.911 12.8452C122.911 10.7143 121.506 9.58929 119.152 9.58929H117.936V6.65476H115.677ZM123.741 6.65476V16.2381H126V6.65476H123.741ZM118.98 14.4464H117.936V11.381H119.039C120.006 11.381 120.575 11.8155 120.575 12.9226C120.575 14.0238 119.946 14.4464 118.98 14.4464Z" fill="white"/>
<path fill-rule="evenodd" clip-rule="evenodd" d="M7.26244e-06 7.99964C7.26244e-06 3.58174 3.58178 0 8.0003 0C12.4182 0 16 3.58174 16 7.99964C16 10.2086 15.105 12.2078 13.6585 13.6554C13.2805 14.0334 12.7689 14.4553 12.2156 14.9123C10.649 16.2049 8.74791 17.7738 8.59994 19.3998C8.57022 19.7296 8.33132 20 7.99971 20C7.66869 20 7.42979 19.7296 7.40007 19.3998C7.25209 17.7738 5.35097 16.2049 3.78443 14.9123C3.23174 14.4553 2.72006 14.0334 2.34209 13.6554C0.840024 12.1568 -0.00285429 10.1214 7.26244e-06 7.99964ZM10.8006 8.00024C10.8231 9.54662 9.58777 10.8185 8.04138 10.841C6.495 10.8635 5.22314 9.62819 5.20061 8.08181C5.20022 8.05462 5.20022 8.02743 5.20061 8.00024C5.22314 6.45386 6.495 5.21853 8.04138 5.24106C9.55602 5.26312 10.7785 6.48562 10.8006 8.00024Z" fill="#FF4433"/>
<path d="M10.9962 8C10.9962 9.65685 9.65356 11 7.99727 11C6.34098 11 4.99829 9.65685 4.99829 8C4.99829 6.34315 6.34098 5 7.99727 5C9.65356 5 10.9962 6.34315 10.9962 8Z" fill="white"/>
</g>
<defs>
<clipPath id="clip0_347_7734">
<rect width="126" height="20" fill="white"/>
</clipPath>
</defs>
</svg>
