<svg width="105" height="17" viewBox="0 0 105 17" fill="none" xmlns="http://www.w3.org/2000/svg">
<g clip-path="url(#clip0_828_11463)">
<path d="M5.36585 4.31315C4.27317 4.76804 4 6.27169 4 6.96666C4.06504 7.09327 4.19512 7.46022 4.19512 7.9151C4.19512 8.48371 5.7561 10 6.92683 10C8.09756 10 9.65854 8.86278 9.85366 8.48371C10.0488 8.10464 10.0488 6.39882 9.85366 5.64067C9.69756 5.03416 8.74797 4.37659 8.29268 4.12362C7.77236 3.99726 6.45854 3.85827 5.36585 4.31315Z" fill="white"/>
<path d="M7.3554 17H6.59384C6.46318 16.2366 6.17338 15.5735 5.72442 15.0108C4.85501 13.9184 3.64493 13.0409 2.57953 12.1505C0.8179 10.6785 -0.0414321 8.84196 0.00153452 6.64086C0.0401168 4.6971 0.818338 3.05743 2.3362 1.72184C3.92333 0.324497 5.87042 -0.222346 8.17746 0.0813126C8.67465 0.147363 9.16306 0.281178 9.64271 0.48276C11.3719 1.21188 12.6171 2.38963 13.3782 4.01601C14.0371 5.42494 14.1937 7.15039 13.7451 8.68927C13.3549 10.0257 12.6 11.1644 11.4802 12.1054C10.4437 12.9778 9.35203 13.7884 8.45105 14.8023C7.91177 15.4079 7.54656 16.1405 7.3554 17ZM9.58089 6.96382C9.58089 6.28097 9.3036 5.6261 8.81002 5.14325C8.31644 4.66041 7.647 4.38915 6.94897 4.38915C6.25094 4.38915 5.5815 4.66041 5.08792 5.14325C4.59434 5.6261 4.31705 6.28097 4.31705 6.96382C4.31705 7.64666 4.59434 8.30154 5.08792 8.78438C5.5815 9.26723 6.25094 9.53849 6.94897 9.53849C7.647 9.53849 8.31644 9.26723 8.81002 8.78438C9.3036 8.30154 9.58089 7.64666 9.58089 6.96382Z" fill="#E85032"/>
<path d="M26.0693 3.34818C24.4348 3.2272 22.8606 3.58398 23.0415 5.47408C23.1725 6.8469 24.4453 7.46417 25.5568 8.16046C25.5996 8.18762 25.6066 8.22136 25.5778 8.26169L23.0205 11.8765C22.9999 11.9058 22.972 11.93 22.9391 11.947C22.9063 11.9639 22.8694 11.9732 22.8317 11.974L21.1225 11.9999C20.995 12.0024 20.967 11.9538 21.0387 11.8542L23.3272 8.66045C23.3372 8.64636 23.3409 8.6291 23.3375 8.61244C23.3341 8.59579 23.3238 8.58109 23.3089 8.57156C21.871 7.65429 21.0269 6.49135 21.23 4.76915C21.3808 3.49633 22.2419 2.63338 23.5028 2.25067C24.0647 2.08112 24.7079 1.99758 25.4323 2.00005C26.293 2.00335 27.1253 2.00376 27.9292 2.00129C27.9473 2.00129 27.9646 2.00792 27.9774 2.01973C27.9902 2.03154 27.9974 2.04755 27.9974 2.06425L28 11.9221C28 11.9378 27.9934 11.9529 27.9816 11.964C27.9698 11.9751 27.9538 11.9814 27.9371 11.9814L26.2397 11.9777C26.1864 11.9777 26.1597 11.9526 26.1597 11.9024L26.1479 3.42966C26.1479 3.37946 26.1217 3.3523 26.0693 3.34818Z" fill="black"/>
<path d="M69.7556 7.40982L69.7669 11.953C69.7669 11.9645 69.7622 11.9755 69.754 11.9836C69.7458 11.9917 69.7346 11.9963 69.7229 11.9963L68.0439 11.9864C68.0323 11.9864 68.0211 11.9818 68.0129 11.9737C68.0046 11.9656 68 11.9546 68 11.9431L68.0025 2.04327C68.0025 2.03179 68.0071 2.02079 68.0154 2.01267C68.0236 2.00456 68.0348 2 68.0464 2L69.7267 2.00124C69.7383 2.00124 69.7495 2.0058 69.7577 2.01391C69.766 2.02203 69.7706 2.03303 69.7706 2.04451L69.7543 6.4851C69.7539 6.49452 69.7566 6.5038 69.7621 6.51155C69.7675 6.51929 69.7754 6.52507 69.7845 6.52801C69.7936 6.53094 69.8034 6.53088 69.8124 6.52782C69.8215 6.52476 69.8293 6.51888 69.8346 6.51106L73.032 2.01978C73.036 2.01418 73.0412 2.00958 73.0473 2.00636C73.0534 2.00313 73.0602 2.00138 73.0672 2.00124L74.7186 2C74.7266 1.99994 74.7345 2.00206 74.7414 2.00613C74.7484 2.0102 74.754 2.01607 74.7578 2.02309C74.7615 2.03011 74.7632 2.03801 74.7627 2.04593C74.7622 2.05385 74.7596 2.06148 74.755 2.068L71.4283 6.69527C71.4232 6.70252 71.4204 6.71115 71.4204 6.71999C71.4204 6.72883 71.4232 6.73746 71.4283 6.74471L74.9921 11.9295C74.9967 11.936 74.9994 11.9437 74.9999 11.9516C75.0004 11.9595 74.9987 11.9674 74.9949 11.9744C74.9912 11.9815 74.9855 11.9873 74.9786 11.9914C74.9717 11.9955 74.9638 11.9976 74.9557 11.9975L73.0107 12C73.0035 12.0001 72.9965 11.9984 72.9902 11.9952C72.9838 11.9919 72.9784 11.9872 72.9743 11.9815L69.8359 7.38633C69.8306 7.3787 69.8231 7.37292 69.8143 7.36981C69.8055 7.36671 69.7959 7.36645 69.787 7.36906C69.778 7.37168 69.7701 7.37705 69.7645 7.38437C69.7588 7.3917 69.7557 7.40061 69.7556 7.40982Z" fill="black"/>
<path d="M45.8061 9.73291C45.8602 11.1737 46.6644 11.6785 47.9632 11.5586C48.6478 11.4962 49.293 11.2686 49.8987 10.8758C49.9005 10.8745 49.9025 10.8738 49.9046 10.8738C49.9067 10.8737 49.9088 10.8742 49.9107 10.8753C49.9125 10.8764 49.914 10.878 49.915 10.88C49.916 10.8819 49.9165 10.8841 49.9163 10.8863C49.934 11.3222 49.9386 11.791 49.9302 12.2928C49.9294 12.3139 49.921 12.3302 49.905 12.3416C49.4419 12.6711 48.847 12.8776 48.1205 12.9611C46.9803 13.0916 45.869 12.911 45.0422 12.1518C44.4935 11.6469 44.1889 10.8336 44.0807 10.0888C43.8051 8.20119 44.1688 5.6927 46.2189 5.12984C46.802 4.96902 47.3885 4.95759 47.9783 5.09556C49.9805 5.56352 50.0346 7.87296 49.9919 9.57605C49.991 9.6279 49.9658 9.65338 49.9163 9.6525L45.8816 9.64987C45.8288 9.64987 45.8036 9.67755 45.8061 9.73291ZM45.8728 8.30269L48.2035 8.31851C48.2123 8.31851 48.2208 8.31494 48.2271 8.30855C48.2335 8.30216 48.2372 8.29344 48.2375 8.28423L48.24 7.91778C48.2426 7.52313 48.1298 7.1438 47.9264 6.86323C47.723 6.58266 47.4456 6.42382 47.1552 6.42165L46.9463 6.41901C46.8025 6.41793 46.6598 6.45536 46.5265 6.52918C46.3931 6.60299 46.2717 6.71173 46.1691 6.84919C46.0664 6.98666 45.9847 7.15015 45.9285 7.33034C45.8722 7.51052 45.8426 7.70386 45.8413 7.89933L45.8388 8.26578C45.8387 8.27056 45.8394 8.27533 45.841 8.27981C45.8427 8.28428 45.8451 8.28836 45.8483 8.2918C45.8515 8.29525 45.8553 8.29799 45.8595 8.29986C45.8637 8.30173 45.8682 8.30269 45.8728 8.30269Z" fill="black"/>
<path d="M62.9773 11.0904C62.9924 11.0807 63 11.086 63 11.1062L62.9785 12.5217C62.9785 12.5383 62.9721 12.5506 62.9594 12.5585C62.527 12.833 61.9994 12.9795 61.3767 12.9979C60.5012 13.0229 59.6125 12.8321 58.9806 12.1691C58.1086 11.2522 57.9474 9.838 58.0131 8.53695C58.0955 6.85967 58.891 5.45338 60.451 5.09029C61.1342 4.93112 62.1806 4.96532 62.9068 5.33103C62.9546 5.35559 62.9789 5.39681 62.9797 5.45469L62.9928 6.81494C62.9928 6.86844 62.9713 6.88335 62.9283 6.85967C61.6897 6.17297 60.1046 6.10587 59.7809 8.00154C59.6431 8.81365 59.6722 9.59068 59.8681 10.3326C60.2981 11.9534 61.9023 11.7534 62.9773 11.0904Z" fill="black"/>
<path d="M79.0622 12.285C78.4775 13.0136 77.351 13.1224 76.5418 12.8915C75.8619 12.6986 75.4082 12.2686 75.1807 11.6015C74.7748 10.4085 75.031 9.16895 76.1701 8.56778C77.0162 8.12187 78.173 8.00244 79.0787 8.05552C79.1362 8.05817 79.1671 8.02986 79.1713 7.97058C79.2106 7.42515 79.1548 6.7324 78.5815 6.56121C77.6441 6.28252 76.401 6.66605 75.5955 7.18229C75.5456 7.21414 75.5211 7.19954 75.5219 7.1385L75.5308 5.80742C75.5312 5.77565 75.5398 5.74459 75.5556 5.71749C75.5715 5.6904 75.594 5.66828 75.6209 5.65347C76.5342 5.15449 77.5299 4.94127 78.6081 5.01381C79.4402 5.07088 80.2837 5.35753 80.6579 6.18166C80.8736 6.65543 80.9269 7.2022 80.9243 7.73171C80.9201 8.89601 80.9209 10.0864 80.9268 11.3029C80.9294 11.8223 80.9535 12.3235 80.9991 12.8065C81.0051 12.864 80.9801 12.8928 80.9243 12.8928L79.3666 12.8968C79.3125 12.8977 79.2791 12.8698 79.2664 12.8132L79.1586 12.3089C79.1565 12.2984 79.1516 12.2888 79.1445 12.2812C79.1374 12.2735 79.1283 12.2681 79.1182 12.2657C79.1082 12.2632 79.0976 12.2637 79.0877 12.2671C79.0778 12.2705 79.069 12.2767 79.0622 12.285ZM77.398 11.5537C78.0432 11.7829 78.6149 11.6453 79.1129 11.141C79.1544 11.0986 79.1755 11.0472 79.1764 10.9871V9.35607C79.1764 9.30299 79.151 9.27468 79.1003 9.27114C78.4851 9.22602 77.3574 9.2446 76.973 9.83117C76.6483 10.3262 76.7828 11.3361 77.398 11.5537Z" fill="black"/>
<path d="M85.0327 12.06C84.9334 11.9256 84.8837 11.9409 84.8837 12.1058L84.8824 14.9241C84.8824 14.9747 84.8564 15 84.8044 15H83.0943C83.0314 15 83 14.9699 83 14.9097V5.19823C83 5.18122 83.0072 5.1649 83.02 5.15287C83.0328 5.14084 83.0502 5.13409 83.0684 5.13409L84.6691 5.14194C84.7283 5.14194 84.7602 5.16987 84.7648 5.22572L84.829 6.01635C84.8363 6.09664 84.8646 6.10405 84.9138 6.0386C85.3909 5.41159 86.073 5.01497 86.8727 5.00057C88.3327 4.97439 89.336 5.85404 89.7229 7.13685C90.1371 8.51523 90.1248 10.1685 89.4263 11.4618C88.9273 12.3859 88.0032 12.9409 86.9206 12.9409C86.0949 12.9409 85.4656 12.6473 85.0327 12.06ZM87.9704 8.01126C87.8884 7.29393 87.5658 6.51508 86.7059 6.41559C84.5898 6.16819 84.7675 9.13569 85.0177 10.3007C85.1968 11.1306 85.7777 11.6765 86.721 11.4958C87.2523 11.3937 87.6127 11.087 87.8023 10.5756C88.0852 9.81113 88.0661 8.86342 87.9704 8.01126Z" fill="black"/>
<path d="M53.6645 8.67167V11.9213C53.6645 11.9406 53.6568 11.9591 53.6429 11.9727C53.6291 11.9864 53.6104 11.994 53.5909 11.994L52.0712 12C52.0237 12 52 11.9766 52 11.9297V5.07273C52 5.0322 52.0205 5.01193 52.0616 5.01193L53.5933 5.01909C53.64 5.01909 53.6633 5.04213 53.6633 5.08823L53.6645 8.14476C53.6645 8.21231 53.6846 8.21867 53.7249 8.16383L55.9446 5.12161C56.0042 5.03975 56.085 4.99922 56.1872 5.00001L57.6103 5.01074C57.6763 5.01154 57.69 5.03816 57.6514 5.09061L55.4171 8.13522C55.3952 8.16556 55.3833 8.20181 55.3831 8.23897C55.3829 8.27612 55.3944 8.31235 55.4159 8.34265L57.9942 11.9452C57.9975 11.95 57.9995 11.9557 57.9999 11.9615C58.0003 11.9674 57.9992 11.9732 57.9966 11.9784C57.994 11.9835 57.99 11.9878 57.9851 11.9908C57.9802 11.9938 57.9746 11.9953 57.9688 11.9952L56.1824 12C56.1567 12 56.1365 11.9897 56.1221 11.969L53.7237 8.65259C53.6842 8.59776 53.6645 8.60412 53.6645 8.67167Z" fill="black"/>
<path d="M31.904 7.77541H34.1399C34.1591 7.77541 34.1775 7.76824 34.1911 7.75548C34.2046 7.74272 34.2123 7.72541 34.2123 7.70737L34.2213 5.09311C34.2213 5.03183 34.2545 5.00119 34.3208 5.00119L35.9083 5.00716C35.9694 5.00716 36 5.03502 36 5.09072L35.9987 11.92C35.9987 11.9733 35.9694 12 35.9109 12L34.2717 11.9905C34.2555 11.9901 34.24 11.9841 34.2287 11.9736C34.2173 11.9631 34.211 11.949 34.211 11.9343L34.2148 9.14342C34.2148 9.12157 34.2055 9.10062 34.1887 9.08518C34.172 9.06973 34.1494 9.06105 34.1257 9.06105H31.8704C31.8282 9.06105 31.8071 9.08015 31.8071 9.11835L31.8084 11.926C31.8084 11.969 31.7851 11.9901 31.7386 11.9893L30.1395 11.9857C30.0499 11.9857 30.0056 11.9443 30.0064 11.8615C30.0331 9.89109 30.0318 7.97198 30.0026 6.1042C29.9983 5.79383 30.0007 5.08144 30.0007 5.08144C30.0041 5.03369 30.0697 5.00239 30.1214 5.00239L31.7425 5C31.7596 5 31.7761 5.00641 31.7882 5.01783C31.8003 5.02925 31.8071 5.04473 31.8071 5.06088V7.68707C31.8071 7.74596 31.8394 7.77541 31.904 7.77541Z" fill="black"/>
<path d="M37.5812 12.391L37.596 13.9185C37.5961 13.9292 37.5942 13.9397 37.5903 13.9496C37.5864 13.9595 37.5806 13.9685 37.5733 13.9761C37.566 13.9836 37.5572 13.9897 37.5476 13.9938C37.5379 13.9979 37.5276 14 37.5171 14L36.0851 13.9937C36.0275 13.9937 35.9992 13.9645 36 13.906L36.0247 11.0376C36.0247 10.9883 36.0493 10.9628 36.0986 10.9612L36.5004 10.9499C36.5373 10.949 36.5628 10.9311 36.5768 10.896C37.2509 9.24937 37.2755 6.94862 37.262 5.04261C37.262 5.03131 37.2664 5.02047 37.2743 5.01248C37.2821 5.00449 37.2928 5 37.3039 5L42.1595 5.00125C42.1788 5.00125 42.1973 5.00917 42.2109 5.02328C42.2246 5.03738 42.2322 5.0565 42.2322 5.07644L42.2347 10.8734C42.2347 10.8842 42.2368 10.8949 42.2408 10.9049C42.2449 10.9149 42.2508 10.9239 42.2582 10.9315C42.2657 10.9391 42.2745 10.945 42.2842 10.9491C42.2939 10.9531 42.3043 10.9551 42.3148 10.9549L42.9273 10.9536C42.9758 10.9528 43 10.977 43 11.0263V13.9223C43 13.9666 42.9782 13.9887 42.9347 13.9887L41.4903 13.995C41.441 13.995 41.4164 13.9699 41.4164 13.9198L41.4176 12.386C41.4176 12.3795 41.4163 12.3732 41.4139 12.3673C41.4114 12.3613 41.4077 12.3559 41.4032 12.3514C41.3986 12.3469 41.3932 12.3433 41.3872 12.3408C41.3812 12.3384 41.3748 12.3371 41.3683 12.3371H37.6329C37.626 12.3371 37.6192 12.3385 37.6128 12.3412C37.6065 12.3439 37.6007 12.3479 37.5959 12.3529C37.5911 12.358 37.5873 12.3639 37.5848 12.3705C37.5822 12.377 37.581 12.384 37.5812 12.391ZM38.715 6.42982C38.7174 8.00251 38.6152 9.45614 38.1481 10.8822C38.1316 10.9307 38.1485 10.9549 38.1986 10.9549L40.4687 10.9536C40.513 10.9536 40.5352 10.9311 40.5352 10.886V6.42732C40.5352 6.38137 40.513 6.3584 40.4687 6.3584L38.7815 6.36341C38.7372 6.36341 38.715 6.38555 38.715 6.42982Z" fill="black"/>
<path d="M93.8934 6.36247L93.8947 11.939C93.8947 11.9543 93.8882 11.9689 93.8766 11.9796C93.865 11.9904 93.8492 11.9964 93.8328 11.9964L92.171 12C92.1546 12 92.1389 11.994 92.1273 11.9832C92.1157 11.9724 92.1091 11.9578 92.1091 11.9426L92.1104 6.3565C92.1104 6.34128 92.1039 6.32669 92.0923 6.31593C92.0807 6.30517 92.065 6.29913 92.0486 6.29913L90.0619 6.30271C90.0538 6.30271 90.0457 6.30123 90.0382 6.29835C90.0307 6.29547 90.0239 6.29124 90.0181 6.28591C90.0124 6.28059 90.0078 6.27426 90.0047 6.2673C90.0016 6.26034 90 6.25288 90 6.24535L90.0026 5.05737C90.0026 5.04215 90.0091 5.02756 90.0207 5.0168C90.0323 5.00604 90.048 5 90.0645 5L95.9149 5.0012C95.9311 5.00119 95.9466 5.00707 95.9582 5.01757C95.9698 5.02807 95.9764 5.04236 95.9768 5.05737L96 6.24057C96.0002 6.2482 95.9987 6.25579 95.9957 6.26289C95.9926 6.26999 95.9881 6.27645 95.9823 6.28191C95.9766 6.28736 95.9697 6.29169 95.9621 6.29465C95.9545 6.29761 95.9463 6.29913 95.9381 6.29913L93.9553 6.30511C93.9389 6.30511 93.9231 6.31115 93.9115 6.32191C93.8999 6.33267 93.8934 6.34726 93.8934 6.36247Z" fill="black"/>
<path d="M98.9595 7.14098C99.9826 7.13263 100.945 7.09802 101.858 7.5539C103.059 8.15298 103.255 9.68412 102.715 10.6925C102.231 11.5912 101.068 11.9862 99.9772 11.9945C99.0756 12.0009 98.1121 12.0017 97.0867 11.9969C97.0289 11.9969 97 11.9715 97 11.9206L97.0014 5.08713C97.0014 5.02826 97.0348 4.99922 97.1016 5.00002L98.782 5.01076C98.838 5.01155 98.866 5.03661 98.866 5.08594L98.8769 7.06938C98.8769 7.08837 98.8856 7.10658 98.9011 7.12001C98.9166 7.13344 98.9376 7.14098 98.9595 7.14098ZM98.8701 8.50742L98.8782 10.6365C98.8782 10.6429 98.8796 10.6492 98.8824 10.6552C98.8852 10.6611 98.8893 10.6665 98.8945 10.6711C98.8996 10.6756 98.9058 10.6792 98.9125 10.6817C98.9192 10.6841 98.9265 10.6854 98.9338 10.6854L99.9623 10.6818C100.108 10.6813 100.251 10.6554 100.385 10.6053C100.519 10.5553 100.641 10.4822 100.743 10.3902C100.845 10.2982 100.926 10.1892 100.981 10.0692C101.037 9.94933 101.065 9.82089 101.064 9.69128V9.43828C101.063 9.17653 100.945 8.92588 100.737 8.74147C100.529 8.55705 100.247 8.45398 99.9542 8.45491L98.9256 8.45849C98.9109 8.45849 98.8968 8.46365 98.8864 8.47283C98.8759 8.482 98.8701 8.49445 98.8701 8.50742Z" fill="black"/>
<path d="M104.927 5H103.073C103.033 5 103 5.02677 103 5.05979V11.9402C103 11.9732 103.033 12 103.073 12H104.927C104.967 12 105 11.9732 105 11.9402V5.05979C105 5.02677 104.967 5 104.927 5Z" fill="black"/>
</g>
<defs>
<clipPath id="clip0_828_11463">
<rect width="105" height="17" fill="white"/>
</clipPath>
</defs>
</svg>
