<svg width="596" height="254" viewBox="0 0 596 254" fill="none" xmlns="http://www.w3.org/2000/svg">
<path d="M113.074 250.838V199.195H0V174.954L118.693 3.16183H145.381V171.441H181.902V199.195H145.381V250.838H113.074ZM113.074 171.441V42.509H121.853L27.0395 180.224V171.441H113.074Z" fill="#5F3420"/>
<path d="M295.191 254C276.228 254 260.191 249.082 247.081 239.245C234.205 229.408 224.373 215.121 217.584 196.385C211.029 177.414 207.751 154.227 207.751 126.824C207.751 98.9534 211.029 75.6496 217.584 56.9129C224.373 38.1761 234.205 24.0065 247.081 14.4039C260.191 4.80129 276.228 0 295.191 0C314.388 0 330.424 4.80129 343.3 14.4039C356.41 23.7723 366.243 37.8248 372.798 56.5616C379.353 75.2983 382.63 98.6021 382.63 126.473C382.63 153.876 379.236 177.062 372.447 196.033C365.891 215.004 356.176 229.408 343.3 239.245C330.424 249.082 314.388 254 295.191 254ZM295.191 226.246C313.919 226.246 327.849 218.166 336.979 202.006C346.109 185.845 350.674 160.668 350.674 126.473C350.674 92.2785 346.109 67.3352 336.979 51.6432C328.083 35.7169 314.153 27.7538 295.191 27.7538C276.462 27.7538 262.533 35.7169 253.402 51.6432C244.272 67.3352 239.707 92.2785 239.707 126.473C239.707 160.668 244.272 185.845 253.402 202.006C262.533 218.166 276.462 226.246 295.191 226.246Z" fill="#5F3420"/>
<path d="M527.172 250.838V199.195H414.098V174.954L532.791 3.16183H559.479V171.441H596V199.195H559.479V250.838H527.172ZM527.172 171.441V42.509H535.951L441.137 180.224V171.441H527.172Z" fill="#5F3420"/>
</svg>
